CoelacanthDisplayGross.sfdir
StartChar: exclam
Encoding: 33 33 74
Width: 277
Flags: HW
HStem: -17.5 133<116.816 149.483>
VStem: 67.5254 133.95<30.4466 64.8792> 122 34<209 408.18>
LayerCount: 2
Fore
SplineSet
111 209 m 1
 109 339 101.141614216 438.679775922 87 533 c 0
 78.931552629 579.78776308 29 604 33 654 c 1
 192.307692308 664 243.598290598 713 253 658 c 1
 219.6 622 226.981332916 596.301426077 215 530 c 0
 193.846153846 405 165 342 165 208 c 1
 111 209 l 1
EndSplineSet
Refer: 47 46 N 1 0 0 1 33 0 2
Substitution2: "pcap-1" exclam.pcap
Substitution2: "smcp-1" exclam.smcp
Position2: "cpsp-1" dx=0 dy=0 dh=50 dv=100
EndChar
StartChar: dollar
Encoding: 36 36 1371
Width: 463
UnlinkRmOvrlpSave: 1
Flags: HW
HStem: -8 34<169.661 305.631> 391 26<201.367 298.023>
VStem: 100 64<290.012 362.48> 341 55<52.7366 132.167>
LayerCount: 2
Back
SplineSet
385 374 m 1
 362.692382812 340.166992188 349.461914062 316 327 287 c 1
 300 299 l 1
 278.666666667 278.6 280 283.721372 280 307 c 3
 280 361.935731132 268.879662298 379 257 379 c 3
 230.358201047 379 206 361.865250385 206 338 c 3
 206 296.051320043 253.465636277 292.322011689 307 264 c 0
 366.313628294 231.929556866 404 199.41854581 404 126 c 3
 404 49.6715959821 322.599232869 -8 230 -8 c 3
 158.830078125 -8 95.2880859375 34.1015625 68 83 c 1
 85.9228515625 105.013671875 111.349609375 129.633789062 132 155 c 1
 165 136 l 1
 180.599609376 153.77734375 192 124.013307733 192 82 c 3
 192 43.5460379464 215.952508224 46 242 46 c 3
 282.232254464 46 308 65.7121394231 308 86 c 3
 308 130.745617378 269.916571309 116.277365151 246 138 c 0
 172.07102038 184.418288873 92 211.554408482 92 291 c 3
 92 363.835990287 170.179811116 417 258 417 c 3
 312.67578125 417 358.897460938 393.739257812 385 374 c 1
EndSplineSet
Fore
SplineSet
385 374 m 1
 362.692382812 340.166992188 349.461914062 316 327 287 c 1
 300 299 l 1
 300 300.2 300 308.442744 300 315 c 3
 300 359.831761006 279.209803427 379 257 379 c 3
 230.358201047 379 206 361.865250385 206 338 c 3
 206 296.051320043 253.72436323 292.805745469 307 264 c 0
 366.313628294 231.929556866 404 199.41854581 404 126 c 3
 404 49.6715959821 322.599232869 -8 230 -8 c 3
 158.830078125 -8 95.2880859375 34.1015625 68 83 c 1
 85.9228515625 105.013671875 111.349609375 129.633789062 132 155 c 1
 165 136 l 1
 165 130.230251736 165 120.450605432 165 111 c 3
 165 86.9168108424 201.886862664 46 242 46 c 3
 282.232254464 46 308 65.7121394231 308 86 c 3
 308 124.094977574 256.330686854 134.143542156 215 157 c 0
 155.952827966 189.653926203 92 221.420200893 92 291 c 3
 92 363.835990287 170.179811116 417 258 417 c 3
 312.67578125 417 358.897460938 393.739257812 385 374 c 1
EndSplineSet
Refer: 1966 58113 N 0.0181668 0.693762 -0.968418 0.0253589 236.417 -147.881 2
Substitution2: "case-1" dollar.alt
Substitution2: "lnum-1" dollar.alt
EndChar
StartChar: ampersand
Encoding: 38 38 185
Width: 676
Flags: HW
LayerCount: 2
Fore
SplineSet
176 354 m 1
 150 342 126 325 126 282 c 3
 126 144 185.173742209 83 285 83 c 3
 325.872483221 83 355 116 372 132 c 1
 290 299 253.689655172 305.814159292 176 354 c 1
148 584 m 3
 125.367690059 584 124 579.63100189 124 558 c 3
 124 514.987781109 162 454 254 431 c 1
 259 434 262 443.193548387 262 449 c 3
 262 478.489764161 265.628643297 584 148 584 c 3
638 474 m 1
 616.555555556 474 597.241851249 454.484557219 574 412 c 0
 540.677550685 351.088780431 501.338842975 266.888446215 465 199 c 1
 509.7109375 76.6312056738 544.071428571 49 588 49 c 3
 615.294117647 49 649 119 653 124 c 1
 672 112 l 1
 640 43 609.686746988 -5 530 -5 c 3
 458.157480315 -5 416 36 389 96 c 1
 366.647058824 69.0393700787 307.970588235 -11 199 -11 c 3
 80 -11 17 85 17 172 c 3
 17 268.553398058 89.4605263158 346.762135922 155 367 c 1
 116.636363636 397.234375 81 443.015625 81 506 c 3
 81 593 151 608 231 653 c 1
 316 623 357 575 351 498 c 1
 338.882352941 474.891304348 291 427 282 421 c 1
 374.172972973 387.68 430 278 449 245 c 1
 476.030927835 291.348178138 536 422 518 462 c 0
 511.381376009 476.708053313 495 494 474 506 c 1
 479 518 l 1
 523.52 499.538461538 585 486.846153846 638 488 c 1
 638 474 l 1
EndSplineSet
Position2: "cpsp-1" dx=0 dy=0 dh=50 dv=100
Substitution2: "pcap-1" ampersand.pcap
Substitution2: "smcp-1" ampersand.smcp
EndChar
StartChar: quotesingle
Encoding: 39 39 692
Width: 201
Flags: HW
LayerCount: 2
Fore
SplineSet
32 699.700195312 m 1
 166 699.700195312 l 1
 173.489257812 620.734375 114.474571428 557.03422607 108 445.700195312 c 1
 90 445.700195312 l 1
 83.2257428572 556.91122607 24.888671875 620.890625 32 699.700195312 c 1
EndSplineSet
Position2: "Extra space for context kern-1" dx=35 dy=0 dh=70 dv=0
Position2: "cpsp-1" dx=0 dy=0 dh=7 dv=14
EndChar
StartChar: parenleft
Encoding: 40 40 652
Width: 380
Flags: HW
LayerCount: 2
Fore
SplineSet
337 724 m 1
 354 696 l 1
 187.992592593 607.873543004 107 429.551020408 107 216 c 3
 107 0.560975609756 169.711111111 -155.772357724 353 -268 c 1
 339 -301 l 1
 145 -194 37 -20 37 212 c 3
 37 443 149 627 337 724 c 1
EndSplineSet
Position2: "cpsp-1" dx=0 dy=0 dh=50 dv=100
Position2: "'case' vertical ajustments for all-caps-1" dx=0 dy=125 dh=0 dv=0
EndChar
StartChar: asterisk
Encoding: 42 42 86
Width: 362
Flags: HW
HStem: 403.953 21G<240.417 271.479>
VStem: 136 75<624.196 692.944>
LayerCount: 2
Fore
SplineSet
186.305664062 531.293945312 m 1
 130.004882812 438.5 195.647460938 425.9453125 164.1875 374.38671875 c 1
 135.44921875 356.948242188 75.9482421875 402.650390625 54.75 455.134765625 c 1
 84.9951171875 491.8203125 115.069335938 453.265625 177.40625 537.127929688 c 1
 71.7568359375 561.997070312 80.1015625 495.689453125 21.3447265625 509.67578125 c 1
 -4.12109375 531.619140625 20.95703125 602.330078125 64.322265625 638.7109375 c 1
 108.55859375 621.282226562 81.1845703125 580.765625 180.206054688 547.393554688 c 1
 171.209960938 655.55859375 110.7265625 627.131835938 105.87109375 687.334960938 c 1
 118.87109375 718.334960938 193.87109375 716.334960938 241.87109375 686.334960938 c 1
 238.965820312 638.876953125 191.97265625 652.391601562 190.833984375 547.903320312 c 1
 290.924804688 589.883789062 245.19921875 638.624023438 300.955078125 661.844726562 c 1
 334.455078125 659.060546875 355.729492188 587.11328125 342.030273438 532.192382812 c 1
 295.998046875 520.290039062 294.329101562 569.159179688 194.603515625 537.953125 c 1
 265.458984375 455.734375 297.682617188 514.283203125 336.997070312 468.432617188 c 1
 344.701171875 435.711914062 282.849609375 393.24609375 226.3828125 389.302734375 c 1
 200.838867188 429.404296875 246.80078125 446.091796875 186.305664062 531.293945312 c 1
EndSplineSet
EndChar
StartChar: comma
Encoding: 44 44 2459
Width: 201
VWidth: 1159
Flags: HW
LayerCount: 2
Fore
SplineSet
42.7998 -115.7 m 1
 33.599590625 -101.949804688 l 1
 64.980502294 -83.8448865316 102.371512436 -43.4420529213 91.5996 -15.5996 c 0
 76.3732148847 18.8660128668 42.6198081093 42.3358342676 10.9004 59.5996 c 0
 4.4004 62.0668327567 -2.0996 67 -2.0996 74.4004 c 3
 -2.0996 81.0006315789 5.61546776772 82.6436981792 11.9004 85.4004 c 0
 43.9256519724 103.743333623 68.7772947769 128.318924992 85.0996 159.6 c 0
 87.7551970019 166.943789746 91.4178427131 177.4 99 177.4 c 3
 106.74375 177.4 110.471997747 166.938655162 113.196875 159.729882812 c 0
 130.071580544 128.407513497 157.738579022 102.628973299 189.9 85.4004 c 0
 196.543143242 82.9551308922 204.8 81.0006315789 204.8 74.4004 c 3
 204.8 67.8290902012 187.387585848 -44.5135388561 42.7998 -115.7 c 1
EndSplineSet
Position2: "Extra space for context kern-1" dx=78 dy=0 dh=156 dv=0
EndChar
StartChar: period
Encoding: 46 46 656
Width: 201
Flags: HW
LayerCount: 2
Fore
SplineSet
189.287304688 56.4756046875 m 0
 159.361914062 40.7998140625 128.712695312 15.8506046875 113.037304688 -14.0751859375 c 0
 110.1875 -21.2001859375 108.386101562 -29.75 99.8366875 -29.75 c 3
 91.2860734375 -29.75 88.5381046875 -21.2001859375 85.6875 -14.0751859375 c 0
 70.0126859375 15.8506046875 42.2118953125 40.7998140625 12.2881046875 56.4756046875 c 0
 5.1631046875 59.3251859375 -1.9618953125 62.554621875 -1.9618953125 71.1044359375 c 3
 -1.9618953125 79.6552265625 5.1631046875 82.3993953125 12.2881046875 85.25 c 0
 42.2118953125 100.925790625 70.0126859375 129.725604688 85.6875 159.650195312 c 0
 88.5381046875 166.775195312 91.2860734375 176.75 99.8366875 176.75 c 3
 108.386101562 176.75 110.1875 166.775195312 113.037304688 159.650195312 c 0
 128.712695312 129.725604688 159.361914062 100.925790625 189.287304688 85.25 c 0
 196.412304688 82.3993953125 204.962695312 79.6552265625 204.962695312 71.1044359375 c 3
 204.962695312 62.554621875 196.412304688 59.3251859375 189.287304688 56.4756046875 c 0
EndSplineSet
Position2: "Extra space for context kern-1" dx=78 dy=0 dh=156 dv=0
Position2: "cpsp-1" dx=0 dy=0 dh=7 dv=14
EndChar
StartChar: zero
Encoding: 48 48 2343
Width: 474
Flags: HW
LayerCount: 2
Fore
SplineSet
194.319 361.02 m 3
 158.225469944 361.02 149 313.030191374 149 278 c 3
 149 138.505893829 205.344515926 25 286 25 c 3
 321.809526584 25 330 72.7360158555 330 112 c 3
 330 231.841271292 282.302456062 361.02 194.319 361.02 c 3
248.937 392.9 m 3
 358.076 392.9 439 310.324 439 197.9 c 3
 439 86.5713 347.961 -5.88965 228.741 -5.88965 c 3
 115.521 -5.88965 35.1602 81.5713 35.1602 190.9 c 3
 35.1602 301.262 138.776 392.9 248.937 392.9 c 3
EndSplineSet
Substitution2: "'zero' Slashed Zero lookup 22-1" zero.alt
Substitution2: "dnom-1" zero.denom
Substitution2: "numr-1" zero.numerator
Substitution2: "lnum-1" zero.proportionallining
Substitution2: "tnum-1" zero.tabulartext
EndChar
StartChar: one
Encoding: 49 49 63
Width: 299
Flags: HW
LayerCount: 2
Fore
SplineSet
55.5 392 m 1
 73.5807279825 391.227550817 93.6952235028 390.110001519 114.913097683 390.110001519 c 0
 154.130871964 390.110001519 197.118172095 393.927939203 238 410.799804688 c 9
 244 388.799804688 l 1
 228 385.599609375 223 385.599609375 212 315.599609375 c 0
 210.665039062 306.643554688 199.5 397.848632812 199.5 200 c 3
 199.5 144.454101562 202.642578125 79.7529296875 204 69.599609375 c 0
 208 20.599609375 273 9.599609375 253 23.7998046875 c 1
 252.5 -2 l 1
 205.481168703 6.76362318037 171.188463451 10.7277261677 140.49196764 10.7277261677 c 0
 108.840777022 10.7277261677 81.0129665245 6.51321285678 47 -1 c 13
 46 22.7998046875 l 1
 53 16.599609375 68.158203125 19.34375 89 72.599609375 c 0
 95.4541015625 87.2978515625 105.5 56 105.5 210 c 3
 105.5 360.791992188 101.44921875 312.356445312 86 350.799804688 c 0
 81.119140625 363.11328125 74 380.799804688 54.5 372 c 9
 55.5 392 l 1
EndSplineSet
Substitution2: "dnom-1" one.denom
Substitution2: "numr-1" one.numerator
Substitution2: "tnum-1" one.tabulartext
Substitution2: "lnum-1" one.proportionallining
EndChar
StartChar: two
Encoding: 50 50 64
Width: 400
Flags: HW
LayerCount: 2
Fore
SplineSet
56 340.5 m 1
 82.6142578125 383.813476562 136.978515625 417.5 192 417.5 c 1
 268 417.5 320 383.5 320 313.5 c 3
 320 267.986328125 294 221 160 98 c 1
 297 73.5 252 80.5 317 91 c 1
 369.98828125 92.8720703125 397 129 392 117.5 c 1
 404 109.5 l 1
 404 109.5 352 27.5 334 -20.5 c 1
 326 -18 310.052734375 0.5 259 0.5 c 3
 4.982421875 0.5 34 -0.6484375 18 -5 c 1
 11 14 l 1
 44 36 198 131.017578125 198 294.5 c 3
 198 328.943359375 200 371 156 371 c 1
 103 371 98 345 74 326.5 c 1
 56 340.5 l 1
EndSplineSet
Substitution2: "dnom-1" two.denom
Substitution2: "numr-1" two.numerator
Substitution2: "tnum-1" two.tabulartext
Substitution2: "lnum-1" two.proportionallining
EndChar
StartChar: three
Encoding: 51 51 65
Width: 319
Flags: HW
LayerCount: 2
Fore
SplineSet
43 -207.799804688 m 1
 167 -181.799804688 180 -119.599609375 180 -45.599609375 c 3
 180 46.400390625 102 78.400390625 69 99.400390625 c 1
 69 106.400390625 68 107.200195312 64 107 c 1
 57 127 l 1
 124 157 176 156.400390625 176 283.400390625 c 3
 176 353.358398438 97.912109375 366.400390625 115 366.400390625 c 3
 71 366.400390625 93 358.400390625 64 348.200195312 c 1
 54 360.200195312 l 1
 77 394.200195312 146 418.200195312 179 418.200195312 c 3
 238 418.200195312 276 364.200195312 276 311.200195312 c 3
 276 264.189453125 239 228.200195312 165 167 c 1
 232 144.200195312 288 91.525390625 288 4 c 3
 288 -144 89 -216.799804688 45 -223.799804688 c 1
 43 -207.799804688 l 1
EndSplineSet
Substitution2: "dnom-1" three.denom
Substitution2: "numr-1" three.numerator
Substitution2: "tnum-1" three.tabulartext
Substitution2: "lnum-1" three.proportionallining
EndChar
StartChar: four
Encoding: 52 52 375
Width: 469
Flags: HW
LayerCount: 2
Fore
SplineSet
244 63 m 1
 244 146.5 247.81640625 165.555664062 230 222 c 1
 230 222 51.140625 7.5390625 83 69 c 1
 2.7861328125 63.3525390625 342.647460938 62.77734375 244 63 c 1
355 411.5 m 1
 354.9296875 400.120117188 354.055664062 398.125976562 353 381 c 0
 346 267.5 344.509765625 190.700195312 342 62 c 1
 365 60.5 459 79 457 97.5 c 1
 457 97.5 464.3203125 93.83984375 469 91.5 c 9
 469 91.5 445.549804688 22.974609375 428 -17 c 1
 402.038085938 -5.408203125 369.772460938 -4.939453125 342 -5 c 1
 341.793945312 28.345703125 346.56640625 -143.471679688 351 -178.5 c 1
 308 -203 270 -225 256 -250.5 c 9
 256 -250.5 244.509765625 -245.349609375 241 -239.5 c 1
 245 -217 241.185546875 34.384765625 242 -6 c 1
 58 -6 32 -6 4 -14 c 9
 4 -14 2.0703125 -1.2900390625 -3 3 c 1
 12 19 312.8671875 367 334 421.5 c 9
 355 411.5 l 1
EndSplineSet
Substitution2: "dnom-1" four.denom
Substitution2: "numr-1" four.numerator
Substitution2: "tnum-1" four.tabulartext
Substitution2: "lnum-1" four.proportionallining
EndChar
StartChar: five
Encoding: 53 53 67
Width: 355
Flags: HW
LayerCount: 2
Fore
SplineSet
84 395 m 1
 152 397 242 397 258 399 c 0
 284 403 292 421 312 441 c 9
 312 441 319 437 324 435 c 1
 297 396 271 287 262 289 c 0
 231 291 156 286 94 287 c 1
 94 287 94 262 94 215 c 1
 174 217 292 177 292 49 c 3
 292 -95 137 -205 32 -214 c 9
 32 -214 32 -205 30 -199 c 1
 120 -196 189 -94 189 9 c 3
 189 31 185 117 51 108 c 1
 65 170 80 307 84 395 c 1
EndSplineSet
Substitution2: "dnom-1" five.denom
Substitution2: "numr-1" five.numerator
Substitution2: "tnum-1" five.tabulartext
Substitution2: "lnum-1" five.proportionallining
EndChar
StartChar: six
Encoding: 54 54 744
Width: 446
Flags: HW
LayerCount: 2
Fore
SplineSet
341 630 m 1
 341 630 348.9296875 620.849609375 354 615 c 1
 208.268554688 497.166992188 153 433.438476562 153 274 c 3
 153 157.841796875 186.985351562 32 297 32 c 3
 320.11328125 32 329 60.134765625 329 90 c 3
 329 190.912109375 281.732421875 297 211 297 c 3
 201.336914062 297 201.05859375 291.10546875 187 283 c 1
 177 291 l 1
 178.41015625 310.323242188 219.580078125 364 263 364 c 3
 338 364 411 276.702148438 411 178 c 3
 411 75.951171875 317.0234375 -10 229 -10 c 3
 103.85546875 -10 43 121.913085938 43 214 c 3
 43 413.572265625 167 572 341 630 c 1
EndSplineSet
Substitution2: "dnom-1" six.denom
Substitution2: "numr-1" six.numerator
Substitution2: "tnum-1" six.tabulartext
Substitution2: "lnum-1" six.proportionallining
EndChar
StartChar: seven
Encoding: 55 55 729
Width: 452
Flags: HW
LayerCount: 2
Fore
SplineSet
81 422 m 1
 102 406 122.442382812 405.676757812 114 406 c 0
 242.69921875 401.026367188 430 404 444 408 c 1
 444 408 448.879882812 397.900390625 452 394 c 1
 416 364 141 -173 183 -170 c 1
 183 -170 113.1796875 -167.219726562 70 -168 c 1
 187 0 179.626953125 -37.509765625 310 260 c 0
 312.53125 267.833007812 301.626953125 283.200195312 295 288 c 0
 264.15234375 310.341796875 129.858398438 299.248046875 98 295 c 0
 68 291 53 285 37 260 c 1
 37 260 24.240234375 262.440429688 18 264 c 1
 18 264 63 390 69 421 c 1
 81 422 l 1
EndSplineSet
Substitution2: "dnom-1" seven.denom
Substitution2: "numr-1" seven.numerator
Substitution2: "tnum-1" seven.tabulartext
Substitution2: "lnum-1" seven.proportionallining
EndChar
StartChar: eight
Encoding: 56 56 318
Width: 432
UnlinkRmOvrlpSave: 1
Flags: HW
LayerCount: 2
Fore
SplineSet
165 602 m 3
 148.62890625 602 131 579.921875 131 558 c 3
 131 346.890625 391 358.74609375 391 155 c 3
 391 61.1337890625 306.866210938 -7 213 -7 c 3
 126.5078125 -7 41 46.5078125 41 133 c 3
 41 318.959960938 272 293.694335938 272 425 c 3
 272 479.364257812 233.541015625 602 165 602 c 3
213 631 m 3
 289.971679688 631 356 580.138671875 356 497 c 3
 356 327.606445312 151 336.52734375 151 213 c 3
 151 142.008789062 198.189453125 11 253 11 c 3
 295.161132812 11 293 53.642578125 293 75 c 3
 293 159.3046875 271.859375 217.853515625 214.142578125 272 c 0
 144.732421875 333.059570312 70 400.974609375 70 474 c 3
 70 589.572265625 170.11328125 631 213 631 c 3
EndSplineSet
Substitution2: "dnom-1" eight.denom
Substitution2: "numr-1" eight.numerator
Substitution2: "lnum-1" eight.proportionallining
Substitution2: "tnum-1" eight.tabulartext
EndChar
StartChar: greater
Encoding: 62 62 333
Width: 463
VWidth: 0
Flags: HW
LayerCount: 2
Fore
SplineSet
57 346 m 1
 106 412 l 1
 412 203 l 1
 82 -7 l 1
 70 11 l 1
 315 171 l 1
 57 346 l 1
EndSplineSet
Position2: "'case' vertical ajustments for all-caps-1" dx=0 dy=90 dh=0 dv=0
EndChar
StartChar: question
Encoding: 63 63 73
Width: 393
VWidth: 1159
Flags: HW
HStem: -17.5 133<112.816 145.483>
VStem: 63.5254 133.95<30.4466 64.8792> 303 33<375.873 497.304>
LayerCount: 2
Fore
SplineSet
46 552 m 1
 50.2001667658 583.554796907 51.873046875 610.711226706 51.873046875 634.122070312 c 3
 51.873046875 697.616493762 39.4462890625 703.625735342 39.4462890625 712.575195312 c 3
 39.4462890625 719.968649163 45.1491015461 721.206820312 65 726 c 1
 88.1176470588 674 96.1176470588 669 109 669 c 3
 226.251953125 669 336 559.415458937 336 457 c 3
 336 315.382022472 261.995272434 281.34592662 226 273 c 0
 158.273705169 257.296863208 158.102941176 234.923076923 136 210 c 1
 122 210 l 1
 120.273484707 246.112450339 119.188476562 277.140427185 119.188476562 303.138671875 c 3
 119.188476562 355.435574438 126.301311973 381.924949329 148 383 c 0
 218.490268641 385.051036799 316 402.364485982 316 439 c 3
 316 532.365124437 247.327029488 556.616018623 86.7916815237 556.616018623 c 3
 73.7737189837 556.616018623 60.1658687153 555.114446181 46 552 c 1
EndSplineSet
Refer: 47 46 N 1 0 0 1 29 0 2
Position2: "cpsp-1" dx=0 dy=0 dh=50 dv=100
Substitution2: "smcp-1" question.smcp
Substitution2: "pcap-1" question.pcap
EndChar
StartChar: at
Encoding: 64 64 210
Width: 802
Flags: HW
LayerCount: 2
Fore
SplineSet
438.259765625 282.766601562 m 0
 433 291 423.916992188 297.80078125 408.509765625 297.80078125 c 3
 396.0625 297.80078125 380.990234375 295.442382812 373.111328125 285.19921875 c 0
 361.890625 270.611328125 351.8984375 243.21875 351.8984375 187.171875 c 3
 351.8984375 137.383789062 363.654296875 93 413.91015625 93 c 3
 422.848632812 93 415.766601562 96.2607421875 413.7109375 99.400390625 c 1
 423.122070312 123.469726562 434.704101562 161.186523438 438.91015625 196.599609375 c 0
 439.884765625 204.805664062 444.209960938 230.278320312 444.209960938 246.93359375 c 3
 444.209960938 260.450195312 444.6484375 272.766601562 438.259765625 282.766601562 c 0
586.754882812 336 m 1
 561.5546875 278.993164062 540.7578125 211.634765625 532.754882812 150.5 c 0
 530.216796875 127.565429688 526.89453125 104.086914062 526.89453125 94.939453125 c 3
 526.89453125 76.39453125 532.323242188 68.599609375 541.509765625 68.599609375 c 3
 561.250976562 68.599609375 574.115234375 47.1669921875 618.5 86.5 c 0
 664.030273438 130.1796875 686 188.560794045 686 282 c 3
 686 446.770176724 581.937287328 509 402 509 c 3
 269.635325949 509 161 373.343111111 161 157 c 3
 161 -3.28592041526 287.619141914 -110 421 -110 c 3
 540.333616393 -110 641.713537705 -70.5954421488 714 -9 c 1
 718.29 -14.07 720.71 -16.93 725 -22 c 1
 654.297297297 -105.076923077 533.194369369 -184 398 -184 c 3
 215.848 -184 37 -52.6006 37 157 c 3
 37 379.824 218.625 561 442 561 c 3
 602.303 561 760 456.039 760 288 c 3
 760 189.984026966 698.358398438 109.017578125 635.5 64.5 c 0
 594.302734375 35.416015625 551.153320312 -4.900390625 469.354492188 -4.900390625 c 3
 399.624023438 -4.900390625 421.719726562 82.1337890625 413.309570312 81.599609375 c 1
 382.451171875 37.15234375 341.515625 6.5 316.955078125 6.5 c 3
 270.01953125 6.5 237.850585938 50.798828125 237.850585938 103.969726562 c 3
 237.850585938 201.658203125 311.736328125 286.1328125 375.455078125 322.400390625 c 0
 411.291015625 343.149414062 457.3359375 351.15234375 511.509765625 366.599609375 c 0
 523.1640625 369.73828125 535.734375 382.918945312 540.209960938 391.700195312 c 1
 618.254882812 399.899414062 l 1
 607.462890625 378.31640625 597.358398438 357.20703125 586.754882812 336 c 1
EndSplineSet
Position2: "'case' vertical ajustments for all-caps-1" dx=0 dy=160 dh=0 dv=0
Position2: "cpsp-1" dx=0 dy=0 dh=50 dv=100
EndChar
StartChar: A
Encoding: 65 65 2360
Width: 719
Flags: HMW
AnchorPoint: "Bottom" 365 -15 basechar 0
AnchorPoint: "Top" 366 699 basechar 0
AnchorPoint: "Ogonek" 533 19 basechar 0
LayerCount: 2
Fore
SplineSet
242 278 m 1
 299 267 354 271 403 273 c 1
 377 336 342 399 316 449 c 1
 305 422 256.266601562 303.125 242 278 c 1
430 -7 m 1
 426 15 l 1
 459 23 468.587556406 41.8364282853 467 72 c 0
 465 110 450 148 426 211 c 1
 366 217 272 221 218 216 c 1
 197 172 190 145 179 98 c 0
 166.785307517 45.8099503013 213 33 240 22 c 1
 236 -6 l 1
 198.327148438 -2.205078125 135.825602049 -0.87970446014 86.9193348728 -0.87970446014 c 3
 64.4256346706 -0.87970446014 43.3270879041 -1.79473426675 26 -4 c 9
 22 22 l 1
 58 27 86.0732421875 77.455078125 96 101 c 0
 146 208 283.048742044 514.88404062 348 679 c 0
 351.658837855 690.130119079 355 695 357 710 c 9
 384 708 l 1
 386 699 389.294317775 692.74585594 394 683 c 0
 477 462 604.202094183 153.595811633 644 78 c 0
 667 34 692 26 700 18 c 1
 697 -4 l 1
 668.715728753 -3.05719095842 632.431457505 -2.11438191684 595.68965859 -2.11438191684 c 3
 554.490332008 -2.11438191684 461.715820312 -3.2998046875 430 -7 c 1
EndSplineSet
Position2: "cpsp-1" dx=0 dy=0 dh=50 dv=100
Substitution2: "c2pc-1" a.pcap
Substitution2: "c2sc-1" a.smcp
EndChar
StartChar: B
Encoding: 66 66 27
Width: 574
VWidth: 1159
Flags: HMW
AnchorPoint: "Top" 278 682 basechar 0
LayerCount: 2
Back
SplineSet
30 20 m 5
 26 12 95.1188581907 47.0821687813 103 146 c 4
 112.569416818 199.626404954 114 327.516034985 114 429 c 7
 114 470.134615385 112 505.910593585 110 522 c 4
 106 618.483514143 80.0914391592 657.409206537 27 674 c 4
 25.803988832 676.789724578 27.5 678.666666667 31 678 c 5
 33 704 l 5
 59 700 112 694 145 694 c 7
 198 694 229 702 283 702 c 7
 379 702 483 642 483 535 c 7
 483 461 428 400 326 384 c 5
 438 370 552 304 552 187 c 7
 552 37 413 -5 294 -5 c 7
 226 -5 197 -1 149 -1 c 7
 102 -1 70 -1 31 -6 c 5
 30 20 l 5
274 390 m 4
 297.936525392 404.62776273 321 438.757352941 321 517 c 7
 321 601.440789474 273.8 668 197 668 c 7
 214.129032258 668 292 677 282 672 c 4
 272.757898581 665.568423935 264 656.238089009 260 643 c 4
 250 621 242 434 246 381 c 5
 254.367816092 381 220.171538824 380.734709434 274 390 c 4
302 342 m 4
 286.359121173 348.931890812 260.405797101 350 246 353 c 5
 245 265.272401434 244.25390625 178.249143179 247 142 c 4
 249.092065028 97.8666044547 251.454307851 79.2816328508 256 69 c 4
 256.430379747 44 257.063291139 41 258 41 c 7
 333.127659574 41 390 89.6666666667 390 169 c 7
 390 252.551136364 368 324 302 342 c 4
EndSplineSet
Fore
SplineSet
30 20 m 1
 46 23 76.7494357931 47.2994507637 87 146 c 0
 92.5693359375 199.625976562 96 327.515625 96 429 c 3
 96 470.134765625 94.8391284807 505.80760649 94 522 c 0
 89 618.483398438 80.091796875 661.409179688 38 676 c 0
 35.1317472347 676.994259305 27.5 678.666666667 31 678 c 1
 33 704 l 1
 59 700 112 694 145 694 c 3
 198 694 229 702 283 702 c 3
 379 702 492 642 492 535 c 3
 492 461 428 400 326 384 c 1
 438 370 552 304 552 187 c 3
 552 37 413 -5 294 -5 c 3
 226 -5 197 -1 149 -1 c 3
 102 -1 70 -1 31 -6 c 1
 30 20 l 1
280 390 m 0
 304.726986698 403.248004002 339 438.7578125 339 517 c 3
 339 595.006409993 278.068883707 654 249 654 c 3
 247.615234375 654 245.839048961 652.745029798 245 651 c 0
 242.098632812 644.965820312 237.227539062 635.665039062 236 626 c 0
 233.211991791 604.048594076 224 434 228 381 c 1
 236.368164062 381 270.171875 384.734375 280 390 c 0
302 342 m 0
 286.359121173 348.931890812 242.40625 350 228 353 c 1
 227 265.272460938 226.25390625 178.249023438 229 142 c 0
 231.091796875 97.8662109375 234.454101562 83.28125 238 69 c 0
 244.024414062 44.7333984375 271.063476562 41 272 41 c 3
 330.127929688 41 390 89.6666666667 390 169 c 3
 390 252.551136364 368 324 302 342 c 0
EndSplineSet
Position2: "cpsp-1" dx=0 dy=0 dh=50 dv=100
Substitution2: "c2pc-1" b.pcap
Substitution2: "c2sc-1" b.smcp
EndChar
StartChar: C
Encoding: 67 67 28
Width: 666
VWidth: 1159
Flags: HW
HStem: -12 26<345.649 498.05> 697 30<308.728 483.108>
VStem: 23 90<225.853 484.692> 600 20<550.9 621.644> 625 21<128.174 155>
AnchorPoint: "Top" 389 708 basechar 0
LayerCount: 2
Back
SplineSet
23 344 m 3
 23 664 285 727 417 727 c 3
 475.496969697 727 517.21972622 714.325114075 544 709 c 0
 584 694 626 698 643 691 c 1
 649 686 l 1
 635 655 626.741210938 593.862304688 620 542 c 0
 619 526 601 534 593 539 c 1
 598 574 571.434044448 611.000953531 532 634 c 0
 485.352864513 661.205924518 426 681 383 681 c 3
 210.735191638 681 189 515.997942396 189 364 c 3
 189 93.9411764706 398.908203125 26 439 26 c 3
 472.241540277 26 588 68 618 173 c 1
 646 170 l 1
 637 131 619 67 608 21 c 1
 538 5 473 -12 397 -12 c 3
 190 -12 23 140 23 344 c 3
EndSplineSet
Fore
SplineSet
23 344 m 3
 23 664 285 727 417 727 c 3
 475.496969697 727 517.21972622 714.325114075 544 709 c 0
 584 694 626 698 643 691 c 1
 649 686 l 1
 635 655 626.741368839 609.861901426 620 558 c 0
 619 542 601 550 593 555 c 1
 602 588 549.105176583 610.447411708 488 648 c 0
 442 677 378 681 383 681 c 3
 240.106812756 681 187.534179688 567.80859375 187.534179688 442 c 3
 187.534179688 89.9996917777 383.47279256 26 439 26 c 3
 472.241540277 26 588 52 618 157 c 1
 646 154 l 1
 637 115 619 67 608 21 c 1
 538 5 473 -12 397 -12 c 3
 190 -12 23 140 23 344 c 3
EndSplineSet
Position2: "cpsp-1" dx=0 dy=0 dh=50 dv=100
Substitution2: "c2pc-1" c.pcap
Substitution2: "c2sc-1" c.smcp
EndChar
StartChar: D
Encoding: 68 68 29
Width: 797
VWidth: 1159
Flags: HW
HStem: -6 23<31 93.0026 263.448 453.367> 692 21<39 81.9453 193.386 427.753>
VStem: 109 87<40.7566 309.036> 683 91<231.612 474.643>
AnchorPoint: "Top" 361 690 basechar 0
LayerCount: 2
Back
SplineSet
333 26 m 7
 573.988700926 26 606 172 606 373 c 7
 606 579.73556231 423.741641337 685 357 685 c 7
 320.485714286 685 282.349407092 667.293663902 285 648 c 4
 276.922954713 640.150243345 277.012417845 641.283377291 275 627 c 4
 260.398507528 556.683166434 253.517541681 370.183113764 253.517541681 228.478227022 c 7
 253.517541681 165.039995485 255.53946444 111.914659251 260 88 c 4
 261.880628152 80.0447159475 265.219271027 76.0710051301 274 72 c 4
 248.111111111 51.3076923077 309.645833333 26 333 26 c 7
EndSplineSet
Fore
SplineSet
333 26 m 3
 547.243654338 26 605.088087513 146.71632926 605.088087513 319.999991438 c 3
 605.088087513 550.885066747 438.723632812 685 339 685 c 3
 308.485351562 685 295.107421875 671.131835938 285 655 c 0
 280.523503432 647.855338474 277.012417845 641.283377291 275 627 c 0
 260.398507528 556.683166434 253.517541681 370.183113764 253.517541681 228.478227022 c 3
 253.517541681 165.039995485 254.403337571 111.67455753 260 88 c 0
 261.880628152 80.0447159475 267.25087596 62.9078167857 272 56 c 0
 283 40 309.645833333 26 333 26 c 3
39 708 m 1
 57 706 81 706 134 706 c 3
 167 706 283 713 351 713 c 3
 579 713 774 592 774 353 c 3
 774 87 532 -6 376 -6 c 3
 286 -6 245 0 172 0 c 3
 130 0 65 -2 31 -4 c 1
 31 20 l 1
 48 11 90.0432719583 35.4416604418 100 120 c 0
 107.844103406 179.24660914 118.188205221 321.101417015 118.188205221 453.956004373 c 3
 118.188205221 515.303869059 110.527809761 568.57078627 106 597 c 0
 95.6344091128 662.083476193 68 680.611111111 38 682 c 1
 39 708 l 1
EndSplineSet
Position2: "cpsp-1" dx=0 dy=0 dh=50 dv=100
Substitution2: "c2pc-1" d.pcap
Substitution2: "c2sc-1" d.smcp
EndChar
StartChar: E
Encoding: 69 69 30
Width: 639
VWidth: 1159
Flags: HW
AnchorPoint: "Bottom" 309 -15 basechar 0
AnchorPoint: "Top" 330 682 basechar 0
AnchorPoint: "Ogonek" 560 1 basechar 0
LayerCount: 2
Back
SplineSet
41 704 m 1xaf80
 90 704 170 703 254 703 c 3
 392 703 538 704 565 708 c 1
 570 706 571 704 571 698 c 3
 571 686 563 656 554 562 c 1
 535 563 l 1
 539 609 540 640 515 653 c 0
 478 672 412 680 347 680 c 3
 297 680 248 676 214 668 c 0
 209 667 205 666 204 661 c 0
 197 602 193 440 193 374 c 1
 243 372 406 374 460 381 c 0
 486 385 496 430 502 453 c 1
 519 451 l 1
 516 426 514 386 514 345 c 3
 514 308 516 271 518 246 c 1
 498 245 l 1
 497 294 486 331 456 336 c 0
 370 350 266 348 193 346 c 1
 193 267 191 113 202 54 c 0
 203 48 205 44 209 43 c 0
 226 35 285 25 351 25 c 3
 420 25 496 36 541 71 c 0
 568 92 592 126 608 167 c 1
 625 161 l 1
 614 125 579 19 568 -6 c 1
 559 -3 437 0 310 0 c 7x7780
 195 0 75 -2 31 -9 c 1
 28 10 l 1
 62 16 96 19 101 53 c 0
 112 138 117 257 117 376 c 3
 117 468 114 560 109 636 c 0
 107 674 82 685 41 690 c 1
 41 704 l 1xaf80
EndSplineSet
Fore
SplineSet
41 704 m 1
 90 704 170 703 254 703 c 3
 392 703 538 704 565 708 c 1
 570 706 571 704 571 698 c 3
 571 686 563 656 554 562 c 1
 530 563 l 1
 529 558 518.860172909 587.571525658 481 613 c 4
 414 658 360 667 325 667 c 3
 304 667 290 664 284 663 c 0
 279 662 276 661 274 656 c 0
 260 603 251 441 251 381 c 1
 284 377 365 381 429 395 c 0
 472 404 489 435 499 454 c 1
 519 451 l 1
 516 426 514 386 514 345 c 3
 514 308 516 271 518 246 c 1
 492 245 l 1
 494 285 467 297 421 319 c 0
 365 346 298 343 251 339 c 1
 252 270 248 136 270 85 c 0
 272 79 273 76 277 74 c 0
 285 58 317 36 351 36 c 3
 414 36 474 73 531 116 c 0
 559.348656615 137.385828675 589 166 605 184 c 1
 625 177 l 1
 614 141 579 19 568 -6 c 1
 559 -3 437 0 310 0 c 3
 195 0 75 -2 31 -9 c 1
 27 12 l 1
 53 18 70 28 82 73 c 0
 103 152 113 264 113 376 c 3
 113 455 105 530 97 598 c 0
 89 662 75 677 41 686 c 1
 41 704 l 1
EndSplineSet
Position2: "cpsp-1" dx=0 dy=0 dh=50 dv=100
Substitution2: "c2pc-1" e.pcap
Substitution2: "c2sc-1" e.smcp
EndChar
StartChar: F
Encoding: 70 70 2416
Width: 589
Flags: HW
HStem: -4 22<38 81.6241> 351 29<200 392.516> 683 19<30 80.4241>
VStem: 477 25<258 325.072 385.783 445> 529 23<565 628.106>
AnchorPoint: "Bottom" 206 -15 basechar 0
AnchorPoint: "Top" 323 675 basechar 0
LayerCount: 2
Fore
SplineSet
339 -8 m 1
 300 -3 226 -1 173 -1 c 3
 128 -1 83 -3 42 -6 c 1
 36 15 l 1
 69.01171875 22 88.7307131525 51.8872461225 105 147 c 0
 118 223 116 284.098632812 116 364 c 3
 116 440.909179688 115.418276375 509.783338914 103 580 c 0
 92.673017205 637.246921208 79.15625 676.904391687 28 680 c 1
 28 700 l 1
 145 699 250 697 336 697 c 3
 362 697 536 702 555 710 c 1
 558 708 559 708 559 706 c 0
 559 700 551 661 551 548 c 1
 529 550 l 1
 514 568.325195312 514.784794405 575.291149366 464 608 c 0
 405 646 345.048828125 654 304 654 c 3
 291.998046875 654 279 647 276 629 c 0
 267.162120837 575.972725019 258 457.883789062 258 386 c 1
 304 369 384 386 415 396 c 0
 451.476646112 407.766660036 478 423 484 452 c 1
 504 447 l 1
 502 441 499 416 499 387 c 3
 499 350 502 289 504 260 c 1
 481 260 l 1
 477 289 455.413435486 303.901809196 414 318 c 0
 367 334 308.346679688 339.5 257 342 c 1
 256 314 260.066328269 247.917484271 265 155 c 0
 271 42 307 23 344 15 c 1
 339 -8 l 1
EndSplineSet
Position2: "cpsp-1" dx=0 dy=0 dh=50 dv=100
Substitution2: "c2pc-1" f.pcap
Substitution2: "c2sc-1" f.smcp
EndChar
StartChar: G
Encoding: 71 71 2417
Width: 749
Flags: HW
HStem: -10 30<346.593 535.084> 320 23<471 582.818> 328 21<699.83 724.333> 679 31<316.494 508.891>
VStem: 23 88<247.514 473.292> 604 79<60.1948 309.006> 647 20<537.25 556.91>
AnchorPoint: "Bottom" 407 -15 basechar 0
AnchorPoint: "Top" 420 689 basechar 0
LayerCount: 2
Fore
SplineSet
23 357 m 3
 23 576 226 710 431 710 c 3
 498.914110429 710 517.079639856 704.171212702 566 692 c 0
 600.617537509 683.387279018 603.684210526 701.5 632 704 c 1
 645 700 l 1
 645 674 655 581 667 539 c 1
 641 534 l 1
 603 606 468.449272795 662 385 662 c 3
 205.509522467 662 182.071549255 518.933016233 182.071549255 427.703593876 c 3
 182.071549255 161.809186445 348 36 447 36 c 3
 514.568780488 36 522.134599481 64.4697415965 531 86 c 0
 538 103 542 135.970703125 542 153 c 3
 542 161.578125 542.03515625 198.024414062 535 235 c 0
 526.99959836 277.048751709 514 311 448 321 c 0
 445.78885079 321.335022608 441 323 439 323 c 1
 440 343 l 1
 527 337 655 342 723 349 c 1
 728 333 l 1
 702.619140625 326.403320312 690.943306632 294.872072905 688 235 c 0
 685.916992188 192.627929688 685.411900031 139.935898798 686 117 c 0
 687 78 693.875 68.857421875 707 45 c 1
 706 30 l 1
 613 16 519 -10 427 -10 c 3
 207 -10 23 125 23 357 c 3
EndSplineSet
Position2: "cpsp-1" dx=0 dy=0 dh=50 dv=100
Substitution2: "c2pc-1" g.pcap
Substitution2: "c2sc-1" g.smcp
EndChar
StartChar: H
Encoding: 72 72 2425
Width: 872
Flags: HW
HStem: -7 22<31 84.7222 609.238 655.154 797.033 843> 344 35<193 689> 688 20<34 89.4782 276.975 282 791.941 839> 695 18<606 642.508>
VStem: 109 85<393.875 627.104> 685 86<30.0585 342 380 676.577>
AnchorPoint: "Bottom" 442 -15 basechar 0
AnchorPoint: "Top" 438 665 basechar 0
LayerCount: 2
Fore
SplineSet
34 705 m 1
 109.579101562 699 167.920898438 698.9140625 242.721679688 698.9140625 c 3
 268.974609375 698.9140625 297.89453125 700.2109375 332 704 c 1
 334 682 l 1
 302 678 276.491210938 659.764648438 272 632 c 0
 261 564 261 469.448028674 257 388 c 1
 626 389 l 1
 626 437.64 626 519 620 579 c 0
 611.60546875 662.944335938 580 672 553 681 c 1
 556 704 l 1
 618.897460938 698.881835938 666.791015625 699.12109375 710.560546875 699.12109375 c 3
 754.00390625 699.12109375 793.54296875 701.630859375 839 705 c 1
 841 680 l 1
 824 677 782.815513644 661.532997063 778 585 c 0
 772.015640457 489.890525658 766.023856953 377.649956928 766.023856953 278.405968991 c 3
 766.023856953 217.459252434 770.287812693 186.983765965 776 118 c 0
 783.3828125 32.17578125 820 19 844 19 c 1
 843 -7 l 1
 800.168098626 -1.46148838141 756.809035387 1.30776742788 712.67950481 1.30776742788 c 3
 662.924266787 1.30776742788 612.155559637 -2.46148838141 560 -10 c 1
 555 19 l 1
 582 20 609.21875 43.7177734375 621 130 c 0
 629 190.432376882 630 274.366412214 626 327 c 1
 255 332 l 1
 251 279.869565217 258.089995896 125.020463488 259 114 c 0
 264 53.4482758621 310 18 327 18 c 1
 324 -11 l 1
 279.862954945 -2.96449585018 235.72590989 0.155539737508 189.64244291 0.155539737508 c 3
 139.972187939 0.155539737508 87.9616156028 -3.72712214925 31 -9 c 1
 27 16 l 1
 58 19 84.923828125 38.876953125 98 116 c 0
 112.817382812 203.388671875 115.25 303.958541747 115.25 393.875 c 3
 115.25 479.542416452 111.83203125 560.01171875 105 598 c 0
 91.5009765625 673.059570312 69.6796875 671.671875 34 678 c 1
 34 705 l 1
EndSplineSet
Position2: "cpsp-1" dx=0 dy=0 dh=50 dv=100
Substitution2: "c2pc-1" h.pcap
Substitution2: "c2sc-1" h.smcp
EndChar
StartChar: I
Encoding: 73 73 34
Width: 373
VWidth: 1159
Flags: HW
AnchorPoint: "Bottom" 194 -15 basechar 0
AnchorPoint: "Top" 195 689 basechar 0
AnchorPoint: "Ogonek" 269 5 basechar 0
LayerCount: 2
Back
SplineSet
36 711 m 5
 82 706 133 702 184 702 c 7
 241 702 297 705 346 710 c 5
 347 689 l 5
 293 688 249 691 240 622 c 4
 233 566 230 437 230 308 c 7
 230 224 232 140 234 80 c 4
 236 18 257 15 339 15 c 5
 339 -4 l 5
 294 -2 230 0 167 0 c 7
 117 0 68 -1 31 -5 c 5
 30 17 l 5
 101 19 144 17 149 90 c 4
 154 159 156 258 156 354 c 7
 156 465 153 569 148 617 c 4
 141 685 108 683 34 690 c 5
 36 711 l 5
EndSplineSet
Fore
SplineSet
36 709 m 5
 81.605861537 704.249489231 132.853811728 701.981445312 184.061523438 701.981445312 c 7
 240.645666014 701.981445312 297.18067728 704.750729373 346 710 c 5
 347 682 l 5
 317.424242424 682 293.03030303 688.459353557 277 567 c 0
 270.058896907 519.679555523 259.703125 413.679068105 259.703125 308.361328125 c 3
 259.703125 242.449375299 261.913949009 176.193972427 269 130 c 0
 286.902703292 25.2622864463 299.085714286 19 347 20 c 1
 347 -4 l 1
 299.981826827 -1.7811992151 232.356451769 0.437601569802 166.806906139 0.437601569802 c 3
 116.521558479 0.437601569802 67.5145839095 -0.992301766027 31 -5 c 1
 30 25 l 1
 79.5210084034 22.4246575342 91.992551998 25.4303666526 113 150 c 0
 121.842562143 210.607441347 125.830078125 280.406758172 125.830078125 354.750976562 c 3
 125.830078125 438.049091658 120.803293949 496.957216254 116 554 c 0
 103.155844156 678.8424243 87.2280701754 680.318055412 34 685 c 5
 36 709 l 5
EndSplineSet
Position2: "cpsp-1" dx=0 dy=0 dh=50 dv=100
Substitution2: "c2pc-1" i.pcap
Substitution2: "c2sc-1" i.smcp
EndChar
StartChar: J
Encoding: 74 74 2443
Width: 386
Flags: HMW
AnchorPoint: "Top" 209 693 basechar 0
LayerCount: 2
Fore
SplineSet
116 567 m 0
 99.9598699365 676.519904449 64 678.196721311 31 686 c 1
 32 712 l 1
 86.6435546873 705.672851562 148.896484375 702.985351562 210.194335938 702.985351562 c 3
 255.466796875 702.985351562 318.218462631 704.451153914 359 707 c 1
 359 681 l 1
 336 681 295.24234224 687.10291907 282 574 c 0
 274.669129937 510.801829583 270 368.088980713 270 200 c 0
 270 118.61302682 268 39.1187739464 266 -47 c 1
 268 -85.2236842105 159.529819116 -187.917843242 121 -213 c 0
 101.45306375 -225.724672225 67.9394494904 -245 37 -245 c 3
 9 -245 -4 -205 -6 -194 c 1
 -7.8427734375 -174.377929688 113.786132812 -124.432617188 123 -128 c 1
 124 -129 132 -148 136 -148 c 3
 181.726871383 -148 131 -72.013974852 131 250 c 3
 131 399.083869013 119.959218631 539.739806149 116 567 c 0
EndSplineSet
Position2: "cpsp-1" dx=0 dy=0 dh=50 dv=100
Substitution2: "c2pc-1" j.pcap
Substitution2: "c2sc-1" j.smcp
EndChar
StartChar: K
Encoding: 75 75 36
Width: 713
VWidth: 1159
Flags: HW
HStem: -1 19<31 35.8607 227.666 278 486 527.34> 680 19<36 81.4409 219.508 280.571 415 452.693 593.354 621.6>
AnchorPoint: "Top" 346 675 basechar 0
LayerCount: 2
Back
SplineSet
381 698 m 5
 411.360465276 694.430301335 443.400784342 692.987660516 473.286488315 692.987660516 c 7
 540.521418521 692.987660516 599.045458636 695.787428616 621 699 c 5
 624 673 l 5
 648 684 572.465436387 632.044715027 542 610 c 4
 461.014937455 563.82780547 404.69 457.72761194 343 387 c 5
 286.093407755 428.337493149 708.552237066 29.9339033272 601 118 c 5
 636.095381778 89.1171532967 727 5 696 15 c 5
 696.75 19.1052631579 691 -10 691 -10 c 5
 680 -8 665 0 622 0 c 7
 529.352941176 0 462.647058824 -8 454 -8 c 5
 453 16 l 5
 482 19 492.283519508 36.6338470099 457 72 c 4
 371.787365441 167.339073486 299 237.476702509 235 304 c 5
 236 235.245136187 241.968467888 164.422500413 251 118 c 4
 255.157269447 55.0473166059 290.977011494 39 337 17 c 5
 337 -7 l 5
 312.796015691 -7 182.298323453 2.60110803324 90.0603586529 2.60110803324 c 7
 64.9889196676 2.60110803324 43.6315789474 1.63157894737 31 -1 c 5
 30 23 l 5
 41 22 77.0904722928 48.0785035215 85 134 c 4
 101.084449703 224.915528451 104.28425058 212.656047839 104.28425058 407.399345992 c 7
 104.28425058 463.360786648 97.6929368532 564.878315156 89 552 c 4
 80.951379105 654.905270595 74 662.2 33 675 c 5
 36 699 l 5
 84.6484682638 696.878897234 129.61200666 694.476630401 179.061187335 694.476630401 c 7
 226.212571077 694.476630401 277.153561692 697.114265039 338 705 c 5
 340 685 l 5
 330 684 262.939290714 673.841742161 253 569 c 4
 245.363640858 523.856793031 236.636363636 422.73381295 235 318 c 5
 294.46743295 409.762645914 343.329355644 486.034510475 375 536 c 4
 405.479334389 573.112453074 424 603.291666667 424 621 c 4
 424 648.285714286 370.333333333 677 384 674 c 5
 381 698 l 5
EndSplineSet
Fore
SplineSet
381 701 m 1
 411.360348323 697.430047921 443.400543965 695.987304688 473.286132812 695.987304688 c 3
 540.521224833 695.987304688 621.044921875 698.787109375 643 702 c 1
 646 676 l 1
 629 674 574.455948035 632.992727872 542 613 c 0
 469.586643577 568.393676138 391.15520655 472.335753573 332 407 c 1
 398.857142857 343.579925651 548.615384615 160.973977695 596 118 c 1
 631.095703125 89.1171875 696 25 713 15 c 1
 712.546875 17.357421875 709.689453125 -6.3583984375 708 -10 c 1
 697 -8 660 0 617 0 c 3
 524.352539062 0 457.647460938 -8 449 -8 c 1
 448 13 l 1
 477 20 483.025534707 32.845789954 452 72 c 0
 366.787109375 179.538627444 283 255.857819905 235 310 c 1
 237 254.145454545 241.898342872 172.793769341 249 118 c 0
 257.109113345 55.4330697515 290.977011494 39 337 17 c 1
 337 -7 l 1
 317.304760532 -7 211.116322056 2.6015625 136.060546875 2.6015625 c 3
 91.4617812932 2.6015625 53.4699040503 1.63191105769 31 -1 c 1
 30 23 l 1
 41 22 79.5579666887 48.349566765 90 134 c 0
 101.083984375 224.916015625 104.28425058 264.656047839 104.28425058 407.399345992 c 3
 104.28425058 463.360786648 95.954578804 536.585859791 94 552 c 0
 80.951171875 654.905273438 74 662.2 33 675 c 1
 36 699 l 1
 84.6484682638 696.878897234 129.61200666 694.476630401 179.061187335 694.476630401 c 3
 226.212571077 694.476630401 277.153561692 696.362328709 338 702 c 1
 340 682 l 1
 330 681.025862069 272.511911041 669.793773194 253 569 c 0
 245.363640858 529.552431293 237.63671875 473.519371532 236 382 c 1
 250 390.508287293 341.402549617 493.646992949 375 536 c 0
 405.479334389 574.422304359 424 605.666666667 424 624 c 3
 424 651.800539084 388.875 672.905660377 379 678 c 1
 381 701 l 1
EndSplineSet
Position2: "cpsp-1" dx=0 dy=0 dh=50 dv=100
Substitution2: "c2pc-1" k.pcap
Substitution2: "c2sc-1" k.smcp
EndChar
StartChar: L
Encoding: 76 76 37
Width: 621
VWidth: 1159
Flags: HW
HStem: 0 34<201.715 484.694> 0 22<28 77.3713> 680 20<39 87.9227 235.574 290.286>
VStem: 108 83<42.703 331.175> 112 90<374.826 665.166> 584 21<117.717 142.667>
AnchorPoint: "Top" 173 677 basechar 0
AnchorPoint: "TopRight" 368.5 531 basechar 0
LayerCount: 2
Back
SplineSet
344 708 m 1
 346 672 l 1
 312 670 280 645.959440259 272 579 c 0
 250 448.469387755 246 285.151162791 258 150 c 0
 260 83 286.464193247 60.0998971819 392 56 c 0
 435.975888741 52.3435304656 238.912760946 50.5134116348 286 60 c 0
 522.953488372 92.9357142857 585 175 579 153 c 1
 607 143 l 1
 595 93 579 19 558 -14 c 1
 521 -2 463.980776337 -5 438 -3 c 0
 380 -3 289 -1 208 -1 c 3
 161 -1 34 -3 31 -3 c 1
 31 27 l 1
 88.4556962025 46.9305555556 104 69.0566210742 106 164 c 0
 108 232.942307692 114 326.401799346 114 403 c 3
 114 457.545454545 112 510.598792463 106 555 c 0
 100 669.115694605 67.2105263158 670.909090909 34 672 c 1
 36 698 l 1
 89.5135135135 695 133.297297297 693 171 693 c 3
 237.728571429 693 289.628571429 699.818181818 344 708 c 1
EndSplineSet
Fore
SplineSet
344 705 m 1
 346 674 l 1
 312 670 283.207723172 645.49777125 272 579 c 0
 250 448.469387755 246 285.151162791 258 150 c 0
 263.928222372 83.2328210907 284.190911177 60.6030296077 304 54 c 0
 316 50 354.018775518 49.8889329459 378 54 c 0
 518 78 575 157 586 174 c 1
 607 167 l 1
 595 117 579 19 558 -14 c 1
 521 -2 463.980776337 -5 438 -3 c 0
 380 -3 289 -1 208 -1 c 3
 161 -1 34 -3 31 -3 c 1
 31 27 l 1
 88.4556962025 46.9305555556 97.766434274 69.3931630522 106 164 c 0
 112 232.942307692 114 326.401799346 114 403 c 3
 114 457.545454545 112 509.598792463 106 555 c 0
 91.0283742825 668.288314395 67.2105263158 666.909090909 34 672 c 1
 36 698 l 1
 89.5135135135 695 133.297297297 693 171 693 c 3
 237.728571429 693 289.62890625 696.818359375 344 705 c 1
EndSplineSet
Position2: "cpsp-1" dx=0 dy=0 dh=50 dv=100
Substitution2: "c2pc-1" l.pcap
Substitution2: "c2sc-1" l.smcp
EndChar
StartChar: M
Encoding: 77 77 2456
Width: 1012
Flags: HW
AnchorPoint: "Bottom" 502 -15 basechar 0
AnchorPoint: "Top" 529 625 basechar 0
LayerCount: 2
Fore
SplineSet
986 -3 m 1
 949.512695312 -0.8740234375 914.405273438 0.12109375 879.877929688 0.12109375 c 3
 797.939453125 0.12109375 728.928710938 -0.1884765625 631 -10 c 1
 628 13 l 1
 703 30 733.80950479 99.1133288885 737 248 c 0
 739.4765625 363.570506198 743 422.94214876 738 500 c 1
 641.391601562 348.856445312 594.335430437 246.320256239 546.206054688 124 c 0
 523.821289062 67.109375 519.856445312 38.71484375 509 0 c 1
 499 0 l 1
 476.608398438 68.486328125 451.17510915 133.586910179 444.987304688 146.5 c 0
 377.901367188 286.499048441 260 463.317211949 231 504 c 1
 215 415.135714286 217.805152344 354.054575732 222 218 c 0
 226.454101562 73.5368518734 268 23.9502487562 319 19 c 1
 318 -9 l 1
 261.653320312 1.1650390625 198.09375 -1.9765625 159.661132812 -1.9765625 c 3
 116.247070312 -1.9765625 79.3740234375 -3.34765625 38 -6 c 1
 35 19 l 1
 84 20.9800995025 146.780550205 94.0504890593 154 218 c 0
 154.889648438 233.274223373 176.998903101 535.363551109 174 562 c 0
 173.602539062 565.530273438 145.781986627 599.711744087 118 627.146484375 c 0
 82.2939453125 662.40625 42.583984375 672.608398438 29 678 c 1
 30 706 l 1
 104 703 228 697 294 702 c 1
 316.754882813 702.629882812 311.725227197 689.996666355 314.122070312 673 c 0
 326 588.77037037 439.975585938 442.760915798 552 262 c 1
 663 479.018867925 771.077302549 679.952770904 770 694 c 0
 769.577148438 699.513671875 773.992208681 703.154045931 780 703 c 0
 858 701 919 702 980 703 c 1
 980 679 l 1
 925 671 892.153170619 656.526954111 880 528 c 0
 873.01171875 454.09480014 876.797411807 360.441354359 884 226 c 0
 892.872070312 57.0845241834 942 26.1005025126 986 22 c 1
 986 -3 l 1
EndSplineSet
Position2: "cpsp-1" dx=0 dy=0 dh=50 dv=100
Substitution2: "c2pc-1" m.pcap
Substitution2: "c2sc-1" m.smcp
EndChar
StartChar: N
Encoding: 78 78 39
Width: 897
VWidth: 1159
Flags: HW
AnchorPoint: "Top" 461 699 basechar 0
LayerCount: 2
Back
SplineSet
37 711 m 5
 94 699.5 179.092773438 700.315429688 216 706.6015625 c 4
 217.889648438 706.923828125 220.125 707.075195312 221.5 704.41015625 c 4
 170.155273438 758.064453125 335.57421875 609.883789062 722 285 c 5
 729.572265625 389.795898438 736.208984375 337.774414062 736.208984375 421.223632812 c 7
 736.208984375 456.326171875 728.131835938 459.447265625 716 535 c 4
 706.001953125 624.6015625 695.477539062 685.955078125 637 693 c 5
 640 711 l 5
 674.6640625 714.888671875 728.2578125 702.243164062 802.654296875 702.243164062 c 7
 823.8203125 702.243164062 846.348632812 703.010742188 870 705 c 5
 870 679 l 5
 847 687.232421875 805.583444894 640.947711564 798 527 c 4
 787.191204036 377.263159471 784 296.857545932 784 101 c 4
 784 87 792 -4 793 -10 c 5
 763 -11 l 5
 755.986328125 17.3359375 729.368164062 54.5888671875 683.228515625 104.794921875 c 4
 568.203125 229.961914062 434.421875 316.04296875 196 497 c 5
 190 352 184.407226562 316.9921875 196 176 c 4
 199.202148438 124.02734375 196.5 30.5 303 16 c 5
 300 -11 l 5
 251.19140625 -4.56640625 208.978515625 -2.0703125 171.745117188 -2.0703125 c 7
 125.065429688 -2.0703125 86.2119140625 -5.9931640625 52 -11 c 5
 50 18.5 l 5
 110 16 122.274414062 46.01171875 124 186 c 4
 124.99609375 264.73828125 130.655273438 413.610351562 130.655273438 523.017578125 c 7
 130.655273438 568.114257812 129.934570312 522.869140625 128 531 c 4
 110.049804688 606.431640625 84 687.4921875 37 683.5 c 5
 37 711 l 5
EndSplineSet
Fore
SplineSet
26 711 m 1
 93.0926106771 699.5 204.738140279 699.22357092 248 706.6015625 c 0
 249.889648438 706.923828125 252.091364634 706.081487921 253.5 704.41015625 c 0
 296.657387028 653.204351286 351.280762207 608.306133967 722 278 c 1
 727 299 736.208984375 351.967427475 736.208984375 401.223632812 c 3
 736.208984375 441.57411511 736.322753084 504.676578715 726 555 c 0
 710 633 695.477539062 678.955078125 637 693 c 1
 640 714 l 1
 674.6640625 710.888671875 728.2578125 702.243164062 802.654296875 702.243164062 c 3
 823.8203125 702.243164062 846.348632812 703.010742188 870 705 c 1
 870 679 l 1
 847 676.232421875 807.692735613 640.787699175 798 527 c 0
 787.191204036 400.110329974 784 331.973178595 784 166 c 3
 784 96.3281463281 790.222222222 -8.05405405405 791 -18 c 1
 761 -19 l 1
 757.09781901 -4.064375 733.683104892 23.1946090135 691 69 c 0
 581.706054688 186.288840869 418.869140625 339.391068262 211 521 c 1
 205 372.116071429 203.497070312 321.053654463 211 176 c 0
 217 60 280 26 343 16 c 1
 340 -11 l 1
 291.19140625 -4.56640625 234.978515625 -2.0703125 197.745117188 -2.0703125 c 3
 140.929969441 -2.0703125 93.6402734522 -5.9931640625 52 -11 c 1
 50 18.5 l 1
 115 25 136 121 139 186 c 0
 142.630514929 264.661156803 145.655273438 410.610351562 145.655273438 520.017578125 c 3
 145.655273438 535.04296875 142.3829017 578.309786811 114 613 c 0
 78 657 55.4619140625 677.366210938 26 683.5 c 1
 26 711 l 1
EndSplineSet
Position2: "cpsp-1" dx=0 dy=0 dh=50 dv=100
Substitution2: "c2pc-1" n.pcap
Substitution2: "c2sc-1" n.smcp
EndChar
StartChar: O
Encoding: 79 79 40
Width: 793
VWidth: 1159
Flags: HW
AnchorPoint: "Bottom" 413 -15 basechar 0
AnchorPoint: "Top" 401 695 basechar 0
AnchorPoint: "Ogonek" 489 -2 basechar 0
LayerCount: 2
Back
SplineSet
367 685 m 7
 226 685 105 569 105 407 c 3
 105 175 265 17 435 17 c 3
 601 17 689 166 689 304 c 3
 689 484 571 685 367 685 c 7
400 718 m 7
 607 718 771 552 771 349 c 3
 771 162 625 -16 411 -16 c 3
 95 -16 23 259 23 346 c 3
 23 566 218 718 400 718 c 7
EndSplineSet
Fore
SplineSet
334 666 m 3
 227.095957891 666 173 580.820833091 173 468 c 3
 173 86.9634521174 424.144285536 36 459 36 c 3
 585.482037514 36 621 163.069712347 621 259 c 3
 621 423.718390992 542.705755286 666 334 666 c 3
400 718 m 3
 607 718 771 552 771 349 c 3
 771 162 625 -16 411 -16 c 3
 95 -16 23 259 23 346 c 3
 23 566 218 718 400 718 c 3
EndSplineSet
Position2: "cpsp-1" dx=0 dy=0 dh=50 dv=100
Substitution2: "c2pc-1" o.pcap
Substitution2: "c2sc-1" o.smcp
EndChar
StartChar: P
Encoding: 80 80 41
Width: 595
VWidth: 1159
Flags: HW
AnchorPoint: "Bottom" 219 -15 basechar 0
AnchorPoint: "Top" 298 694 basechar 0
LayerCount: 2
Back
SplineSet
282 287 m 7xec
 416 287 490 371 490 471 c 7
 490 568 445 632 383 664 c 4
 353 679 320 686 287 686 c 7
 205 686 205 671 204 665 c 4
 199 647 192 341 196 293 c 5
 218 288 252 287 282 287 c 7xec
31 711 m 5xdc
 41 711 86 708 141 708 c 7
 198 708 243 714 274 714 c 7xec
 431 714 577 621 577 472 c 7
 577 374 459 258 289 258 c 7
 247 258 218 262 196 267 c 5
 196 197 199 128 200 70 c 4
 201 23 216 27 305 12 c 5
 304 5 301 -4 300 -9 c 5
 269.445771718 -2.88915434357 219.961003655 0.62846668531 170.297737094 0.62846668531 c 7
 122.436171213 0.62846668531 74.4088231657 -2.63855707054 43 -10 c 5
 39 11 l 5
 126 28 119 49 119 77 c 4
 120.211102551 134.224595531 120.872166581 200.341480483 120.872166581 267.495600072 c 7
 120.872166581 422.136470637 117.366692347 582.277563773 109 652 c 4
 105 685 52 694 30 694 c 5
 31 711 l 5xdc
EndSplineSet
Fore
SplineSet
275 302 m 3
 381.946318395 302 417 360 417 470 c 3
 417 564.891304348 390 624.565217391 348 650 c 0
 318.432122894 665.897308903 306 664 300 664 c 3
 272.705311872 664 257.116147025 638.721878785 255 632 c 0
 238 578 241 322.737313433 240 301 c 1
 246 301 282 302 275 302 c 3
23 711 m 1
 33.4424778761 711 83.5663716814 708 141 708 c 3
 198 708 243 714 274 714 c 3
 431 714 577 618.577235772 577 472 c 3
 577 374 459 258 289 258 c 3
 275.029844099 258 248 263 240 264 c 1
 240 194 246.075816246 169.028714539 248 111 c 0
 249.965979743 43.0128682425 274 30 331 16 c 1
 330 9 324 -7 323 -12 c 1
 292.446230936 -5.88963681214 225.9609375 0.6279296875 176.297851562 0.6279296875 c 3
 119.788085938 0.6279296875 63.083984375 -2.638671875 26 -10 c 1
 22 18 l 1
 82 31 98.1290548408 91.0515851268 100 125 c 0
 103.153740913 182.224822654 103.744333162 202.837257841 103.744333162 269.991200144 c 3
 103.744333162 422.834209758 95.65058674 541.081126467 80 610 c 0
 67.6926347858 664.196673953 59.358490566 679 22 684 c 1
 23 711 l 1
EndSplineSet
Position2: "cpsp-1" dx=0 dy=0 dh=50 dv=100
Substitution2: "c2pc-1" p.pcap
Substitution2: "c2sc-1" p.smcp
EndChar
StartChar: Q
Encoding: 81 81 42
Width: 825
VWidth: 1159
Flags: HW
LayerCount: 2
Back
SplineSet
363 661 m 3
 246 661 187 586.989362003 187 455 c 3
 187 186 350.008403213 34 503 34 c 3
 613.990991174 34 633 164.011833905 633 292 c 3
 633 504.022099448 469 661 363 661 c 3
592 23 m 1
 669 -41.9696969697 804 -111 894 -111 c 3
 893.25 -111 892.607142857 -111.428571429 892 -112 c 1
 895 -134 l 1
 842.703225806 -147.043478261 781.690322581 -164 702 -164 c 3
 618.228395062 -164 456.814814815 -94.124137931 371 -15 c 1
 102.08 17 41 265.323119777 41 347 c 3
 41 551 223 715 417 715 c 3
 598 715 785 570 785 346 c 3
 785 193.605341246 694.494023904 89.9643916914 592 23 c 1
EndSplineSet
Fore
SplineSet
363 661 m 3
 246 661 187 586.989257812 187 455 c 3
 187 186 350.008789062 34 503 34 c 3
 613.991210938 34 633 164.01171875 633 292 c 3
 633 504.022460938 469 661 363 661 c 3
582 30 m 1
 660.274834437 -38.3636675023 805.975907111 -111 889 -111 c 3
 889 -111 889 -111.428710938 892 -112 c 1
 895 -134 l 1
 842.703125 -147.043945312 781.690429688 -164 702 -164 c 3
 616.709999292 -164 452.370002124 -91.7791920092 365 -10 c 1
 100.96953125 21.5580110497 41 266.451374201 41 347 c 3
 41 551 223 715 417 715 c 3
 598 715 785 570 785 346 c 3
 785 196.90813661 692.804717859 82.5135932663 582 30 c 1
EndSplineSet
Position2: "cpsp-1" dx=0 dy=0 dh=50 dv=100
Substitution2: "salt-1" Q.alt
Substitution2: "c2pc-1" q.pcap
Substitution2: "c2sc-1" q.smcp
EndChar
StartChar: R
Encoding: 82 82 2497
Width: 765
Flags: HMW
HStem: -34 18<715.141 760> -15 21<238.873 275.333> 333 25<190.186 311.406> 678 21<31 89.864>
VStem: 106 83<27.267 311.306> 107 91<473.918 669.555> 469 86<439.59 588.412>
AnchorPoint: "Bottom" 358 -15 basechar 0
AnchorPoint: "Top" 297 682 basechar 0
LayerCount: 2
Fore
SplineSet
226 378 m 1
 237.607476636 369.666666667 262.786748047 373 280 373 c 3
 369.947976879 373 397 438.01369863 397 486 c 3
 397 584.604296845 346.680961196 690 288 690 c 3
 272.695652174 690 250.350410884 678.16876564 244 639 c 0
 227.976048937 540.165704826 224 439.839721254 226 378 c 1
31 706 m 1
 45 706 85 701 135 701 c 3
 200 701 245 717 311 717 c 3
 476 717 555 608 555 529 c 3
 555 421.314285714 456.75974026 370.685714286 428 359 c 1
 531.846796657 195.245179063 664.100278552 -13.0550964187 760 -9 c 1
 760 -31 l 1
 530 -62 360.929046563 160 260 338 c 1
 258 338 258 338 258 338 c 3
 249.47755102 338 234.816326531 339 226 339 c 1
 224 258.668965517 231.822638331 182.419368702 236 83 c 0
 237.991425401 36.5306366774 266 20 279 16 c 1
 274 -13 l 1
 243.022803071 -3.57212473942 203.378899723 0.0107421875 163.754882812 0.0107421875 c 3
 115.118586116 0.0107421875 66.5122507968 -5.38730153785 34 -12 c 1
 30 14 l 1
 45 10 68.1141196615 49.9159712877 74 111 c 0
 82.4943050701 200.702199215 91.712890625 298.907843339 91.712890625 400.729492188 c 3
 91.712890625 467.702079088 85.4776922967 548.502635713 76 605 c 0
 65.3665807905 668.386979349 57.0126582278 684 26 677 c 1
 31 706 l 1
EndSplineSet
Position2: "cpsp-1" dx=0 dy=0 dh=50 dv=100
Substitution2: "salt-1" R.alt
Substitution2: "c2pc-1" r.pcap
Substitution2: "c2sc-1" r.smcp
EndChar
StartChar: S
Encoding: 83 83 44
Width: 532
VWidth: 1159
Flags: HW
AnchorPoint: "Top" 285 675 basechar 0
LayerCount: 2
Back
SplineSet
21 181 m 5
 43 186 l 5
 39 189.133333333 92.2472866778 137.298725092 104 119 c 4
 130 89.4576271186 230 36 313 36 c 7
 395 36 392 82.0055553841 392 130 c 7
 392 276.073529412 251.862545091 263.425533347 146 323 c 4
 135.404223129 331.962932124 56 383.230337079 56 490 c 7
 56 602.515463918 148.192825112 704 287 704 c 7
 327.806451613 704 347.820030571 704.94460447 361 703 c 4
 416.490753181 688.456165685 464 696 480 699 c 5
 492 696 l 5
 481 617 469.236091471 627.07286108 490 551 c 4
 491.071428571 541 491.071428571 540 475 539 c 5
 479 515.255813953 421.111506266 585.912071908 390 620 c 4
 363 652.666666667 315.99450566 676 293 676 c 7
 221.6 676 174 643.976744186 174 578 c 7
 174 468.02994012 234 453 306 419 c 4
 356.598191165 394.663988167 518 359.243119266 518 188 c 7
 518 59.956284153 395.172727273 -14 289 -14 c 7
 149 -14 98 16 81 16 c 4
 78 16 76.5 3.80952380952 76 -6 c 5
 52 -2 l 5
 56 42 51 74 21 181 c 5
EndSplineSet
Fore
SplineSet
21 181 m 1
 43 186 l 1
 39 189.133333333 92.2472866778 137.298725092 104 119 c 0
 130 89.4576271186 230 36 313 36 c 3
 376 36 392 82.0055553841 392 130 c 3
 392 228.442899034 291.200731584 264.50828204 196.000002589 309.535434071 c 0
 147.870385605 332.299330986 56 378.504844904 56 490 c 3
 56 602.515463918 148.192825112 704 287 704 c 3
 327.806451613 704 347.820030571 704.94460447 361 703 c 0
 416.490753181 688.456165685 464 696 480 699 c 1
 492 696 l 1
 481 617 469.236091471 627.07286108 490 551 c 0
 491.071428571 541 491.071428571 540 475 539 c 1
 479 515.255813953 421.111506266 585.912071908 390 620 c 0
 363 652.666666667 315.99450566 676 293 676 c 3
 221.6 676 174 643.976744186 174 578 c 7
 174 484.02994012 234 467 306 433 c 0
 356.598632812 408.6640625 518 359.243119266 518 188 c 3
 518 59.956284153 395.172727273 -14 289 -14 c 3
 149 -14 107 13 90 13 c 0
 87 13 76.5 3.80952380952 76 -6 c 1
 52 -2 l 1
 56 42 51 74 21 181 c 1
EndSplineSet
Position2: "cpsp-1" dx=0 dy=0 dh=50 dv=100
Substitution2: "c2pc-1" s.pcap
Substitution2: "c2sc-1" s.smcp
EndChar
StartChar: T
Encoding: 84 84 45
Width: 744
Flags: HMW
HStem: -12 22<223.277 267.753> 657 38<429 632.242> 695 20G<63.5 76>
VStem: 333 90<37.5695 314.818>
AnchorPoint: "Bottom" 383 -15 basechar 0
AnchorPoint: "Top" 376 670 basechar 0
LayerCount: 2
Back
SplineSet
106 696 m 4xb0
 128.56921585 693.870828693 235.459122124 693.192335932 352.076572161 693.192335932 c 3
 509.315550854 693.192335932 684.239182442 694.425834261 694 695 c 4xb0
 714 696 729 702 736 704 c 5
 743 699 l 5
 727 661 722 655 708 576 c 5
 684 582 l 5
 686 592 699 624 694 629 c 4
 663 665 550 661 429 657 c 5xd0
 424.722534342 520.121098942 420.953310697 351.222951086 420.953310697 226.03279657 c 3
 420.953310697 175.618752914 421.564554715 132.292707212 423 101 c 4
 427 24 454 25 538 18 c 5
 533 -9 l 5
 486.428929646 0.314214070874 437.693912758 4.3169230137 390.285072497 4.3169230137 c 3
 330.805061169 4.3169230137 273.412541706 -1.98361206075 225 -12 c 5
 223 -6 223 0 219 10 c 5
 317 30 332 35 333 66 c 4
 338.324889099 155.990625776 342.799144881 304.391406025 342.799144881 430.425756652 c 3
 342.799144881 541.080561947 339.350221802 634.494489856 330 656 c 5
 312 660 134.501 670.251 84 645 c 4
 66 636 52 630 34 582 c 5
 17 588 l 5
 48 654 61 690 66 715 c 5
 86 715 78 698 106 696 c 4xb0
EndSplineSet
Fore
SplineSet
106 697 m 0
 128.543115045 693.578520966 235.459122124 693.192335932 352.076572161 693.192335932 c 3
 509.315550854 693.192335932 684.256055087 693.851668522 694 695 c 0
 690 697 726 702 736 704 c 1
 743 699 l 1
 727 661 719 627 705 548 c 1
 675 555 l 1
 677 559 680.263671875 578.1328125 675 584 c 0
 620.712890625 644.505859375 562.603773585 642.857142857 469 635 c 1
 461.00156735 575.108359575 453.953496394 344.831959631 453.953496394 226.032390015 c 3
 453.953496394 204.649382526 458.928337848 142.287084623 460 136 c 0
 475 48 516 32 540 31 c 1
 533 -9 l 1
 486.428929646 0.314214070874 437.693912758 4.3169230137 390.285072497 4.3169230137 c 3
 330.805061169 4.3169230137 273.412541706 -1.98361206075 225 -12 c 1
 222.333333333 -3.54545454545 222.333333333 4.90909090909 217 19 c 1
 268.333333333 32.0714285714 291.040489846 59.8792389256 293 106 c 0
 303.395126736 186.112474575 311.799461637 318.225137777 311.799461637 430.425732054 c 3
 311.799461637 529.797964649 304.577941559 613.687232241 285 633 c 1
 269 635 180 649 93 611 c 0
 63.7509765625 598.224609375 52 557 45 543 c 1
 15 550 l 1
 46 616 61 690 66 715 c 1
 73 720 104 699 106 697 c 0
EndSplineSet
Position2: "cpsp-1" dx=0 dy=0 dh=50 dv=100
Substitution2: "c2pc-1" t.pcap
Substitution2: "c2sc-1" t.smcp
EndChar
StartChar: U
Encoding: 85 85 53
Width: 827
VWidth: 1159
Flags: HW
AnchorPoint: "Top" 415 671 basechar 0
AnchorPoint: "Ogonek" 502 -2 basechar 0
LayerCount: 2
Back
SplineSet
25 707 m 5
 59.4213277102 702.813622306 100.117309591 701.223653233 142.357679757 701.223653233 c 7
 199.321635787 701.223653233 258.68035476 703.325765386 312 706 c 5
 313 680 l 5
 263.714285714 687 247 663.202857858 230 561 c 4
 214.085781203 465.324785785 217 351.272014525 219 239 c 5
 219 194.826771654 223.514186654 153.504654173 226 137 c 4
 234.424390244 81.0659340659 318.195121951 36 415 36 c 7
 521.16744186 36 594.831951096 76.1170529772 617 103 c 4
 641.97936063 134.969950902 654.045914417 186.695693988 660 259 c 4
 669.469407462 344.2227885 681 508.548224038 641 622 c 5
 631 670.980841368 598.555555556 682 577 674 c 5
 578 705 l 5
 594.666666667 702.333333333 662.888888889 700.111111111 720.148148148 700.111111111 c 7
 748.777777778 700.111111111 774.666666667 700.666666667 790 702 c 5
 787 680 l 5
 743.164383562 689.553191489 723 673.446191289 723 603 c 5
 721 610.999367693 727.883957002 421.964631891 709 256 c 4
 702.886891108 188.547206439 690.459536342 122.046635326 655 73 c 4
 616.06557377 20.7608695652 519.754098361 -16 405 -16 c 7
 272.902040816 -16 216.898544227 -4.52005823368 144 57 c 4
 100.074274488 94.069508316 75 136.348158766 83 232 c 5
 93 374.096716267 89 540.45090342 79 590 c 5
 67 684.434552249 49.2999062793 678.74438971 23 683 c 5
 25 707 l 5
EndSplineSet
Fore
SplineSet
25 707 m 1
 59.4213277102 702.813622306 100.117309591 701.223653233 142.357679757 701.223653233 c 3
 199.321635787 701.223653233 258.68035476 703.325765386 312 706 c 1
 313 680 l 1
 263.714285714 687 247 663.202857858 230 561 c 0
 214.085781203 465.324785785 219 351.28982699 219 239 c 3
 219 165.535433071 231.273427699 126.592654247 246 104 c 0
 262.784061881 78.2508644097 328.43902439 36 415 36 c 3
 519.065116279 36 590.672038443 75.7847731399 613 103 c 0
 639.90693558 135.796471547 654.074489079 186.72340695 661 259 c 0
 668.485508798 344.2227885 679.489442547 483.960706964 652 622 c 0
 644.708333333 658.615384615 615.260416667 675.615384615 577 678 c 1
 578 705 l 1
 594.666666667 702.333333333 662.888888889 700.111111111 720.148148148 700.111111111 c 3
 748.777777778 700.111111111 774.666666667 700.666666667 790 702 c 1
 787 680 l 1
 748.643835616 689.553191489 733.709094036 640.913407055 731 603 c 0
 723.405615312 496.717606646 724.217210918 423.908572345 709 256 c 0
 702.434068227 188.547206439 688.376616887 122.66798993 651 73 c 0
 611.68852459 20.7608695652 517.918032787 -16 405 -16 c 3
 275.93877551 -16 225.433549884 0.669465848081 150 57 c 0
 100.359345126 94.069508316 83 151.528480562 83 232 c 3
 83 376.055544843 87 474.801577102 82 603 c 0
 80.5705743487 639.650022829 62.70882983 679.339259966 23 683 c 1
 25 707 l 1
EndSplineSet
Position2: "cpsp-1" dx=0 dy=0 dh=50 dv=100
Substitution2: "c2pc-1" u.pcap
Substitution2: "c2sc-1" u.smcp
EndChar
StartChar: V
Encoding: 86 86 54
Width: 805
VWidth: 1159
Flags: HW
HStem: 683 21<5 53.7285 187.178 249 602.526 647.654 761.845 800>
AnchorPoint: "Top" 411 662 basechar 0
LayerCount: 2
Fore
SplineSet
312 704 m 1
 317 676 l 1
 299.771428571 679.315789474 281 660.526367188 281 644 c 1
 281 635.904296875 289.245189719 605.417882523 300 576 c 0
 331.668085106 461.387029912 280 568 453 220 c 1
 674 649.167927383 559.896953583 421.786546708 586 528 c 0
 600.526350127 566.804582407 604 594.666992188 604 613 c 1
 604 640.75 562.84375 685 581 676 c 1
 585 708 l 1
 634.778703637 703.926757812 689.681017357 702.013671875 736.446289062 702.013671875 c 3
 761.001953125 702.013671875 783.010742188 702.693359375 800 704 c 1
 801 681 l 1
 759 673 704.50968704 609.721804788 664 525 c 0
 635.94844352 466.411663814 516.746231381 227.116834658 455 92 c 0
 443 66 433 21 422 -17 c 1
 403 -17 l 1
 387.720703124 13.578125 375.180213532 42.3533051853 354.793945312 86 c 0
 270.627929688 266.188476562 167.908360887 477.402028226 156 498 c 0
 82 640 64 682 4 670 c 1
 5 705 l 1
 49.8123344824 702.302734375 124.407319379 700.915039062 198.28515625 700.915039062 c 3
 240.809570312 700.915039062 282.981445312 701.927734375 312 704 c 1
EndSplineSet
Position2: "cpsp-1" dx=0 dy=0 dh=50 dv=100
Substitution2: "c2pc-1" v.pcap
Substitution2: "c2sc-1" v.smcp
EndChar
StartChar: W
Encoding: 87 87 2546
Width: 1079
Flags: HW
AnchorPoint: "Bottom" 535 -15 basechar 0
AnchorPoint: "Top" 556 693 basechar 0
LayerCount: 2
Fore
SplineSet
1079 712 m 1
 1079 692 l 1
 1028 687 968.017578125 570.032226562 933 475 c 0
 867.76953125 294.185546875 813.606445312 182.254882812 761.165039062 57 c 0
 747.357421875 24.021484375 739.672851562 -3.9453125 731 -22 c 1
 711 -22 l 1
 711.309570312 -20.265625 695.94140625 22.376953125 678.788085938 73 c 0
 640.499023438 186.002929688 576.387695312 355.672851562 546 442 c 1
 421.452148438 207.776367188 388.973632812 117.09765625 360.076171875 26 c 0
 354.470703125 8.34375 348.842773438 -8.4716796875 341 -23 c 1
 323 -23 l 1
 297.685546875 38.1728515625 280.0625 90.26171875 263.603515625 137 c 0
 210.658203125 287.259765625 183.870117188 368.021484375 119 511 c 0
 94.0703125 565.9453125 78.0809900444 594.822064207 60 623.700195312 c 0
 31.2421875 669.630859375 14 684 4 688 c 1
 4 708 l 1
 50.431640625 705.796875 120.827148438 702.33984375 164.985351562 702.33984375 c 3
 193 702.33984375 242.775390625 704.608398438 308 712 c 1
 312 686 l 1
 294 680 251 657 251 611 c 0
 251 582 254.677734375 572.228515625 259 556 c 0
 282 481 333 360 389 259 c 1
 434 308 498 455 519 512 c 1
 515 530 493 575 473 612 c 0
 441.083631047 671.045282562 416 680 400 681 c 1
 401 708.5 l 1
 452.891601562 705.270507812 516.596679688 703.895507812 550.255859375 703.895507812 c 3
 594.760742188 703.895507812 646.194335938 706.299804688 700 710 c 1
 700 684 l 1
 694.76953125 682.994140625 674.35546875 681.93359375 668 679 c 0
 629 661 638.544921875 616.145507812 649 576 c 0
 674 480 715 375 785 254 c 1
 860.540039062 393.512695312 864.48828125 431.700195312 873.185546875 535 c 0
 881.868164062 638.115234375 823 687 787 690 c 1
 788 713 l 1
 839.474609375 711.450195312 903.641601562 709.899414062 957.454101562 709.899414062 c 3
 990.411132812 709.899414062 1028.86328125 710.48046875 1079 712 c 1
EndSplineSet
Position2: "cpsp-1" dx=0 dy=0 dh=50 dv=100
Substitution2: "c2pc-1" w.pcap
Substitution2: "c2sc-1" w.smcp
EndChar
StartChar: X
Encoding: 88 88 56
Width: 758
VWidth: 1159
Flags: HW
HStem: -7.5 23<486.5 541.825 693.494 745> 688 16<660.755 707.5> 695.5 15.5<31.5 75.4415 240.435 284.5 471.265 511.631>
AnchorPoint: "Top" 379.5 686 basechar 0
LayerCount: 2
Back
SplineSet
31 711 m 5
 49.30078125 711 76.994140625 705.9375 168.798828125 705.9375 c 7
 199.400390625 705.9375 237.125 706.5 284 708 c 5
 284 688 l 5
 329.26171875 691.9921875 320.150390625 688.610351562 308 686.64453125 c 4
 277.689453125 678.919921875 269.677734375 654.48828125 285 627 c 4
 300 592 334.787109375 521.709960938 414 432 c 5
 479 508 470.416015625 511.28125 510 588 c 4
 523.044921875 610.362304688 511.0859375 649.953125 481 671.626953125 c 4
 467.482421875 681.514648438 437.94140625 703.833984375 469 690 c 5
 472 711 l 5
 516.241210938 704.920898438 545.427734375 702.03515625 601.9296875 702.03515625 c 7
 629.079101562 702.03515625 662.536132812 702.702148438 707 704 c 5
 708 686 l 5
 710 693 695 678 656 643 c 4
 604.227539062 595.731445312 345 288 437 403 c 5
 545.130859375 260.169921875 615.491210938 173.354492188 700 78.80859375 c 4
 747.514648438 21.564453125 758 19 744.5 24.5 c 5
 746 -7.5 l 5
 708.418945312 -2.712890625 668.31640625 -0.67578125 626.625976562 -0.67578125 c 7
 581.232421875 -0.67578125 533.956054688 -3.0908203125 486 -7 c 5
 484 19 l 5
 417.587890625 14.232421875 450.91015625 26.9912109375 469 34.4609375 c 4
 521.9296875 58.9306640625 480.900390625 106.213867188 462 140 c 4
 421.778320312 212.287109375 411 218 355 299 c 5
 370 318 316 243 271 179 c 4
 250.436523438 149.186523438 217 98 267 46.87109375 c 4
 293.314453125 19.486328125 298.025390625 6.55859375 275.5 14 c 5
 271 -10 l 5
 233.046875 -2.2314453125 186.09765625 0.259765625 142.5703125 0.259765625 c 7
 88.0380859375 0.259765625 38.875 -3.6513671875 19.5 -6 c 5
 18.5 20 l 5
 69 10 105.390625 84.5263671875 125 106 c 4
 217 198 486 528 333 326 c 5
 269 416 208.834960938 494.0078125 114 589 c 4
 42.259765625 670.041992188 19.5 702.5 30.5 693.5 c 5
 31 711 l 5
EndSplineSet
Fore
SplineSet
24 711 m 1
 42.30078125 711 93.994140625 705.9375 185.798828125 705.9375 c 3
 216.400390625 705.9375 265.125 706.5 312 708 c 1
 312 688 l 1
 310 688 306.00390625 688.102539062 302 686.64453125 c 0
 282.534179688 679.5546875 269.677734375 654.48828125 285 627 c 0
 300 592 334.787109375 521.709960938 414 432 c 1
 470 498 492 548 510 588 c 0
 520.62394965 611.608777001 511.0859375 649.953125 481 671.626953125 c 0
 467.482421875 681.514648438 462 685 455 690 c 1
 458 711 l 1
 502.241210938 704.920898438 532.427734375 702.03515625 588.9296875 702.03515625 c 3
 616.079101562 702.03515625 662.536132812 702.702148438 707 704 c 1
 708 686 l 1
 710 693 695 678 656 643 c 0
 604.227539062 595.731445312 454 416 439 401 c 1
 547.130859375 258.169921875 616.512074005 171.97021301 700 78.80859375 c 0
 725.964181262 49.8359592005 744 33 751.5 24.5 c 1
 753 -7.5 l 1
 715.418945312 -2.712890625 649.31640625 -0.67578125 607.625976562 -0.67578125 c 3
 562.232421875 -0.67578125 496.956054688 -3.0908203125 449 -7 c 1
 447 19 l 1
 453 22 456.994772557 20.8079078162 469 26.4609375 c 0
 502 42 499 82 464 140 c 0
 421.259552264 210.827027677 406 225 350 306 c 1
 346 297 305.266855814 247.44475969 260 172 c 0
 248 152 217.450132146 98.4363499793 267 46.87109375 c 0
 293.314453125 19.486328125 297 19 303.5 14 c 1
 299 -10 l 1
 261.046875 -2.2314453125 203.09765625 0.259765625 159.5703125 0.259765625 c 3
 105.038085938 0.259765625 38.875 -3.6513671875 19.5 -6 c 1
 18.5 20 l 1
 44 33 105.918344473 84.0560961444 125 106 c 0
 205 198 308 326 322 342 c 1
 258 432 207.354097763 491.337251571 114 589 c 0
 49 657 30 681 23.5 693.5 c 1
 24 711 l 1
EndSplineSet
Position2: "cpsp-1" dx=0 dy=0 dh=50 dv=100
Substitution2: "c2pc-1" x.pcap
Substitution2: "c2sc-1" x.smcp
EndChar
StartChar: Y
Encoding: 89 89 2553
Width: 737
Flags: HW
HStem: -12 21.5<252.512 307.555 485.31 522.5> 690 18<14.5 68.8147 217.388 278 687.535 725.5> 696.5 20G<497.167 523.25>
VStem: 345.5 83<27.9743 355.681>
AnchorPoint: "Bottom" 387 -15 basechar 0
AnchorPoint: "Top" 378.5 671 basechar 0
LayerCount: 2
Fore
SplineSet
352 684 m 1
 347 683 341 681 332 678.25 c 0
 288.162109375 664.85546875 287.038085938 620.482421875 308 588 c 0
 324.037109375 557.20703125 399 462 435 416 c 1
 486 489 515 542 531.8359375 578.400390625 c 0
 548.079101562 613.51953125 532.0078125 638.400390625 507 662.48046875 c 0
 496.055664062 673.018554688 482.521484375 680.33203125 461.5 686.5 c 1
 465.5 713.5 l 1
 501.020507812 704.299804688 566.21484375 699.869140625 633.498046875 699.869140625 c 3
 666.41796875 699.869140625 699.970703125 702.15234375 729 707.5 c 1
 724.5 687 l 1
 719 684 646.147282197 629.903931864 587 555 c 0
 524.747070312 476.163085938 504 453 459 368 c 1
 459 303 457.922788084 157.417040439 463 102 c 0
 468.398073977 43.0807961491 488 26 523.5 18 c 1
 522.5 -11 l 1
 491.505859375 -4.2841796875 439.4296875 -0.2373046875 386.60546875 -0.2373046875 c 3
 337.170898438 -0.2373046875 287.081054688 -3.7822265625 253 -12 c 1
 251.5 17.5 l 1
 267 19 306.559570312 23.2841796875 311 114 c 1
 316 193 315 263 311 338 c 1
 283 408 187.35546875 529.473632812 129 594 c 0
 60.568359375 669.668945312 40 676 14.5 682 c 1
 14.5 710 l 1
 94.3046875 706.359375 169.997070312 703.814453125 255.185546875 703.814453125 c 3
 285.322265625 703.814453125 317.174804688 704.478515625 352 706 c 1
 352 684 l 1
EndSplineSet
Position2: "cpsp-1" dx=0 dy=0 dh=50 dv=100
Substitution2: "c2pc-1" y.pcap
Substitution2: "c2sc-1" y.smcp
EndChar
StartChar: Z
Encoding: 90 90 57
Width: 766
Flags: HW
HStem: 0 36<187.25 604.739> 649 36.951<457.703 579.25> 656 34<145.302 574.862> 698.453 20G<90.625 106.25>
AnchorPoint: "Bottom" 382 -15 basechar 0
AnchorPoint: "Top" 386.25 660 basechar 0
LayerCount: 2
Back
SplineSet
47 578.75 m 1
 112.25 731.25 77.5 723.5 103.75 726.453125 c 1
 109.186523438 709.646484375 142.063476562 697.794921875 208.5 696 c 0
 410.275390625 692.697265625 591.516601562 696.594726562 680.25 697.951171875 c 0
 691.945238348 698.129954064 695.314453125 700.331054688 701.75 702.75 c 1
 709.75 690.75 l 1
 705.5 686.75 700.208007812 685.721679688 699.25 681 c 0
 584.5 514 449.5 268 295.5 58 c 1
 400.5 39 352.725585938 42.27734375 264.5 53 c 0
 524.538085938 68.7392578125 700.5 120 718.25 146 c 1
 738.25 134 l 1
 714.306640625 93.296875 684.25 25 665.25 -23 c 1
 643.25 -22 660.275389217 -6.65334260868 637.25 -5.19921875 c 0
 505.265625 3.1357421875 253.629882812 0.97265625 56.25 0 c 1
 53.25 8 l 1
 81.9833984375 38.2822265625 109.522949518 72.7813224646 139.21484375 110 c 0
 275.110351562 281.801757812 392.912109375 465.591796875 473.719726562 630 c 0
 474.473632812 631.482421875 474.578125 632.670898438 475.5 634 c 1
 463 642 412.031463105 644.58886141 375.5 642 c 0
 198.902025134 629.485097956 123 619.5 62.25 558.75 c 1
 47 578.75 l 1
47 579 m 1xb0
 112 731 78 723 104 726 c 1
 109 710 121 699 159 698 c 0xb0
 382 692 582 697 680 698 c 0
 692 698 696 701 702 703 c 1
 710 691 l 1
 706 687 701 685 699 681 c 0
 566 514 374 253 187 36 c 1
 292 27 428 30 454 31 c 0
 598 38 679 65 722 144 c 1
 738 134 l 1
 714 93 684 25 665 -23 c 1
 643 -22 660 -6 637 -5 c 0
 505 3 253 1 56 0 c 1
 53 8 l 1
 82 38 112 72 144 107 c 0
 295 278 469 501 576 657 c 0
 577 658 578 660 579 661 c 1xd0
 487 670 291 668 242 664 c 0
 145 657 114 650 60 564 c 1
 47 579 l 1xb0
EndSplineSet
Fore
SplineSet
47 578.75 m 1
 112.25 731.25 77.5 723.5 103.75 726.453125 c 1
 109.186523438 709.646484375 142.063476562 697.794921875 208.5 696 c 0
 410.275390625 692.697265625 591.516601562 696.594726562 680.25 697.951171875 c 0
 691.945238348 698.129954064 695.314453125 700.331054688 701.75 702.75 c 1
 709.75 690.75 l 1
 705.5 686.75 700.208007812 685.721679688 699.25 681 c 0
 584.5 514 449.5 268 295.5 58 c 1
 307 57 328 57 351 59 c 0
 520.026536323 73.6979596802 700.5 120 718.25 146 c 1
 738.25 134 l 1
 714.306640625 93.296875 684.25 25 665.25 -23 c 1
 643.25 -22 660.275389217 -6.65334260868 637.25 -5.19921875 c 0
 505.265625 3.1357421875 253.629882812 0.97265625 56.25 0 c 1
 53.25 8 l 1
 81.9833984375 38.2822265625 109.522949518 72.7813224646 139.21484375 110 c 0
 275.110351562 281.801757812 392.912109375 465.591796875 473.719726562 630 c 0
 474.473632812 631.482421875 474.578125 632.670898438 475.5 634 c 1
 463 642 412.031463105 644.58886141 375.5 642 c 0
 198.902025134 629.485097956 123 619.5 62.25 558.75 c 1
 47 578.75 l 1
EndSplineSet
Position2: "cpsp-1" dx=0 dy=0 dh=50 dv=100
Substitution2: "c2pc-1" z.pcap
Substitution2: "c2sc-1" z.smcp
EndChar
StartChar: bracketleft
Encoding: 91 91 84
Width: 246
VWidth: 1515
Flags: HW
LayerCount: 2
Fore
SplineSet
109 657 m 1
 109 -170 l 1
 219 -200 l 1
 219 -230 l 1
 37 -230 l 1
 37 717 l 1
 219 717 l 1
 219 689 l 1
 109 657 l 1
EndSplineSet
Position2: "cpsp-1" dx=0 dy=0 dh=50 dv=100
Position2: "'case' vertical ajustments for all-caps-1" dx=0 dy=90 dh=0 dv=0
EndChar
StartChar: asciicircum
Encoding: 94 94 207
Width: 463
Flags: HW
HStem: 378.451 317.052
VStem: 79.7493 303.814
LayerCount: 2
Fore
SplineSet
383.563476562 401.09765625 m 1
 356.88671875 384.451171875 l 1
 231.65625 599.27734375 l 1
 106.42578125 384.451171875 l 1
 79.7490234375 401.09765625 l 1
 210.166992188 695.502929688 l 1
 253.145507812 695.502929688 l 1
 383.563476562 401.09765625 l 1
EndSplineSet
EndChar
StartChar: a
Encoding: 97 97 0
Width: 385
Flags: HMW
HStem: -18 40<289 347.036> -17 32<66 170.18> 162 24<170.375 244.719> 376 32<142.099 224.5>
VStem: 32 58<23.793 131.62> 49 59<315.642 355.233> 243 63<56.5717 161.987 182.751 271.326> 250 61<145.38 335.214>
AnchorPoint: "Top" 186 429 basechar 0
AnchorPoint: "Ogonek" 336 18 basechar 0
AnchorPoint: "Bottom" 198 -15 basechar 0
LayerCount: 2
Fore
SplineSet
215 169 m 1
 209.25 170 199.666666667 170 192 170 c 3
 190.5 170 180.997349385 169.10993306 174 166 c 0
 138 150 134 139.93359375 134 97 c 3
 134 71.1071428571 160.132096332 39 190 39 c 3
 202.88470508 39 208.75 41 215 43 c 1
 213 51.2001953125 211 62.5390625 211 106 c 3
 211 129.783203125 214 161.232421875 215 169 c 1
228 408 m 3
 255 408 305.964083464 369.413147857 316 342 c 0
 323.539781122 321.405056431 328 305 328 248 c 3
 328 206.378378378 323 172.324324324 323 108 c 3
 323 93.4355873356 327.211897444 67.4847007454 330 61 c 0
 336.306063565 46.3330592105 344.815917969 41 349 41 c 3
 357.190104167 41 371.666666667 44.2916666667 381 45 c 1
 387 24 l 1
 343.125 9.42857142857 283.761 -10 279 -10 c 3
 274.545454545 -10 234 2 224 18 c 1
 181.577586207 3.9091796875 137.501492042 -9 91 -9 c 3
 41 -9 32 25 32 72 c 3
 32 95 37.1529631255 115.611852502 42 127 c 0
 43.6472995996 130.870342087 49.0196138777 137.551375107 54 140 c 0
 133.324137931 179 176.896551724 182 216 187 c 1
 219 233.462922334 220 267.390625 220 285 c 3
 220 308.050986842 211.545608096 331.66008117 198 345 c 0
 186.666559182 356.161343183 169.676231971 364 162 364 c 3
 157.041015625 364 153 357 153 350 c 3
 153 343.971058239 155.5 333.349282297 158 330 c 1
 57 287 l 1
 51.6666666667 299.222222222 49 307.777777778 49 320 c 3
 49 334 55.6095163543 345.564958023 70 355 c 0
 124.907801418 391 199.985815603 408 228 408 c 3
EndSplineSet
Substitution2: "case-1" A
Substitution2: "pcap-1" a.pcap
Substitution2: "smcp-1" a.smcp
EndChar
StartChar: b
Encoding: 98 98 214
Width: 467
Flags: HMW
AnchorPoint: "Top" 77 749 basechar 0
AnchorPoint: "Bottom" 226 -15 basechar 0
LayerCount: 2
Fore
SplineSet
139 345 m 1
 139 345 137 154 137 132 c 1
 136.956691937 104.854975326 141.261891416 95.0525635644 150 83 c 0
 179 43 229.06640625 32 274 32 c 3
 308.05859375 32 330 71.4805194805 330 127 c 3
 330 178.904815833 322.978515625 353 170 353 c 3
 155.0078125 353 146 348 139 345 c 1
-14 674 m 1
 48.7596899225 690 112.51953125 717 163 744 c 1
 177 731 l 1
 165 707.76744186 155.931032278 682.76499429 152 657 c 0
 142 589.724609375 138 464.649180328 139 368 c 1
 167.846153846 380.169811321 214.320512821 405 264 405 c 3
 366 405 446 306 446 215 c 3
 446 82 311 -12 193 -12 c 3
 145 -12 115 -9 72 -4 c 0
 51.0920436767 -1.56884228799 43 3 32 -9 c 1
 19 -2 l 1
 23 8 25.9395915408 17.0111548841 28 28 c 0
 34 60 33.9075093148 99.0012596774 35 138 c 0
 38.3333333333 257 39.3164073807 478.053620835 36 522 c 0
 33.6489709349 553.15395754 31.3435234114 567.218612415 25 600 c 0
 23.1578551777 609.519640662 12 650 0 654 c 1
 -6 656 -7 656 -12 657 c 1
 -14 674 l 1
EndSplineSet
Substitution2: "case-1" B
Substitution2: "pcap-1" b.pcap
Substitution2: "smcp-1" b.smcp
EndChar
StartChar: c
Encoding: 99 99 2
Width: 405
VWidth: 1159
Flags: HMW
AnchorPoint: "Top" 233 433 basechar 0
LayerCount: 2
Fore
SplineSet
304 286 m 1
 264.864122137 301.461538462 211.022900763 331 164 331 c 3
 133.111883692 331 135 303.465277778 135 270 c 3
 135 188.945560254 177.686749322 45 314 45 c 3
 333.38 45 355.61 48.9375 371 54 c 1
 381 42 l 1
 343 15 290 -15 228 -15 c 3
 180 -15 32 5 32 170 c 3
 32 295 144 411 258 411 c 3
 304 411 347 394 385 373 c 1
 337.75 289.625 339.4375 282.375 304 286 c 1
EndSplineSet
Substitution2: "case-1" C
Substitution2: "pcap-1" c.pcap
Substitution2: "smcp-1" c.smcp
EndChar
StartChar: d
Encoding: 100 100 3
Width: 495
Flags: HMW
AnchorPoint: "TopRight" 494.5 531 basechar 0
AnchorPoint: "Top" 381 734 basechar 0
LayerCount: 2
Back
SplineSet
314 35 m 5
 284.530120482 19.0350877193 243.43373494 0 186 0 c 7
 85 0 22 81 22 181 c 7
 22 293 99.7022965484 351.669010481 180 387 c 4
 205 398 231 406 258 406 c 7
 284.117647059 406 308.117647059 402.4 330 394 c 5
 336 453.309090909 333 528 307 588 c 4
 303.948707999 610.570669634 297.536051273 626.295370259 272.746742954 626.295370259 c 3
 257.645843409 626.295370259 279.400863934 662.254862164 297 671 c 5
 293 683 l 5
 340.64028777 698.441176471 406.007194245 727.264705882 447 753 c 5
 462 747 l 5
 456.909090909 721 450.761666197 679.990723628 448 647 c 4
 432.176470588 458 430 188 430 155 c 7
 430 113.135338346 432.766601461 75.6337897708 438 39 c 4
 439 32 443 27 452 29 c 4
 496 33 l 5
 500 14 l 5
 455.538461538 2.25 345.692307692 -33 330 -33 c 7
 315 -33 309.601989914 14.9701513047 312 14 c 4
 313.450172287 22.436423206 312.333333333 23.1395348837 314 35 c 5
EndSplineSet
Fore
SplineSet
314 35 m 1
 284.530120482 19.0350877193 243.43373494 0 186 0 c 3
 85 0 22 81 22 181 c 3
 22 293 99.7022965484 351.669010481 180 387 c 0
 205 398 231 406 258 406 c 3
 284.117647059 406 308.117647059 402.4 330 394 c 1
 336 453.309090909 334.252929688 557.705078125 311.252929688 617.705078125 c 0
 303.100585938 638.971679688 301.7890625 656 277 656 c 3
 271 656 265 656 261 656 c 1
 257 668 l 1
 304.640625 683.44140625 406.007194245 727.264705882 447 753 c 1
 462 747 l 1
 456.909090909 721 450.761666197 679.990723628 448 647 c 0
 432.176470588 458 430 188 430 155 c 3
 430 113.135338346 432.766601461 75.6337897708 438 39 c 0
 439 32 443 27 452 29 c 0
 496 33 l 1
 500 14 l 1
 455.538461538 2.25 345.692307692 -33 330 -33 c 3
 315 -33 311.862134615 2.41644454757 312 5 c 0
 312.450195312 13.4365234375 313.333333333 27.1395348837 314 35 c 1
186 354 m 3
 165 354 153 351 144 345 c 0
 126.127580823 333.085053882 112 312.726495726 112 281 c 3
 112 171 184.361445783 64 294 64 c 3
 304.035087719 64 320 67 320 76 c 1
 322 126.939453125 325 181.117090362 322 291 c 0
 321.785718477 311.419694737 314.4544701 322.991088899 307 326 c 0
 275.311987529 338.7905017 231.118644068 354 186 354 c 3
EndSplineSet
Substitution2: "case-1" D
Substitution2: "pcap-1" d.pcap
Substitution2: "smcp-1" d.smcp
EndChar
StartChar: e
Encoding: 101 101 4
Width: 414
Flags: HMW
AnchorPoint: "Top" 212 425.3 basechar 0
AnchorPoint: "Ogonek" 301.65 23 basechar 0
LayerCount: 2
Back
SplineSet
223.509765624 401.880859376 m 3
 289.182542068 401.880859376 336.458620946 360.756618923 365.80078125 314.26953125 c 0
 370.94921875 305 369.98046875 304.880859376 390.51953125 291.609375 c 1
 389.490234376 281.310546876 l 1
 309.782982029 267.081483004 225.880202766 250.339569627 147.849609375 233.599609376 c 1
 148.849609375 231.26171875 148.849609375 228.45703125 148.849609375 226.119140624 c 3
 148.849609375 130.968394886 201.208947065 49.83984375 293.3203125 49.83984375 c 3
 323.771119156 49.83984375 352.92560658 61.5 373.009765624 72.099609375 c 1
 380.220703124 61.80078125 l 1
 338.181867733 27.810546875 273.12023074 -7.2109375 208.060546876 -7.2109375 c 3
 99.91015625 -7.2109375 35.01953125 80.025390625 35.01953125 187.55078125 c 3
 35.01953125 330.77455754 147.2890625 401.880859376 223.509765624 401.880859376 c 3
160.580078124 375.279296876 m 1
 99.74280709 371.220703124 136.850594644 286.221604568 146.880859375 250.080078124 c 1
 195.0703125 267.220703124 l 2
 219.207043201 273.894772951 261.137815576 276.420833219 245.91015625 313.08984375 c 0
 236.608950383 343.151599702 200.543081728 377.310546876 160.580078124 375.279296876 c 1
EndSplineSet
Fore
SplineSet
220 402 m 3
 286 402 338.407226562 360.8671875 365 313 c 0
 370 304 369 304 389 291 c 1
 388 281 l 1
 308.173828125 266.982421875 218.145507812 248.491210938 140 232 c 1
 141 229.8125 140.727539062 227.815429688 141 225 c 0
 150 132 198.1875 49 290 49 c 3
 320.951171875 49 350.584960938 60 371 70 c 1
 378 60 l 1
 336 27 267 -7 202 -7 c 3
 97 -7 34 82 34 188 c 3
 34 329 146 402 220 402 c 3
172 372 m 3
 157.125976562 372 132.700195312 344.799804688 139 248 c 1
 195 264 l 2
 227.944335938 273.247070312 256.31640625 280.780273438 247 311 c 0
 238.573242188 339.064453125 207.166015625 372 172 372 c 3
EndSplineSet
Substitution2: "case-1" E
Substitution2: "pcap-1" e.pcap
Substitution2: "smcp-1" e.smcp
EndChar
StartChar: f
Encoding: 102 102 5
Width: 302
VWidth: 1159
Flags: HMW
AnchorPoint: "Top" 252 748 basechar 0
LayerCount: 2
Back
SplineSet
328 750 m 7
 361 750 392 741 422 727 c 5
 447.227272727 698.490909091 396.772727273 636.127272727 385 629 c 5
 321.625 644 267.4921875 678 216 678 c 7
 106.285062809 678 123.903616547 512.052862664 141 407 c 4
 176 355.911111112 191.450980392 329.525925926 194 394 c 5
 307 394 l 5
 307 352 l 5
 196 362 l 5
 196 301.647668394 193.608951321 240.366921421 194 180 c 4
 194.298863628 136.008986182 200.828412232 89.5164195207 209 48 c 4
 211.701641018 24.0741906134 245.532346613 18.29891862 282 16 c 4
 269.738151705 14.4298627942 257.111111111 14 250 12 c 5
 250 -2 l 5
 192 -2 172 2 139 2 c 7
 100 2 47 -2 18 -4 c 5
 18 12 l 5
 -10 13 l 4
 65.7826086957 24.2285714285 71.6930229442 65.3960994186 73 144 c 4
 74.5 186.770053476 76 229.540106952 76 273 c 4
 76 300.59 76 334.41 76 362 c 5
 57.6 360 36.8 356 20 354 c 5
 20 394 l 5
 78 394 l 5
 79 453.1375 80.0607748349 511.120602403 91 560 c 4
 106.930693069 629 152.765140243 660.055695479 205 700 c 4
 239 726 274 750 328 750 c 7
EndSplineSet
Fore
SplineSet
328 750 m 3
 361 750 392 741 422 727 c 1
 447.227272727 698.490909091 396.772727273 636.127272727 385 629 c 1
 321.625 644 267.4921875 678 216 678 c 3
 176.884785569 678 177.570850474 631.175137277 182 610 c 0
 194.550047164 550 195 434 194 394 c 1
 307 394 l 1
 307 352 l 1
 196 362 l 1
 196 301.647668394 194.237152255 240.342706953 196 180 c 0
 197.28515625 136.008789062 199.828412232 76.5164195207 209 48 c 0
 216.372122003 25.0785027504 248.522552378 18.2284282829 265 16 c 0
 270.243146773 15.290911018 274.111328125 14 276 12 c 1
 276 -2 l 1
 218 -2 172 2 139 2 c 3
 100 2 33 -2 4 -4 c 1
 4 12 l 1
 11 13 l 0
 61.7822265625 25.228515625 68.4126308673 65.519190753 73 144 c 0
 75.5 186.770053476 76 229.540106952 76 273 c 0
 76 300.59 76 334.41 76 362 c 1
 57.6 360 36.8 356 20 354 c 1
 20 394 l 1
 78 394 l 1
 79 453.1375 80.0607748349 511.120602403 91 560 c 0
 106.930693069 629 152.765140243 660.055695479 205 700 c 0
 239 726 274 750 328 750 c 3
EndSplineSet
Substitution2: "salt-1" f.alt
Substitution2: "case-1" F
Substitution2: "pcap-1" f.pcap
Substitution2: "smcp-1" f.smcp
EndChar
StartChar: g
Encoding: 103 103 6
Width: 446
VWidth: 1159
Flags: HMW
AnchorPoint: "Top" 199 423 basechar 0
LayerCount: 2
Fore
SplineSet
168 31 m 3
 168 -7 203 -12 216 -12 c 3
 239 -12 258 -6 280 -6 c 3
 357 -6 425 -46 425 -128 c 3
 425 -258 245 -323 150 -323 c 3
 75 -323 5 -285 5 -209 c 3
 5 -151 53 -107 90 -81 c 1
 72 -70 48 -14 48 2 c 3
 48 16 74 22 139 60 c 1
 83 82 27 145 27 228 c 3
 27 330 123 416 215 416 c 3
 255 416 288 401 320 380 c 1
 340 385 364 390 389 390 c 3
 401 390 428 390 438 386 c 1
 438 347 423 307 416 296 c 1
 407 298 393 306 385 310 c 0
 377 314 367 321 358 326 c 1
 368 305 371 274 371 239 c 3
 371 137 287 101 216 69 c 0
 182 52 168 46 168 31 c 3
159 378 m 3
 114 378 111 345 111 304 c 1
 111 202 175 131 241 108 c 1
 250 114 265 145 265 189 c 3
 265 269 233 378 159 378 c 3
59 -157 m 3
 59 -224 151 -257 228 -257 c 3
 267 -257 347 -259 347 -188 c 3
 347 -104 310 -102 286 -102 c 3
 276 -102 224 -110 211 -110 c 3
 166 -110 155 -104 120 -97 c 1
 87 -107 59 -123 59 -157 c 3
EndSplineSet
Substitution2: "case-1" G
Substitution2: "pcap-1" g.pcap
Substitution2: "smcp-1" g.smcp
EndChar
StartChar: h
Encoding: 104 104 421
Width: 482
Flags: HMW
AnchorPoint: "Top" 90 733 basechar 0
AnchorPoint: "Bottom" 250 -15 basechar 0
LayerCount: 2
Fore
SplineSet
165 316 m 1
 164.4 275.631336406 161 307.501709861 161 196 c 3
 161 161.830508475 162.723632812 100.0859375 167 76 c 0
 173.374023438 40.0986328125 177.337890625 36.138671875 202 20 c 0
 209.71484375 14.9521484375 216 15 218 12 c 1
 218 -2 l 1
 190.05859375 0 140.906976744 0 114 0 c 3
 78 0 34 -1 3 -2 c 1
 2 10 l 1
 6 11 9.05341423302 11.7713753419 18 17 c 0
 28.5744217727 23.1799756763 36.6640625 42.4150390625 38 58 c 0
 48.2998046875 178.193359375 49 306.981310044 49 414 c 3
 49 460.787711725 49 503.968009598 49 549 c 0
 49 605.833333333 37.8275862069 673 -5 673 c 3
 -8 673 l 1
 -12 687 l 1
 93.4235358511 719.583333333 120.365234375 724.47265625 185 758 c 1
 203 745 l 1
 191.922851562 728.142578125 188.420854243 702.782575228 186 686 c 0
 169.333007812 570.456054688 164 450.748538012 164 330 c 1
 202.779661017 363.096774194 266.604519774 406 307 406 c 3
 364 406 406.936107071 364.135214812 415 305 c 0
 421 261 423 207 423 157 c 3
 423 120 421.954101562 95.1416015625 422 81 c 0
 422.129882812 41.2373046875 442.764648438 28.1455078125 454 22 c 0
 465.379882812 15.7744140625 489.5234375 8.9599609375 474 11 c 1
 474 -2 l 1
 450.98828125 -1 384.01171875 0 361 0 c 3
 329 0 293 -2 261 -4 c 1
 258 8 l 1
 262 10 264.902921802 10.1734815741 272 14 c 0
 285.2890625 21.1650390625 292 31 299 48 c 0
 304.491210938 61.3359375 309 99 309 133 c 3
 309 165.420898438 308.800048236 210.446346402 305 240 c 0
 298.119140625 293.513671875 286.652173913 328 211 328 c 3
 184.548320413 328 172.012919897 316.071428571 165 316 c 1
EndSplineSet
Substitution2: "case-1" H
Substitution2: "pcap-1" h.pcap
Substitution2: "smcp-1" h.smcp
EndChar
StartChar: k
Encoding: 107 107 487
Width: 459
Flags: HMW
AnchorPoint: "Top" 111 739 basechar 0
AnchorPoint: "Bottom" 230 -15 basechar 0
LayerCount: 2
Fore
SplineSet
163 256 m 1
 173 261.087890624 179 266 187 274 c 0
 200.223944363 287.223944363 216 314.799804688 216 339 c 3
 216 353.400390625 199 375 188 379 c 1
 188 393 l 1
 225 393 273 391 310 391 c 3
 336 391 403 393 429 393 c 1
 429 379 l 1
 348.892307692 371.132075472 284.891179769 326.068591006 236 285 c 2
 211 264 l 1
 278.559349967 184.705407632 339.420892946 121.712843344 428 46 c 0
 442.142178104 33.9119969601 456.469387755 23.8947368422 475 11 c 1
 475 -3 l 1
 443 -2 402 0 368 0 c 3
 325.892857143 0 279.107142857 -1 237 -2 c 1
 236 11 l 1
 256.470588235 12.4666666667 265 18.3711101944 265 37 c 3
 265 41.1192173184 268.916725852 53.476673754 136 196 c 1
 163 219 l 1
 161 157.367187501 166.573862125 89.5493922204 173 51 c 0
 175.114027259 38.318282372 180.807356478 35.0831469108 187 29 c 0
 195.210252358 20.934919055 202.571289062 15.599609375 210 10 c 1
 209 -2 l 1
 189 -2 143.000300481 1 123 1 c 3
 84.943359375 1 40.056640625 1 2 -2 c 1
 2 11 l 1
 8 12 l 1
 40.65234375 21.0986328125 42.8457305165 48.4573051646 47 90 c 0
 57 190 59 290 59 390 c 3
 59 443.767241379 57.4969524377 498.78419138 53 552 c 0
 49.8841172427 588.872575993 47.5 665 -2 665 c 3
 -5.314453125 665 -5 665 -6 665 c 1
 -10 677 l 1
 56.6474609375 700 127.90647482 719 189 753 c 1
 199 748 l 1
 191 727 188.660361531 703.139948242 185 683 c 0
 161 550.947809616 167 393.835041772 163 256 c 1
EndSplineSet
Substitution2: "case-1" K
Substitution2: "pcap-1" k.pcap
Substitution2: "smcp-1" k.smcp
EndChar
StartChar: l
Encoding: 108 108 497
Width: 241
Flags: HMW
AnchorPoint: "Top" 113 734 basechar 0
AnchorPoint: "TopRight" 234 531 basechar 0
AnchorPoint: "Bottom" 122 -15 basechar 0
LayerCount: 2
Fore
SplineSet
175 274 m 3
 175 223.092623781 175.476897317 174.826737942 179 125 c 0
 186 26 212.977539062 23.5732421875 227 18 c 1
 230 16 240 13 242 11 c 1
 242 -3 l 1
 223.175257732 -3 185.525773196 0 159 0 c 3
 108.037037037 0 48.7777777778 -0.666666666667 -1 -2 c 1
 -4 11 l 1
 -2.43509391579 11.3904766269 9.9326171875 14.080078125 12 15 c 1
 46.2431640625 30.8935546875 57 28 65 179 c 0
 67.9533802348 234.745051932 68 319.809570312 68 338 c 3
 68 451.888671875 61.8663036451 528.514318605 60 552 c 0
 52.85546875 641.907226562 32.46875 656 22 656 c 0
 16 656 l 1
 13 674 l 1
 97.36328125 693.671875 136.727539062 713.9140625 200 744 c 1
 212 733 l 1
 209 725 203.755187017 710.068234931 198 696 c 0
 171 630 175 414 175 274 c 3
EndSplineSet
Substitution2: "case-1" L
Substitution2: "pcap-1" l.pcap
Substitution2: "smcp-1" l.smcp
EndChar
StartChar: m
Encoding: 109 109 12
Width: 775
Flags: HMW
HStem: -1 13<576 596 742.3 784> -1 11<13 26.6944 190 218 297 317 464 490> 341 11<10 27.8082> 348 38<497.719 647.186> 355 41<245.584 332.073> 385 20G<119.5 151>
VStem: 87 61<44.1758 322.94> 365 65<23.7993 292.25> 640 62<26.0615 303.999>
AnchorPoint: "Top" 389 412 basechar 0
LayerCount: 2
Back
SplineSet
690 113 m 3
 690 89.4266666667 693.458808274 66.953108991 698 45 c 0
 700 39.0447133767 711.491934243 33.2507986524 716 29 c 2
 759 7 l 1
 758 -4 l 1
 755.392739273 -4 658.94059406 1 613 1 c 0
 580 1 539 -1 506 -3 c 1
 505 10 l 1
 505 13 l 2
 543.29907523 20.0228203545 555.514074104 54.0993016693 562 87 c 0
 572 110 580 131.904761905 580 156 c 3
 580 194.467120248 576.529607772 232.447901653 563.702268144 263.000002035 c 0
 547.747334967 300.401821039 522.426727523 324 485 324 c 3
 465.444444444 324 449 324.483870968 433 325 c 1
 437.8 306.333333333 439 287.666666667 439 269 c 3
 439 237 439.512036528 204.991079084 441 173 c 0
 443 130 445 87 445 43 c 0
 445 29.7586206897 476.638172535 20.820791803 493 15 c 2
 479 8 l 1
 478 -5 l 1
 440.666666666 -1 387.333333334 3 350 3 c 1
 318.551724137 3 285.793103449 1.33333333333 255 -2 c 1
 254 8 l 1
 254 14 l 2
 295.815889835 25.5151290733 320.179964294 55.7502695591 323 92 c 0
 325 111.175 329 131.842212619 329 151 c 3
 329 198.274647887 328.19803715 227.60953384 313 288 c 0
 303.967958928 309.632383334 279.296296296 328 235 328 c 3
 208.803149606 328 192 336 183 331 c 1
 183 247 183 162.888669993 183 79 c 0
 183 47.1538461539 192.791553548 35.45702452 224 25 c 2
 233 6 l 1
 231 -4 l 1
 186.743119265 -2.33333333334 142.486238533 1 97 1 c 1
 65 1 33 1 1 -6 c 1
 0 8 l 1
 9.00022040062 11.875 22.0297105593 25.7497811285 34 39 c 0
 48.105588416 59.0935925796 60.3402664336 103.47824051 67 126 c 0
 72.9861230966 138.130035483 75 149.671232877 75 162 c 3
 75 200 76.4455306882 240.242083009 67 277 c 0
 52.9532467532 286.154664485 -6.98181818182 304 -40 304 c 3
 -43.1841269841 304 -29.473015873 337 -2 337 c 1
 -3 352 l 1
 62.7222222222 365 124.420634921 384 166 405 c 1
 189 399 l 1
 187 384.352112676 183 371.901408451 183 347 c 1
 224.220338983 363.735294118 296.062146893 396 335 396 c 3
 382.989473684 396 414.705263158 371.9375 432 341 c 1
 479.073033708 364.333333333 541.516853933 386 603 386 c 3
 687.132075472 386 694 307 694 220 c 3
 694 184 690 149 690 113 c 3
702 113 m 3x1380
 702 87 704 63 706 38 c 0
 707 27 713 23 724 22 c 2
 785 17 l 1
 784 0 l 1
 752 0 715 1 683 1 c 0
 650 1 609 0 576 -1 c 1
 575 12 l 1
 596 16 l 2
 622 20 627 36 631 62 c 0
 636 104 640 144 640 188 c 3
 640 224 638 259 627 287 c 0
 613 324 587 348 539 348 c 3x9380
 495 348 458 333 422 317 c 1
 426 301 427 285 427 269 c 3
 427 237 428 205 428 173 c 0
 429 130 430 87 430 43 c 0
 430 21 446 18 464 14 c 2
 491 10 l 1
 490 -1 l 1
 476 -1 456 -1 442 -1 c 0
 394 -1 344 -2 297 -4 c 1
 296 10 l 1
 317 14 l 2
 349 19 360 35 362 71 c 0
 363 97 365 125 365 151 c 3
 365 200 366 249 356 293 c 0
 349 327 321 355 275 355 c 3x4b80
 233 355 182 332 148 312 c 1
 148 228 148 144 148 60 c 0
 148 37 154 26 174 21 c 2
 218 10 l 1
 218 -2 l 1
 182 -1 146 1 109 1 c 0
 77 1 45 1 13 0 c 1
 12 10 l 1
 21 12 39 21 46 26 c 0
 66 40 79 59 83 89 c 0
 85 114 87 137 87 162 c 3
 87 200 88 240 83 277 c 0
 76 332 46 342 28 342 c 3
 24 342 14 341 10 341 c 1
 9 352 l 1
 58 362 104 384 135 405 c 1x6780
 151 399 l 1
 150 379 148 362 148 328 c 1
 196 354 275 396 325 396 c 3x0b80
 372 396 406 368 420 332 c 1
 469 360 534 386 598 386 c 3
 696 386 704 307 704 220 c 3
 704 184 702 149 702 113 c 3x1380
EndSplineSet
Fore
SplineSet
692 113 m 3
 692 89.4266666667 694.204918531 65.8633573872 698 45 c 0
 700.60999574 30.6516192439 723.112308855 19.9195688122 734 16 c 2
 759 7 l 1
 758 -4 l 1
 755.392739273 -4 658.94059406 1 613 1 c 0
 581.23364486 1 551.766601562 0 520 -2 c 1
 519 11 l 1
 528 14 l 2
 542.55859375 18.8525390625 558.314453125 22.7861328125 570 66 c 0
 579.463867188 101 580 135.166881167 580 176 c 3
 580 210.872061618 572.789306788 257.421386424 565 273 c 0
 549.246521929 304.506956141 523.043861663 324 485 324 c 3
 467.324786325 324 452.461538462 316.741935484 438 309 c 1
 438.8 295.666666667 439 282.333333333 439 269 c 3
 439 237 440.51204282 204.991079376 441 173 c 0
 441.656507989 129.958520039 443.555044328 49.157280496 445 43 c 0
 448.053233603 29.9894861982 490 17 490 17 c 2
 502 11 l 1
 501 -2 l 1
 463.666992188 2 410.333007812 3 373 3 c 1
 337.248046875 3 300.006835938 1.3330078125 265 -2 c 1
 264 8 l 1
 276 13 l 2
 285.170095229 16.8208730122 316 29 323 72 c 0
 326.09772591 91.0288877343 329 131.842212619 329 151 c 3
 329 211.274647887 323 265 313 288 c 0
 303.652973959 309.498159894 279.296296296 328 235 328 c 3
 206.662844866 328 192 319.272727273 183 316 c 1
 183 237 184 123.895296779 189 79 c 0
 192.704004943 45.7415197612 207.439663462 26.3201923077 229 14 c 2
 243 6 l 1
 241 -4 l 1
 196.743164062 -2.3330078125 152.486328125 1 107 1 c 1
 75 1 28 -2 12 -4 c 1
 11 10 l 1
 21.5888671875 13.625 22.5681729218 13.9800300274 39 24 c 0
 55.677734375 34.169921875 67.83203125 60.2080078125 71 97 c 0
 72.3989555983 113.247118424 75 147.616438356 75 162 c 3
 75 200 75.6238429419 240.040673106 67 277 c 0
 56.5 322 23.599609375 323 11 323 c 3
 9.9111328125 323 7.3984375 323 -2 323 c 1
 -3 338 l 1
 66.611328125 355 131.96031746 384 176 405 c 1
 189 396 l 1
 187 378.253521127 183 363.169014085 183 333 c 1
 224.220338983 354.516806723 296.062146893 396 335 396 c 3
 384.968421053 396 425.992078133 365.8125 436 327 c 1
 481.971910112 357.592592593 542.95505618 386 603 386 c 3
 687.132075472 386 694 307 694 220 c 3
 694 184 692 149 692 113 c 3
EndSplineSet
Substitution2: "case-1" M
Substitution2: "pcap-1" m.pcap
Substitution2: "smcp-1" m.smcp
EndChar
StartChar: n
Encoding: 110 110 536
Width: 485
Flags: HMW
AnchorPoint: "Top" 254 431 basechar 0
AnchorPoint: "Bottom" 250 -15 basechar 0
LayerCount: 2
Fore
SplineSet
41 301 m 0
 31.6904296875 332.158203125 18.69140625 330 -5 330 c 1
 -6.4599609375 330 -7.6103515625 330 -9 330 c 1
 -9 343 l 1
 44.0087890625 360.959960938 109.571428571 392.64 157 411 c 1
 166 406 l 1
 169 327 l 1
 207.02247191 360.246376812 265.269662921 401 313 401 c 3
 382 401 415.811776106 359.988323063 420 294 c 0
 424 230.977272727 425 170.090909091 425 106 c 3
 425 93.5862068966 425 82.4137931034 425 70 c 0
 425 38.6666666667 446 24 470 15 c 1
 476 13 481 11 485 10 c 1
 484 -3 l 1
 457.296703297 -0.777777777777 421.692307692 1 394 1 c 3
 350.895238096 1 291.104761904 -1.72727272727 248 -5 c 1
 246 7 l 1
 251 8.04412373654 256 10 261 12 c 1
 271 14.218583043 297.433958009 38.7626231059 303 65 c 0
 310.350585938 99.6494140625 314 145.910148853 314 184 c 3
 314 212.306122449 318.716087091 278.249962155 280 306 c 0
 262.389392725 318.622531229 237.432432432 325 205 325 c 3
 191.96159519 325 176 315.4 169 309 c 1
 167.25 237.824 162 163.176 162 92 c 0
 162 42.8444444444 177.879437159 20.5022572616 216 13 c 1
 222 12 226 10 226 10 c 1
 225 -4 l 1
 187.8 -1.22222222222 141.92 1 101 1 c 3
 69 1 33 -1 1 -2 c 1
 -2 10 l 1
 3.28571428571 12.3111111112 7.994140625 14.15625 16 18 c 0
 38.939453125 29.0126953125 45.0927734375 49.3046875 51 100 c 0
 53.5 121.456054688 54 170.5625 54 192 c 3
 54 231.084960938 48.8191313486 274.830147403 41 301 c 0
EndSplineSet
Substitution2: "case-1" N
Substitution2: "pcap-1" n.pcap
Substitution2: "smcp-1" n.smcp
EndChar
StartChar: o
Encoding: 111 111 14
Width: 492
Flags: HW
AnchorPoint: "Top" 251 432 basechar 0
AnchorPoint: "Horn" 420.5 336.8 basechar 0
AnchorPoint: "Ogonek" 341 14.6582 basechar 0
LayerCount: 2
Back
SplineSet
256 412 m 7
 373 412 464 323 464 204 c 7
 464 82 374 -9 253 -9 c 7
 132 -9 28 81 28 200 c 7
 28 316 133 412 256 412 c 7
204 380 m 7
 188.113002259 380 144 354.751170794 144 258 c 7
 144 174.172848322 179.403353456 19 275 19 c 7
 335.632619218 19 348 106.59984432 348 160 c 7
 348 248.648233612 286.503180029 380 204 380 c 7
EndSplineSet
Fore
SplineSet
256 412 m 3
 373 412 464 323 464 204 c 3
 464 82 374 -9 253 -9 c 3
 132 -9 28 81 28 200 c 3
 28 316 133 412 256 412 c 3
204 380 m 3
 188.11328125 380 144 354.750976562 144 258 c 3
 144 174.172851562 179.403320312 19 275 19 c 3
 335.6328125 19 348 106.599609375 348 160 c 3
 348 248.6484375 286.502929688 380 204 380 c 3
EndSplineSet
Substitution2: "case-1" O
Substitution2: "pcap-1" o.pcap
Substitution2: "smcp-1" o.smcp
EndChar
StartChar: p
Encoding: 112 112 15
Width: 503
Flags: HMW
AnchorPoint: "Top" 233 437 basechar 0
LayerCount: 2
Back
SplineSet
73 36 m 4
 72 95.2412451362 68.1455799454 65.923761526 68 211 c 4
 67.6575432091 259.541055559 54.1052631579 306 2 306 c 7
 -13.731707317 306 -16.4146341464 320.6 0 336 c 5
 -6 346 l 5
 29.0217391304 362 125.007246377 397 173 427 c 5
 177.75 427 178 380.64 178 370 c 5
 211.628205128 384.235294118 257.333333333 403 300 403 c 7
 396 403 477 295 477 209 c 7
 477 90 362 -7 234 -7 c 7
 213.1 -7 194.1 -5.17647058824 177 -1 c 5
 172 -235 l 6
 171.545304958 -285.366087407 174.39661869 -307.29774092 219 -314 c 5
 192.04600151 -315.880295521 246.282476207 -325.804917326 228 -325 c 5
 228 -339 l 5
 208 -339 178 -337 158 -337 c 4
 108 -337 64 -342 17 -347 c 5
 17 -334 l 5
 3.77943828886 -337.269922359 10.1856949812 -331.932759837 -12 -335 c 5
 31.6256404838 -327.496962937 37.0222902996 -299.578382888 48 -256 c 4
 69 -214.336448598 73.9785865507 -57.6986259142 73 36 c 4
197 345 m 7
 175.123809524 345 183.60952381 349.64516129 178 354 c 5
 175 78 l 5
 217.466666667 57.6 262.377777778 36 322 36 c 7
 372.981983444 36 369 70.3098591549 369 120 c 7
 369 223.078817734 298.754491018 345 197 345 c 7
EndSplineSet
Fore
SplineSet
73 36 m 0
 72 95.2412451362 72 155 68 211 c 0
 63.4858028041 274.198760743 54.1052631579 335 2 335 c 3
 2.24429849704e-017 335 -1.11022302463e-016 335 -3 335 c 1
 -9 345 l 1
 26.6086956522 361.197530864 124.202898551 396.62962963 173 427 c 1
 177.75 427 178 370.066666667 178 357 c 1
 211.628205128 376.843137255 257.333333333 403 300 403 c 3
 396 403 477 295 477 209 c 3
 477 90 362 -7 234 -7 c 3
 213.1 -7 194.1 -5.17647058824 177 -1 c 1
 172 -235 l 2
 170.910562954 -285.985653742 205 -311 211 -315 c 1
 216 -319 222 -322 228 -325 c 1
 228 -339 l 1
 202.857142857 -339 165.142857143 -337 140 -337 c 0
 90 -337 46 -342 -1 -347 c 1
 -1 -334 l 1
 3 -334 3 -334 3 -334 c 1
 24 -330 39.052206616 -297.421872176 48 -256 c 0
 57 -214.336448598 74.5815060717 -57.6903888795 73 36 c 0
197 345 m 3
 190.74405192 345 183.60952381 343 178 341 c 1
 175 93 l 1
 201.466666667 65.3142857143 262.377777778 36 322 36 c 3
 350 36 369 70.3098591549 369 120 c 3
 369 223.078817734 298.754491018 345 197 345 c 3
EndSplineSet
Substitution2: "case-1" P
Substitution2: "pcap-1" p.pcap
Substitution2: "smcp-1" p.smcp
EndChar
StartChar: q
Encoding: 113 113 675
Width: 479
Flags: HMW
AnchorPoint: "Top" 263 443 basechar 0
LayerCount: 2
Fore
SplineSet
330 36 m 1
 332 123.399176955 328.918013365 220.557746063 322 295 c 0
 320.239447875 313.944668279 318 318 307 329 c 0
 288 348 241 362 205 362 c 3
 168 362 138 345.268900902 138 274 c 3
 138 133.684221333 204.355599647 32 307 32 c 3
 318.28 32 325 34 330 36 c 1
330 12 m 1
 299.875862069 -0.52380952381 260.8 -10 218 -10 c 3
 107 -10 31 80 31 182 c 3
 31 314 164 412 285 412 c 3
 339.254716981 412 370.141509434 393 380 393 c 3
 393.880952381 393 441 424 433 421 c 1
 445 415 l 1
 443.333333333 407.357142857 441.209768987 394.759926841 440 385 c 0
 437.596153846 365.606741573 433.807158994 311.305824852 434 298 c 0
 436 160.00212161 438 24 438 -114 c 0
 438 -161.942196532 436 -209.067918324 436 -257 c 0
 436 -311.857142857 472 -310 494 -321 c 0
 494.919008107 -321.459504054 494 -321.6 499 -324 c 1
 501 -338 l 1
 489.666666667 -338 444.333333333 -338 433 -338 c 0
 370 -338 302 -342 243 -346 c 1
 243 -333 l 1
 243 -335.547503089 243 -327 249 -328 c 1
 312.698108327 -315.551202639 319.198490965 -278.290555304 322 -203 c 2
 330 12 l 1
EndSplineSet
Substitution2: "case-1" Q
Substitution2: "pcap-1" q.pcap
Substitution2: "smcp-1" q.smcp
EndChar
StartChar: r
Encoding: 114 114 693
Width: 351
Flags: HMW
HStem: -6 12<40 64.1111> -5 23<167.453 275> 395 20G<298 320.5> 402 20G<142 159>
VStem: 99 64<18.0803 323.88>
AnchorPoint: "Top" 162.5 466 basechar 0
AnchorPoint: "Bottom" 142 -15 basechar 0
LayerCount: 2
Fore
SplineSet
181 199 m 0
 181 150.7265625 180.896484375 107.794921875 185 72 c 0
 187.212861897 52.6972298965 202.763195172 29.8322360138 222 23 c 0
 235.717773438 18.1279296875 235.578125 17.400390625 259 12 c 1
 260 -2 l 1
 210 3 156.990234375 5 104 5 c 1
 77 5 18 2 14 0 c 1
 14 12 l 1
 25 15 l 2
 31.1590745192 16.6797475962 45.919921875 21.1533203125 50 35 c 0
 64 80.0537109375 67 138.268554688 67 187 c 1
 67 205.658203125 65.5693359375 274.858398438 61 296 c 0
 57.8818359375 310.427734375 52.228515625 336 31 336 c 1
 27.4619140625 336 7.5380859375 336 15 336 c 1
 13 346 l 1
 43.205078125 361 147.794921875 401 178 422 c 1
 184 422 185.06640625 418.038085938 185 413 c 2
 183 356 l 1
 212.698242188 372.69921875 279.431640625 418.072265625 285 419 c 1
 324 406.372070312 338 349.333007812 338 340 c 0
 338 299.270507812 286.526367188 263.854492188 240 255 c 1
 226 263.884765625 237 323 194 323 c 3
 187.780273438 323 182 305.653320312 182 295 c 3
 182 266.638671875 181 227.361328125 181 199 c 0
EndSplineSet
Substitution2: "case-1" R
Substitution2: "pcap-1" r.pcap
Substitution2: "smcp-1" r.smcp
EndChar
StartChar: s
Encoding: 115 115 18
Width: 341
VWidth: 1159
Flags: HMW
HStem: -12 24<117.158 219.742> 375 22<139.721 212.745>
VStem: 27 12<99.8773 105.5> 47 55<268.488 340.402> 256 56<45.0788 127.078> 278 10<304.6 311.805>
AnchorPoint: "Top" 180.5 440 basechar 0
LayerCount: 2
Back
SplineSet
39 108 m 5
 102.788321168 70.5625 139.037494142 22 204 22 c 7
 215.55 22 226 28.765625 226 67 c 7
 226 106.84 190.874382027 138.163632637 169 150 c 4
 117.292811362 176.415411536 35 191.146788991 35 265 c 7
 35 347.5 123.307692308 405 203 405 c 7
 229 405 252 402 274 398 c 5
 288 314 l 5
 278 312 l 5
 260 304 162 375 131 375 c 7
 131 375 131 360.524590164 131 331 c 7
 131 317.671641791 132.751986029 286.780984866 138 287 c 4
 229.807692308 252.24137931 324 217.531034483 324 119 c 7
 324 33.9649122807 229.56097561 -12 148 -12 c 7
 109 -12 78 -3 48 9 c 5
 46 29.1463414634 40.6105785147 47.4802998199 36 68 c 4
 33.1302005165 80.7722420931 29 92.1923076923 27 102 c 5
 39 108 l 5
EndSplineSet
Fore
SplineSet
39 124 m 1
 102.788321168 79.5973837209 139.037494142 22 204 22 c 3
 218.7 22 232 32.765625 232 67 c 3
 232 101.48 192.673527146 131.188124551 169 143 c 0
 117.292811362 171.023306151 35 191.651376147 35 265 c 3
 35 347.5 123.307692308 405 203 405 c 3
 233.394366197 405 260.281690141 400.714285714 286 395 c 1
 300 299 l 1
 290 297 l 1
 272.612244898 293.73015873 181.83598919 370 148 370 c 3
 129.188065254 370 120 356.511549925 120 329 c 3
 120 308 140.597805199 286.404573352 168 275 c 0
 225.609854498 251.023241342 324 217.531034483 324 119 c 3
 324 33.9649122807 229.56097561 -12 148 -12 c 3
 104.32 -12 69.6 -0.857142857143 36 14 c 1
 32.75 31.4390243902 31.0738895393 49.4774561975 29 68 c 0
 26.7452904038 88.1375032115 27.4444444444 103.576923077 27 118 c 1
 39 124 l 1
EndSplineSet
Substitution2: "case-1" S
Substitution2: "pcap-1" s.pcap
Substitution2: "smcp-1" s.smcp
EndChar
StartChar: t
Encoding: 116 116 759
Width: 346
Flags: HMW
AnchorPoint: "Top" 143.5 508 basechar 0
AnchorPoint: "TopRight" 313 531 basechar 0
AnchorPoint: "Bottom" 174 -15 basechar 0
LayerCount: 2
Fore
SplineSet
19 359 m 1
 27.1523178808 394 131.668874172 498 178 478 c 1
 188 476 l 1
 178 388 l 1
 310 396 l 1
 310 346 l 1
 176 350 l 1
 170.333333333 281.707317073 168.578510707 210.013368018 175 140 c 0
 178.943875969 96.9999999999 201.333333334 56 254 56 c 3
 288.28125 56 302.3125 56.5862068966 317 63 c 1
 323 52 l 1
 284.854304636 29 211.741721854 -6 163 -6 c 3
 94.4285714286 -6 59 35 59 95 c 3
 59 180.31598513 66 264.68401487 64 350 c 1
 22 350 l 1
 19 359 l 1
EndSplineSet
Substitution2: "case-1" T
Substitution2: "pcap-1" t.pcap
Substitution2: "smcp-1" t.smcp
EndChar
StartChar: u
Encoding: 117 117 811
Width: 522
Flags: HMW
AnchorPoint: "Top" 274 437 basechar 0
AnchorPoint: "Horn" 453.5 333 basechar 0
AnchorPoint: "Ogonek" 410.65 -3 basechar 0
AnchorPoint: "Bottom" 248 -15 basechar 0
LayerCount: 2
Fore
SplineSet
248 365 m 1
 304.477539062 374.4140625 384.149414062 392.20703125 438 407 c 1
 443 402 l 1
 439 313.091796875 430 218.953125 430 129 c 3
 430 99.2548828125 433.890625 56.052734375 442 47 c 0
 446.736046877 41.7130112538 445.275390625 37.529296875 455 38 c 2
 508 41 l 1
 512 26 l 1
 467.913333333 13.3755334282 422.76171875 -24 356 -24 c 3
 354.942382812 -24 353.704149885 -24.1065093678 352 -24 c 0
 320 -22 311.654296875 12.8525390625 310 28 c 1
 291.75 27 228.649414062 -16 175 -16 c 3
 129.666992188 -16 102.83984375 8.27734375 90 43 c 0
 79.87109375 70.3916015625 75 99 75 132 c 3
 75 158.077148438 75 199.114257812 77 236 c 1
 77 285.713867188 65.8828125 323 14 323 c 1
 14 323 l 1
 11 335 l 1
 80.765625 359.555664062 148.55859375 384.111328125 206 413 c 1
 215 408 l 1
 214.974631819 377.713925587 200.518883121 242.426353689 200.518883121 178.179609229 c 3
 200.518883121 114.993834427 209.883576139 47 265 47 c 3
 276.044921875 47 292.768554688 47.5224609375 307 51 c 1
 303 100 312 106.231445312 312 252 c 3
 312 321.274414062 291 344.8203125 247 352 c 1
 248 365 l 1
EndSplineSet
Substitution2: "case-1" U
Substitution2: "pcap-1" u.pcap
Substitution2: "smcp-1" u.smcp
EndChar
StartChar: v
Encoding: 118 118 2296
Width: 407
Flags: HMW
AnchorPoint: "Bottom" 194 -15 basechar 0
AnchorPoint: "Top" 198 434 basechar 0
LayerCount: 2
Fore
SplineSet
400 387 m 1
 380 369 347.155942487 306.531923429 320 252 c 0
 291.797851562 195.3671875 272.309660955 162.815771054 251 117 c 0
 231 74 202 12 190 -25 c 1
 177 -25 l 1
 134.95703125 104.369140625 116.099609375 234.46484375 25 359 c 0
 16.833984375 370.163085938 10.1396484375 375.09765625 -5 383 c 1
 -9 382.950195312 -9 384 -9 384 c 1
 -8 395 l 1
 12 395 42 390 62 390 c 0
 111.271484375 390 167.025390625 392 215 396 c 1
 216 384 l 1
 216 384 216 381.681640625 208 382 c 1
 196.036132812 377.5859375 181 365.200195312 181 340 c 0
 181 338.444335938 180.895507812 334.534179688 181 333 c 0
 183.916992188 290.274414062 200.666992188 198.63671875 230 151 c 1
 248.75 171 265.87747679 219.409082534 273 244 c 0
 277.026983092 257.903388721 284 299.200195312 284 316 c 3
 284 368.5 257.10546875 376 250 381 c 1
 251 395 l 1
 272 394 303 392 325 392 c 0
 347 392 377 394 398 395 c 1
 400 387 l 1
EndSplineSet
Substitution2: "case-1" V
Substitution2: "pcap-1" v.pcap
Substitution2: "smcp-1" v.smcp
EndChar
StartChar: w
Encoding: 119 119 22
Width: 625
VWidth: 1159
Flags: HMW
AnchorPoint: "Top" 302 438 basechar 0
LayerCount: 2
Back
SplineSet
645 383 m 5
 600 362.538461538 607.501052334 327.312089814 591 298 c 4
 558.503639929 244.125205663 519.88452037 188.486651079 489 129 c 4
 465.393448877 82.4011061525 447.314167798 32.8911691546 424 -14 c 4
 418.597950222 -24.8259741471 407.926812777 -17.0218624463 406 -10 c 4
 380 84.1780821918 351 177.414383562 316 265 c 5
 290.789220961 216.63190184 279.630087792 194.177326804 243 119 c 4
 220.821603756 74.6075282628 199.146527264 33.2676205004 176 -15 c 4
 173.235281126 -20.7100168014 159.936241438 -24.0062749493 159 -14 c 4
 154.161290323 36.6213592233 107.994806921 145.896075034 84 223 c 4
 58.1213990883 306.255642144 36.6544199943 343.702547356 12 364 c 4
 7.88235294118 378.682539682 9.58823529412 377.142857143 -2 381 c 5
 -1 395 l 5
 25 393 52.9214674638 391 85 391 c 7
 115.01666204 391 145 393 176 398 c 5
 177 382 l 5
 194 388 194.107644522 382.719613184 213 379 c 4
 195.245144005 371.64 181 359.64 181 335 c 4
 181 329 182.840180074 319.754776842 184 314 c 4
 187 259.56 189 228.296 232 168 c 5
 188.903013028 55.7000543201 351.796790802 406.95098055 304 306 c 5
 304 303 l 6
 294.118016939 333.057570842 272.368384097 349.457421936 251 367 c 4
 249.3125 376 244.8125 381.25 242 381 c 5
 241 394 l 5
 255.142857143 394 279.562833082 391 295 391 c 7
 338.972027972 391 385.692307692 393.4 426 397 c 5
 428 384 l 5
 429.12 380.722222222 432.495272494 379.139401179 432 365 c 4
 423.333111973 356.999412304 416 348.421052632 416 330 c 4
 416 324.230769231 417.059249801 319.237729214 418 315 c 4
 423.848101266 268.198380567 439.632911392 223.599190283 469 179 c 5
 494 204.768558952 512.270874444 236.753301442 518 274 c 4
 523.604646115 288.949031799 529 304 529 322 c 4
 529 367.75 522.625 375.25 511 378 c 5
 513 396 l 5
 536 392 565 391 588 391 c 7
 605 391 625 394 642 394 c 5
 645 383 l 5
EndSplineSet
Fore
SplineSet
645 383 m 1
 631 372.5 602.279633394 327.022303706 587 298 c 0
 557.991850151 242.901601161 519.04826387 188.31471527 489 129 c 0
 465.393448877 82.4011061525 447.381480988 32.8576409096 424 -14 c 0
 418.597950222 -24.8259741471 407.937716213 -17.0188614156 406 -10 c 0
 380 84.1780821918 351 177.414383562 316 265 c 1
 290.789220961 216.63190184 280.374861389 193.809849172 243 119 c 0
 220.821603756 74.6075282628 199.328194237 33.1800816397 176 -15 c 0
 173.235281126 -20.7100168014 159.956281877 -24.0043796091 159 -14 c 0
 154.161290323 36.6213592233 113.664816926 145.794155376 84 223 c 0
 52.8423661185 304.091059699 33.6070715663 339.207424455 15 364 c 0
 9.53209332591 371.285589718 3.07142857143 378.142857143 -2 381 c 1
 -1 395 l 1
 25 393 52.9214674638 391 85 391 c 3
 127.221238913 391 169.395604396 393 213 398 c 1
 214 382 l 1
 213 381 211.18401586 380.389828275 209 379 c 0
 198 372 181 359.64 181 335 c 3
 181 329 181.216020164 319.805915069 182 314 c 0
 189.5525 258.068493151 202 211 235 164 c 1
 243 176 295.291992188 286.478515625 302 305 c 1
 301 309 l 1
 294 327 273.046292702 354.000990732 259 367 c 0
 249.132478414 376.131804902 245.3125 378.25 242 381 c 1
 241 394 l 1
 264.30952381 394 304.557261931 391 330 391 c 3
 371.286713287 391 415.153846154 393.4 453 397 c 1
 455 384 l 1
 452 380.722222222 445 379.139401179 432 365 c 0
 424.0167954 356.317097497 416 348.421052632 416 330 c 3
 416 321.538461538 416.761250924 314.21505451 418 308 c 0
 426.848101266 263.607287449 439.632911392 221.303643725 469 179 c 1
 492.980408163 206.768558952 508.12405734 237.227925517 520 274 c 0
 526.00626035 292.597483944 529 312.125 529 335 c 3
 529 370.129464286 510.625 375.888671875 499 378 c 1
 501 396 l 1
 524 392 556 391 579 391 c 3
 596 391 625 394 642 394 c 1
 645 383 l 1
EndSplineSet
Substitution2: "case-1" W
Substitution2: "pcap-1" w.pcap
Substitution2: "smcp-1" w.smcp
EndChar
StartChar: x
Encoding: 120 120 23
Width: 421
VWidth: 1159
Flags: HW
AnchorPoint: "Top" 195 434 basechar 0
LayerCount: 2
Back
SplineSet
7 18 m 5
 34.5348837209 37 44 44 44 44 c 6
 169 176 l 5
 149.538461538 221.298261571 139.359515874 259.856950511 103 305 c 4
 61.7179533021 356.254738472 51.935483871 377.606951872 15 380 c 5
 14 396 l 5
 30 394 51 394 67 394 c 5
 110 394 155 395 197 398 c 5
 197 384 l 5
 245.433333333 383.615384615 220 382.615384615 220 366 c 4
 220 361.909090909 220.594216019 359.903819524 221 357 c 4
 226.827586207 315.297371556 235.413793103 287.058693062 243 260 c 5
 252 271 l 6
 265.339485559 287.303815683 281 307.292682927 281 333 c 4
 281 375.307692308 227 373 258 377 c 5
 258 395 l 5
 279 394 306 392 327 392 c 5
 354 392 387 394 413 396 c 5
 413 379 l 5
 375.21875 362.54456676 362.148856457 331.742730949 339 311 c 4
 311.844036697 286.666666667 281.450795327 258.975609756 259 232 c 5
 288.714285714 171.284883721 317.403013484 120.054566574 350 55 c 4
 363.686496332 27.685539924 368.480729167 23.5515220905 413 17 c 5
 410 1 l 5
 380 0.80078125 344 0 312 0 c 5
 286 0 234 -2 208 -2 c 5
 206 12 l 5
 151.024414062 11.533203125 223 15.8 223 31 c 4
 223 33 221.010702713 34.6805925473 221 37 c 4
 220.826086957 74.6890625 203.695652174 110.023046876 182 143 c 5
 161.238095238 128.886276533 151.417036033 110.91751319 138 83 c 4
 135.357559244 77.5017383514 132 69 132 59 c 4
 132 22.6538461538 168.916666667 19.9230769231 151 14 c 5
 152 -1 l 5
 132 -1 105 2 85 2 c 5
 60 2 31 3 8 0 c 5
 7 18 l 5
EndSplineSet
Fore
SplineSet
7 18 m 1
 34.5348837209 37 44 44 44 44 c 2
 169 176 l 1
 149.538461538 221.298261571 124 266 103 305 c 0
 71.7984118719 362.945806524 51.935483871 377.606951872 15 380 c 1
 14 396 l 1
 30 394 51 394 67 394 c 1
 110 394 187 395 229 398 c 1
 229 384 l 1
 223 379 220 369.615384615 220 366 c 0
 220 361.909090909 220.59375 359.904296875 221 357 c 0
 226.827148438 315.297851562 235.413793103 287.058693062 243 260 c 1
 252 271 l 2
 265.339485559 287.303815683 281 307.292682927 281 333 c 3
 281 364 264 372 258 377 c 1
 258 395 l 1
 279 394 306 392 327 392 c 1
 354 392 387 394 413 396 c 1
 413 379 l 1
 375.21875 362.54456676 362.148856457 331.742730949 339 311 c 0
 311.844036697 286.666666667 281.450795327 258.975609756 259 232 c 1
 288.714285714 171.284883721 317.403013484 120.054566574 350 55 c 0
 363.686496332 27.685539924 368.480729167 23.5515220905 413 17 c 1
 410 1 l 1
 380 0.80078125 344 0 312 0 c 1
 286 0 234 -2 208 -2 c 1
 206 12 l 1
 209.024414062 11.533203125 221 15.7998046875 221 31 c 0
 221 33 221.010702713 34.6805925473 221 37 c 0
 220.826086957 74.6890625 197.6953125 111.0234375 183 144 c 1
 172 132 157.416992188 110.91796875 144 83 c 0
 141.357421875 77.501953125 138 69 138 59 c 0
 138 22.654296875 158.916992188 19.9228515625 167 14 c 1
 168 -1 l 1
 148 -1 105 2 85 2 c 1
 60 2 31 3 8 0 c 1
 7 18 l 1
EndSplineSet
Substitution2: "case-1" X
Substitution2: "pcap-1" x.pcap
Substitution2: "smcp-1" x.smcp
EndChar
StartChar: y
Encoding: 121 121 24
Width: 429
VWidth: 1159
Flags: HMW
AnchorPoint: "Top" 208.5 425.3 basechar 0
LayerCount: 2
Back
SplineSet
93 -343 m 5
 93 -343 51 -342 45 -342 c 4
 30 -342 11 -342 -4 -343 c 5
 -10 -329 l 5
 24.666666667 -267.854523383 87 -219.11295681 166 -45 c 5
 141.277777778 51.461538462 110.041876761 147.248919612 77 241 c 4
 47.3321962634 320.975159653 22.6979017354 372.979893692 -16 379 c 5
 4.0436341268 378.689161908 -9.11330631737 383.728036082 -1 381 c 5
 -1 392 l 5
 20 392 47 391 68 391 c 4
 104 391 145 393 179 395 c 5
 179 383 l 5
 186.394292882 386.608613899 190.93693604 380.342964638 228 381 c 5
 201.57145791 375.070058947 189 368.296296296 189 332 c 4
 189 314.714285714 192.458414498 293.74341993 196 277 c 4
 196 214 208 156 233 101 c 5
 258 112 250.7136571 117.462557024 291 239 c 4
 297.322337472 257.107822935 309 274.675675676 309 299 c 4
 309 358.076923077 288 382 269 381 c 5
 276 400 l 5
 306 394 343 389 376 389 c 4
 394 389 419 392 437 392 c 5
 441 381 l 5
 411 377 410.201503738 371.403007476 360 276 c 4
 270.678886848 111.82258511 244.475828282 50.255869246 232 28 c 4
 177.144797622 -82.5880146229 124 -200 93 -343 c 5
EndSplineSet
Fore
SplineSet
93 -343 m 1
 93 -343 51 -342 45 -342 c 0
 30 -342 11 -342 -4 -343 c 1
 -10 -329 l 1
 24.666666667 -267.854523383 87 -219.11295681 166 -45 c 1
 141.277777778 51.461538462 111.572761171 147.802602618 77 241 c 0
 47.3321962634 320.975159653 28 371 2 379 c 1
 -1 380 -3 380 -5 381 c 1
 -5 392 l 1
 16 392 94 391 115 391 c 0
 151 391 196 393 230 395 c 1
 230 383 l 1
 226 382 220 382 212 380 c 1
 203 377 189 368.296296296 189 332 c 0
 189 314.714285714 190.436523438 293.920898438 193 277 c 0
 198 244 208 156 233 101 c 1
 238.172413793 112 256 127 293 239 c 0
 300.444138588 261.5336087 309 294 309 316 c 0
 309 362.829268293 291 381 272 386 c 5
 276 400 l 1
 306 394 343 389 376 389 c 0
 394 389 419 392 437 392 c 1
 441 381 l 1
 411 377 411.520304129 370.697323486 360 276 c 0
 270.678886848 111.82258511 243.337646067 50.8566793057 232 28 c 0
 177.144797622 -82.5880146229 124 -200 93 -343 c 1
EndSplineSet
Substitution2: "case-1" Y
Substitution2: "pcap-1" y.pcap
Substitution2: "smcp-1" y.smcp
EndChar
StartChar: z
Encoding: 122 122 25
Width: 441
VWidth: 1159
Flags: HMW
AnchorPoint: "Top" 213.5 441 basechar 0
LayerCount: 2
Back
SplineSet
360 -2 m 4
 291 -1.33226762955e-015 217.971836572 3 147 -1 c 5
 104.011626335 -3 59 -5 18 -7 c 5
 16 5 l 5
 100 99.180327868 177 218.114754098 230 352 c 5
 266.370967742 359 275.629032258 360 299 360 c 5
 243.19205298 360 195.832365121 352.196878042 140 335 c 4
 78.3841074583 323.30752875 20 287 21 294 c 5
 8 306 l 5
 20 331 35 364 37 395 c 5
 87 389 143 386 198 386 c 7
 272 386 345 389 416 393 c 5
 419 386 l 5
 350.755102041 271.313351498 273.268707483 183.267029972 210 41 c 5
 248.333333333 41 286.666666667 33 325 33 c 5
 329.635309451 33 311.158442516 40.7900407561 336 73 c 4
 366.120928223 91.3695416546 388.739816057 111.264622343 409 142 c 4
 411.625 135.631578947 414.25 128.684210526 416 120 c 5
 433 120 l 5
 433 97 413 30 401 -4 c 5
 387 -3 374.005877414 -1.59437325838 360 -2 c 4
EndSplineSet
Fore
SplineSet
360 -2 m 0
 291 -1.33226762955e-015 217.971836572 3 147 -1 c 1
 104.011626335 -3 59 -5 18 -7 c 1
 16 5 l 1
 100 99.180327868 182 227.115234375 235 361 c 1
 237 364 232 363 226 363 c 3
 222.928710938 363 200.83203125 361.197265625 145 344 c 0
 85.0634765625 325.5390625 30 281 21 283 c 1
 8 295 l 1
 20 320 35 364 37 395 c 1
 87 389 143 386 198 386 c 3
 272 386 345 389 416 393 c 1
 419 386 l 1
 350.755102041 271.313351498 273.268554688 183.266601562 210 41 c 1
 219 40 234 39 248 39 c 3
 252.635742188 39 301.272088542 51.8208447169 336 73 c 0
 366.120928223 91.3695416546 397.355494598 120.033241897 409 142 c 0
 410.688697146 145.185639959 414 144 417 145 c 1
 434 145 l 1
 434 122 413 30 401 -4 c 1
 387 -3 374.005877414 -1.59437325838 360 -2 c 0
EndSplineSet
Substitution2: "case-1" Z
Substitution2: "pcap-1" z.pcap
Substitution2: "smcp-1" z.smcp
EndChar
StartChar: braceleft
Encoding: 123 123 335
Width: 266
VWidth: 1515
Flags: HW
LayerCount: 2
Fore
SplineSet
239.5 716.3 m 1
 239.5 716.3 239.5 698.609880859 239.5 687.299804688 c 1
 163.477355932 686.452212718 178.5 625.169321592 178.5 575.700195312 c 3
 178.5 491.03341262 202 489.80019613 202 393 c 1
 202 348.546521489 105.342316665 247.530658468 80.4239267486 243.30967588 c 1
 107.793490193 238.365533717 202 136.92548031 202 93.599609375 c 1
 202 -3.20145246986 178.5 -4.43368573641 178.5 -89.1005859375 c 3
 178.5 -136.564784205 161.477355932 -199.852600818 239.5 -200.700195312 c 1
 239.5 -229.7 l 1
 169.237486486 -233.096000084 101.5 -190.991999045 101.5 -39.7001953125 c 3
 101.5 20.2272067041 124 52.5951077933 124 99.599609375 c 3
 124 168.330469778 88.3750365854 222.782154887 11.5 235.299804688 c 1
 11.5 251.299804688 l 1
 88.3750365854 263.816485145 124 318.269405761 124 387 c 3
 124 434.003934096 101.5 466.371888713 101.5 526.299804688 c 3
 101.5 677.59196021 169.237486486 719.696003491 239.5 716.3 c 1
EndSplineSet
Position2: "cpsp-1" dx=0 dy=0 dh=50 dv=100
Position2: "'case' vertical ajustments for all-caps-1" dx=0 dy=90 dh=0 dv=0
EndChar
StartChar: asciitilde
Encoding: 126 126 338
Width: 394
Flags: HW
HStem: 190 64<164.87 319.051> 219 64<79.4558 233.909>
LayerCount: 2
Fore
SplineSet
18 193 m 1x40
 48 239 103 283 111 283 c 3x40
 154 283 245 254 287 254 c 3
 297 254 327 276 342 300 c 1
 376 287 l 1
 351 243 304 190 291 190 c 3x80
 250 190 145 219 106 219 c 3
 93 219 64 195 50 180 c 1
 18 193 l 1x40
EndSplineSet
Position2: "cpsp-1" dx=0 dy=0 dh=50 dv=100
Position2: "'case' vertical ajustments for all-caps-1" dx=0 dy=90 dh=0 dv=0
EndChar
StartChar: registered
Encoding: 174 174 875
Width: 322
Flags: HW
HStem: 436.027 19.664<114.861 203.378> 487.43 10.617<226.396 236.186> 491.865 12.635<96.6738 110.057 140.924 155.167> 557.123 15.137<136.812 158.537> 625 13.797<94.248 109.49 131.014 172.693> 666.746 19.664<118.426 204.315>
VStem: 33.3066 19.9532<514.336 603.032> 111.938 24.874<573.061 622.834> 184.873 26.871<575.71 619.086> 268.543 19.957<519.406 606.227>
LayerCount: 2
Fore
SplineSet
136.812 573.061 m 1x9fc0
 144.483 572.853 148.341 572.26 155.922 572.26 c 1
 174.942 572.26 184.873 582.532 184.873 596.451 c 1
 185 610.982 172.5 624.555 150.135 625 c 1
 145.347 624.424 140.642 623.733 138.609 613.199 c 0
 135.957 602.245 136.326 585.514 136.812 573.061 c 1x9fc0
94.248 634.855 m 1
 103.803 634.649 110.574 634.441 121.293 634.441 c 1
 136.729 634.441 143.624 638.797 161.182 638.797 c 1
 188.529 638.797 211.744 622.057 211.744 600.965 c 1
 211.744 581.917 198.013 568.822 182.004 562.094 c 1
 204.589 528.938 216.88 502.074 237.242 498.047 c 1
 234.143 487.43 l 1xdfc0
 200.43 489.5 175.242 518.991 154.674 557.123 c 1
 147.298 556.831 144.047 557.964 136.812 558.24 c 1
 137.69 541.253 138.236 528.624 139.896 514.508 c 0
 140.762 506.823 145.13 505.878 156.072 504.412 c 1
 154.24 491.215 l 1
 135.611 494.882 115.427 495.296 96.6738 491.865 c 1
 94.9902 504.5 l 1xbfc0
 106.3 505.109 110.084 506.588 111.186 514.037 c 1
 113.454 557.586 113.861 572.361 111.938 610.604 c 1
 110.111 620.523 107.277 622.811 94.248 623.168 c 1
 94.248 634.855 l 1
160.9 666.746 m 0
 105.022 666.746 53.2598 621.182 53.2598 559.102 c 0
 53.2598 497.068 102.777 455.691 160.9 455.691 c 0
 216.781 455.691 268.543 501.256 268.543 563.336 c 0
 268.543 621.148 218.936 666.746 160.9 666.746 c 0
160.902 686.41 m 0
 229.535 686.41 288.5 632.481 288.5 563.625 c 0
 288.5 489.99 227.167 436.027 160.902 436.027 c 0
 92.36 436.027 33.3066 485.127 33.3066 558.812 c 0
 33.3066 632.447 94.6389 686.41 160.902 686.41 c 0
EndSplineSet
EndChar
StartChar: paragraph
Encoding: 182 182 75
Width: 605
VWidth: 1159
UnlinkRmOvrlpSave: 1
Flags: HW
LayerCount: 2
Back
SplineSet
530 741 m 5
 532 663 l 5
 491.465116279 661.1875 360.493883306 666.354968639 305 646 c 4
 233.888933723 614.63007775 265 674.061195579 265 206 c 7
 265 -11.6 345.510959123 61.2420752531 303 81 c 4
 298.022727274 78.238095238 382.25 69.1666666667 449 68 c 5
 434 -8 l 5
 236.281690141 35.3043478261 198.127690704 69.4064209223 144 131 c 4
 86 197 68.7183379872 279.143475457 41 343 c 4
 36.5415585383 353.271199404 34.3184777375 362.45888078 34.3184777375 371.792270339 c 4
 34.3184777375 380.414173878 36.2155452281 389.160417592 40 399 c 4
 70 477 121.142297883 586.795128918 222 657 c 4
 324 728 530 741 530 741 c 5
EndSplineSet
Fore
SplineSet
306 658 m 1
 355 667 l 1
 344 59 l 1
 298 77 l 1
 306 658 l 1
530 741 m 1
 532 663 l 1
 491.465116279 661.1875 359.080778383 669.857184289 305 646 c 0
 233.888933723 614.63007775 265 674.061195579 265 206 c 3
 265 93.9955358033 278 89 303 81 c 0
 308.421407208 79.2651496934 382.25 69.1666666667 449 68 c 1
 434 -8 l 1
 236.281690141 35.3043478261 198.127690704 69.4064209227 144 131 c 0
 86 197 68.718337988 279.143475457 41 343 c 0
 36.5415585383 353.271199404 34.3184777375 362.45888078 34.3184777375 371.792270339 c 0
 34.3184777375 380.414173878 36.2155452277 389.160417592 40 399 c 0
 70 477 121.142297883 586.795128918 222 657 c 0
 324 728 530 741 530 741 c 1
EndSplineSet
Position2: "cpsp-1" dx=0 dy=0 dh=50 dv=100
EndChar
StartChar: AE
Encoding: 198 198 318
Width: 1048
Flags: HW
HStem: -9 35<449 500.854> -5 39<22.5469 80.8864> 3.06988 37.3024<636.857 887.73> 247 42<296.875 529.631> 334 36<608 868.393> 661 31<394.871 460.439>
VStem: 525 93<373.564 639.016> 529.631 78.3691<90.5 243.369 285.991 334 370 605.156> 892 36<248.75 306.348 394.846 442.094> 933 30<539 620.59> 993 28<152.034 171.75>
AnchorPoint: "Ogonek" 560 1 basechar 0
AnchorPoint: "Top" 564 699 basechar 0
AnchorPoint: "Bottom" 560 -15 basechar 0
LayerCount: 2
Back
SplineSet
431 704 m 1
 480 704 560 703 644 703 c 3
 782 703 928 704 955 708 c 1
 960 706 961 704 961 698 c 3
 961 686 953 656 944 562 c 1
 920 563 l 1
 919 558 908.860172909 587.571525658 871 613 c 0
 804 658 750 667 715 667 c 3
 694 667 679.964639392 664.192927878 674 663 c 0
 669 662 665.375323287 661.206581014 664 656 c 0
 650 603 641 441 641 381 c 1
 674 377 754.876139932 381.578726962 819 395 c 0
 862 404 879 435 889 454 c 1
 909 451 l 1
 906 426 904 386 904 345 c 3
 904 308 906 271 908 246 c 1
 882 245 l 1
 884 285 856.930370835 296.854999776 811 319 c 0
 755 346 688 343 641 339 c 1
 642 270 642.43583193 137.692504211 660 85 c 0
 662 79 665 78 667 74 c 0
 675 58 707 36 741 36 c 3
 804 36 864.000000001 72.9999999993 921 116 c 0
 949.348656615 137.385828675 979 166 995 184 c 1
 1015 177 l 1
 1004 141 969 19 958 -6 c 1
 949 -3 827 0 700 0 c 3
 585 0 465 -2 421 -9 c 1
 417 12 l 1
 443 18 460.035464708 27.9905577102 472 73 c 0
 493 152 503 264 503 376 c 3
 503 455 495.492530655 530.059754761 487 598 c 0
 479 662 465 677 431 686 c 1
 431 704 l 1
498 651 m 1
 416 521 345 401 277 284 c 1
 339 279 463 280 519 280 c 1
 520 312 520 344 520 376 c 0
 520 468 518.811874877 548.069376349 512 623 c 0
 511 634 506 643 498 651 c 1
384 704 m 1
 433 704 571 703 655 703 c 0
 793 703 924.657518288 718.136992685 950 708 c 0
 955 706 956 704 956 698 c 0
 956 686 948 656 939 562 c 1
 920 563 l 1
 924 609 925.066224425 640.128155025 900 653 c 0
 863 672 805 680 740 680 c 0
 690 680 649.250210555 674.850042111 615 668 c 0
 610 667 605.600754955 666.063506047 605 661 c 0
 598 602 594 440 594 374 c 1
 644 372 799.181368591 372.720210553 853 381 c 0
 879 385 889 430 895 453 c 1
 912 451 l 1
 909 426 907 386 907 345 c 0
 907 308 909 271 911 246 c 1
 891 245 l 1
 890 294 879.018654193 331.113242341 849 336 c 0
 763 350 667 348 594 346 c 1
 594 267 593.133321159 113.200073046 603 54 c 0
 604 48 606.269336919 44.7556061559 610 43 c 0
 627 35 686 25 752 25 c 0
 821 25 905 36 950 71 c 0
 977 92 1001 126 1017 167 c 1
 1034 161 l 1
 1023 125 988 19 977 -6 c 1
 968 -3 838 0 711 0 c 0
 596 0 476 -2 432 -9 c 1
 429 10 l 1
 463 16 499.415205409 18.9415258922 504 53 c 0
 511 105 516 171 518 242 c 1
 456 246 324 248 256 247 c 1
 223 190 189.510584762 134.280554104 157 77 c 0
 136 40 168 26 222 11 c 1
 219 -10 l 1
 181 -5 126 -1 77 -1 c 0
 55 -1 33 -2 16 -4 c 1
 14 16 l 1
 67 22 88.8077265851 48.132333721 104 70 c 0
 170 165 373 493 469 669 c 1
 441 680 406 685 384 690 c 1
 384 704 l 1
EndSplineSet
Fore
SplineSet
332 704 m 1
 381 704 571 703 655 703 c 0
 793 703 924.657518288 717.136992685 950 708 c 1
 955 706 956 704 956 698 c 0
 956 686 948 656 939 562 c 1
 915 563 l 1
 909 571 887.750175356 600.580250677 864 615 c 0
 808 649 762.038447325 667 710 667 c 3
 693.115942029 667 668.050608063 662.94807766 666 660 c 0
 665.250568146 658.922571628 663.441662587 655.143893266 661 643 c 0
 649 583.316602317 642 447.764478764 642 381 c 1
 692 377 770.911154201 381.347280121 825 395 c 0
 856.694107124 403 884 432 891 453 c 1
 912 451 l 1
 909 426 907 386 907 345 c 0
 907 308 909 271 911 246 c 1
 884 245 l 1
 884.865671642 270.72972973 877.689104403 290.431517796 826 313 c 0
 755 344 718.754285714 344.2 642 339 c 1
 642 260 641.57511883 143.600123437 663 85 c 0
 668.704241071 69.3980823864 671.644124081 66.1050678529 682 56 c 0
 694.243902439 44.0526315789 720.414634146 36 752 36 c 3
 806.147945483 36 867.243035756 56.6609524148 942 118 c 0
 981 150 1006 171 1013 185 c 1
 1034 177 l 1
 1023 137.550898204 988 21.3952095808 977 -6 c 1
 968 -3 838 0 711 0 c 0
 596 0 476 -2 432 -9 c 1
 428 11 l 1
 444.509803922 12.1304347826 464 23 481 81 c 0
 489.445299417 109.813374481 503.153846154 158.551020408 505 231 c 1
 443 238 330 239 262 235 c 1
 218.526315789 139.815533981 193 78.1327459504 193 63 c 3
 193 50.9529634008 206 23 223 19 c 1
 219 -10 l 1
 181 -5 126 -1 77 -1 c 0
 55 -1 33 -2 16 -4 c 1
 14 23 l 1
 67 29 115.708451189 88.2239443976 134 116 c 0
 161 157 338 467 433 649 c 1
 398 671 354 681 332 691 c 1
 332 704 l 1
474 613 m 1
 390 486 356 416 295 295 c 1
 357 287 451 292 507 293 c 1
 508 325 508.507932527 344.000250796 508 376 c 0
 507 439 501.600974786 492.894938571 489 568 c 0
 486.174596983 584.84013108 480 604 474 613 c 1
EndSplineSet
Position2: "cpsp-1" dx=0 dy=0 dh=50 dv=100
Substitution2: "c2pc-1" ae.pcap
Substitution2: "c2sc-1" ae.smcp
EndChar
StartChar: Thorn
Encoding: 222 222 317
Width: 594
Flags: HW
HStem: -9 35<33 79.7574> 178 45<189.142 391.092> 519 42<188.8 373.894> 661 31<15.871 81.5947>
VStem: 103 86.1416<54.7783 182.945 226.958 514.181 554.895 640.551> 465 87<299.251 431.707>
LayerCount: 2
Fore
SplineSet
300 652.244140625 m 1
 269.541015625 652.76953125 239.069335938 648.46484375 211 641 c 0
 193.498046875 636.344726562 190 622 189 604 c 0
 188.240234375 587.23828125 187.66015625 570.91015625 187.219726562 554.89453125 c 1
 223.961914062 557.525390625 259.918945312 561 309 561 c 3
 442 561 552 478 552 375 c 3
 552 258.262695312 417.193359375 178 292 178 c 3
 251.719726562 178 228.8125 181.861328125 189.141601562 182.9453125 c 1
 190.319335938 145.3203125 192.446289062 106.4140625 198 75 c 0
 201.80078125 58.8486328125 209.211914062 38.1826171875 306 36.1611328125 c 1
 302 -10.6103515625 l 1
 253.839897611 0.765337346976 217.431629665 6.17477902914 177.51514646 6.17477902914 c 3
 138.247715333 6.17477902914 95.5852303172 0.939824883774 35 -9 c 1
 25 26 l 1
 78 36 103 49 103 77 c 1
 104.6 108.20234375 105.4 187.70734375 105.4 277.3266875 c 3
 105.4 411.755703125 103.6 568.941992187 100 620 c 0
 99 647 85 647 12 661 c 1
 17 692 l 1
 64.3137479468 686.877828443 116.634803726 684.064503692 169.426581172 684.064503692 c 3
 212.805530712 684.064503692 256.502306442 685.964030206 298 690.04296875 c 1
 300 652.244140625 l 1
189.073242188 226.958007812 m 1
 228.5625 225.396484375 249.3671875 223 290 223 c 3
 436 223 465 311 465 364 c 3
 465 424 404 519 288 519 c 3
 266.518554688 519 216.749023438 516.599609375 187.26171875 510.466796875 c 1
 185.9765625 417.948242188 187.340820312 313.534179688 189.073242188 226.958007812 c 1
EndSplineSet
Position2: "cpsp-1" dx=0 dy=0 dh=50 dv=100
Substitution2: "c2pc-1" thorn.pcap
Substitution2: "c2sc-1" thorn.smcp
EndChar
StartChar: ae
Encoding: 230 230 321
Width: 605
Flags: HW
HStem: -9 43<55.5195 159.444> -8 50<352.222 471.185> 370 52<125.933 201.869 343.725 424.068>
VStem: 20.5195 62<43.6209 136.135> 33.5195 77<309.417 362.65> 232.563 66.1328<101.524 187.689>
AnchorPoint: "Top" 300.52 465 basechar 0
AnchorPoint: "Bottom" 291.52 -15 basechar 0
LayerCount: 2
Back
SplineSet
361 370 m 7
 279.723572306 370 341.636308462 245.518696176 341 233 c 5
 380 256 l 6
 405.258608607 264.295162959 448.85721528 270.028441692 432 314 c 4
 420.400109946 352.388969296 385.989755137 370 361 370 c 7
339 216 m 5
 339 145.457281566 361.441831497 49 487 49 c 7
 530.17901264 49 561.040650406 74 558 70 c 5
 565 60 l 5
 525.441860465 27 464.220930233 -7 403 -7 c 7
 341.915199416 -7 298.275725993 10.7331268437 272.6640625 47.404296875 c 5
 207.798863207 6.0818684516 162.188347406 -17 91 -17 c 7
 41 -17 32 17 32 64 c 7
 32 87 38.8470368745 106.388147498 42 119 c 4
 43 123 49.2310901607 129.4957122 54 132 c 4
 115.716979572 162.005064126 162.387474798 175.153395433 233 197 c 5
 233.004099973 203.903946545 233.366102865 207.37216319 233.76953125 213.740234376 c 0
 235.59519043 251.196641144 212.838760846 310.234723586 222 308 c 4
 210.269661101 320.002864949 163.4 358 110 358 c 7
 87 358 153 365 153 352 c 7
 153 343 154 341 156 336 c 5
 55 293 l 5
 51 303 49 310 49 320 c 7
 49 334 56.1350850374 344.813531864 70 355 c 4
 119 391 186 408 211 408 c 7
 240.477905035 408 294.542009866 363.84182747 320.98828125 368.537109376 c 5
 359.964597366 377.922266718 388.0129415 396 423 396 c 7
 482.076923077 396 525.008719162 355.784305508 551 309 c 4
 556 300 557 296 575 287 c 5
 574 277 l 5
 487.90625 256.122807018 423.28125 240.561283581 339 216 c 5
229.068359376 176.376953124 m 1
 236.803693992 185.61015989 225.077828757 181.863273401 204 172 c 4
 150 146 134 111 134 84 c 7
 134 67 159 33 191 33 c 7
 190.851106233 33 241.19247952 27.2350773364 260.087890624 66.916015625 c 5
 242.240100224 93.595405688 228.018381138 150.741679137 229.068359376 176.376953124 c 1
EndSplineSet
Fore
SplineSet
375 365 m 3
 353.723632812 365 341.636308462 318.518696176 341 233 c 1
 380 251 l 2
 402.636856898 261.447780107 444.85721528 278.028441692 432 314 c 0
 418.502293971 351.763505462 396.990234375 365 375 365 c 3
339 216 m 1
 339 145.457281566 361.441831497 49 487 49 c 3
 530.17901264 49 561.040650406 74 558 70 c 1
 565 60 l 1
 525.441860465 27 464.220930233 -7 403 -7 c 3
 341.915199416 -7 298.275725993 10.7331268437 272.6640625 47.404296875 c 1
 207.798863207 6.0818684516 162.188347406 -17 91 -17 c 3
 41 -17 32 17 32 64 c 3
 32 87 38.8470368745 106.388147498 42 119 c 0
 43 123 49.2310901607 129.4957122 54 132 c 0
 115.716979572 162.005064126 162.387474798 175.153395433 233 197 c 1
 233.004099973 203.903946545 233.366102865 207.37216319 233.76953125 213.740234376 c 0
 235.59519043 251.196641144 239 303 221 323 c 0
 209.772460938 335.474609375 177.033203125 364 162 364 c 3
 159 364 153 365 153 352 c 3
 153 343 156 335 158 330 c 1
 57 287 l 1
 53 297 49 310 49 320 c 3
 49 334 56.1350850374 344.813531864 70 355 c 0
 119 391 186 408 211 408 c 3
 240.477905035 408 294.541992188 369.841796875 320.98828125 359.537109375 c 1
 348.96484375 376.921875 388.0129415 396 423 396 c 3
 482.076923077 396 525.008719162 355.784305508 551 309 c 0
 556 300 557 296 575 287 c 1
 574 277 l 1
 487.90625 256.122807018 423.28125 240.561283581 339 216 c 1
229.068359375 181.376953125 m 1
 223.803710938 179.610351562 215 177 204 172 c 0
 149.438736206 147.199425548 134 111 134 84 c 3
 134 67 159 33 191 33 c 3
 190.851106233 33 238.19247952 32.2350773364 260.087890624 66.916015625 c 1
 242.240100224 93.595405688 228.018554688 155.741210938 229.068359375 181.376953125 c 1
EndSplineSet
Substitution2: "pcap-1" ae.pcap
Substitution2: "case-1" AE
Substitution2: "smcp-1" ae.smcp
EndChar
StartChar: eth
Encoding: 240 240 452
Width: 471
UnlinkRmOvrlpSave: 1
Flags: HW
HStem: -5 49<172.89 302.553> 359 46<174.141 312.607> 700 27.4531<77.2373 85.8109>
VStem: 28 64<133.432 266.724> 366 69<130.061 336.627>
LayerCount: 2
Fore
SplineSet
354 309 m 1
 322 347 236.429148452 359 222 359 c 3
 198 359 92 331.004882812 92 226 c 3
 92 129.916992188 150.98046875 44 252 44 c 3
 332.374023438 44 366 128.150390625 366 202 c 3
 366 372.223208516 223 618 65 700 c 1
 69.0966796875 706.58203125 77.2373046875 727.453125 77.2373046875 727.453125 c 1
 260.283740169 675.166289781 435 439.719447105 435 235 c 3
 435 113.962890625 360.284179688 -5 193 -5 c 3
 102.911132812 -5 28 65.923828125 28 171 c 3
 28 326.389648438 176 405 264 405 c 3
 280.100844176 405 312.529887067 398.835864585 329 392 c 1
 354 309 l 1
EndSplineSet
Refer: 1969 58113 N 0.284488 0.177084 -0.547233 0.872389 104.756 489.958 2
Substitution2: "pcap-1" eth.pcap
Substitution2: "case-1" Eth
Substitution2: "smcp-1" eth.smcp
EndChar
StartChar: Aogonek
Encoding: 260 260 2370
Width: 719
Flags: HW
HStem: -256.515 56.804<448.75 524.105> -4 20<26 54.2745 178.316 229.2 656.807 697> 247 38<229 455>
VStem: 377.549 59.298<-188.305 -85.422>
AnchorPoint: "Top" 380 699 basechar 0
LayerCount: 2
Fore
SplineSet
229 285 m 1
 282 279 406 280 455 280 c 1
 417 380 384 463 342 565 c 9
 342 565 266 376 229 285 c 1
515 16.6885 m 0
 528.925998903 22.9005233767 534.779439729 33.6231896713 534.779439729 46.6462357507 c 0
 534.779439729 50.8797090044 534.160882739 55.3562727814 533 60 c 0
 518 123 492 179 469 242 c 1
 409 246 265 249 213 247 c 1
 185 181 164 137 144 77 c 0
 130 36 168 26 232 11 c 1
 229 -10 l 1
 192.147570829 -5.30969083274 139.144528041 -0.558471132618 89.7064751762 -0.558471132618 c 0
 67.096720831 -0.558471132618 45.2326031914 -1.55221413928 26 -4 c 9
 23 16 l 1
 69 22 81 47 92 70 c 0
 142 170 285 513 351 679 c 0
 355 690 358 695 360 710 c 9
 380 708 l 1
 382 699 385 693 389 683 c 0
 466 462 593 130 632 54 c 0
 648 23 665 20 699 14 c 9
 697 -4 l 1
 671.333580765 -1.22010325649 638.859430934 0.533025399011 608.282091152 0.533025399011 c 0
 569.193650431 0.533025399011 533.20492022 -2.33188525601 518.5 -9.5791 c 0
 451.598564924 -42.5509937205 436.847 -108.772 436.847 -135.711 c 3
 436.847 -167.727 452.847 -199.711 492.847 -199.711 c 3
 518.847 -199.711 534.847 -190.711 553.346 -168.516 c 9
 560.145 -174.916 l 1
 549.847 -222.711 511.945 -256.515 460.348 -256.515 c 3
 417.842 -256.515 377.549 -227.716 377.549 -173.14 c 3
 377.549 -133.062 392.911 -35.0759 515 16.6885 c 0
EndSplineSet
Position2: "cpsp-1" dx=0 dy=0 dh=50 dv=100
Substitution2: "c2pc-1" aogonek.pcap
Substitution2: "c2sc-1" aogonek.smcp
EndChar
StartChar: eogonek
Encoding: 281 281 252
Width: 414
VWidth: 1159
UnlinkRmOvrlpSave: 1
Flags: W
HStem: -293.658 42.1279<263.732 329.689> -7.35581 36.779<186.726 300.798> 395.112 21.0166<177.36 243.956>
VStem: 35.7282 64.1006<115.887 236.107 247.996 296.702> 186.912 56.0879<-231.275 -115.258>
LayerCount: 2
Back
SplineSet
366.630859375 52.54296875 m 5xd0
 276.377929688 -47.1502175719 262.771484375 -94.5674013864 262.771484375 -186 c 7
 262.771484375 -236.143554688 288.107421875 -265.872070312 320.166015625 -265.872070312 c 7
 339.918945312 -265.872070312 363.635742188 -255.18359375 387.97265625 -231.599609375 c 13
 387.97265625 -231.599609375 399.081054688 -241.926757812 401.771484375 -250 c 5
 374.767578125 -302.788085938 329.271484375 -326 287.771484375 -326 c 7
 237.798828125 -326 193.561523438 -284.413085938 193.561523438 -214.834960938 c 7
 193.561523438 -150.617750838 236.666992188 -26.3930451996 359.931640625 73.76171875 c 5
 366.630859375 52.54296875 l 5xd0
EndSplineSet
Fore
SplineSet
362.859375 52.54296875 m 5
 277.611512261 -11.5550260391 243 -103.880237222 243 -167 c 7
 243 -220.067559606 271.47943536 -251.530273438 307.515625 -251.530273438 c 7
 321.509012131 -251.530273438 338.310451064 -244.584130641 355.55078125 -229.2578125 c 5
 355.55078125 -229.2578125 361.829583002 -233.972499416 363.349609375 -237.658203125 c 5
 341.9765625 -269.5546875 305.967773438 -293.658203125 273.12109375 -293.658203125 c 7
 227.392888717 -293.658203125 186.912109375 -258.805289088 186.912109375 -200.493164062 c 7
 186.912109375 -141.838912023 231.052953352 -28.3753524841 357.282226562 63.103515625 c 5
 362.859375 52.54296875 l 5
EndSplineSet
Refer: 4 101 N 1 0 0 1 0 0 3
Substitution2: "smcp-1" eogonek.smcp
Substitution2: "case-1" Eogonek
Substitution2: "pcap-1" eogonek.pcap
EndChar
StartChar: Iogonek
Encoding: 302 302 2437
Width: 373
UnlinkRmOvrlpSave: 1
Flags: HW
HStem: -265.515 56.804<169.75 245.105> -4 19<31 106.272 256.5 339> 692 19<36 102.034 276.677 346>
VStem: 31 315 98.5488 59.2982<-197.305 -95.6554>
LayerCount: 2
Fore
SplineSet
230.178 1.73438 m 1xe8
 177.049 -26.3652 157.847 -111.9 157.847 -144.711 c 3
 157.847 -176.727 173.847 -208.711 213.847 -208.711 c 3
 239.847 -208.711 255.847 -199.711 274.346 -177.516 c 9
 281.145 -183.916 l 1
 270.847 -231.711 232.945 -265.515 181.348 -265.515 c 3
 138.842 -265.515 98.5488 -236.716 98.5488 -182.14 c 3
 98.5488 -138.458 128.549 -29.9902 225.479 16.4531 c 1
 230.178 1.73438 l 1xe8
EndSplineSet
Refer: 2429 73 N 1 0 0 1 0 0 3
Position2: "cpsp-1" dx=0 dy=0 dh=50 dv=100
Substitution2: "c2pc-1" iogonek.pcap
Substitution2: "c2sc-1" iogonek.smcp
EndChar
StartChar: iogonek
Encoding: 303 303 259
Width: 254
UnlinkRmOvrlpSave: 1
Flags: HW
HStem: -239.523 45.127<116.796 183.039> -7 33<26 80 177 247>
VStem: 56.8916 53.2084<-189.224 -97.8803> 90 71<57 330>
LayerCount: 2
Fore
SplineSet
172.98 4.88477 m 1xe0
 116.399 -51.3906 110.1 -122.841 110.1 -147.391 c 3
 110.1 -168.986 124.929 -194.396 148.419 -194.396 c 3
 164.361 -194.396 189.505 -186.447 209.147 -169.116 c 9
 216.947 -176.517 l 1
 193.752 -220.975 155.005 -239.523 125.024 -239.523 c 3
 97.8896 -239.523 56.8916 -230.321 56.8916 -177.226 c 3
 56.8916 -117.968 106.436 -35.9863 163.281 15.1035 c 1
 172.98 4.88477 l 1xe0
EndSplineSet
Refer: 8 105 N 1 0 0 1 0 0 3
Substitution2: "smcp-1" iogonek.smcp
Substitution2: "case-1" Iogonek
Substitution2: "pcap-1" iogonek.pcap
EndChar
StartChar: dotlessi
Encoding: 305 305 291
Width: 264
Flags: HMW
AnchorPoint: "Top" 132 429 basechar 0
LayerCount: 2
Fore
SplineSet
174 210 m 3
 174 181.037109375 178.037109375 119.388671875 182 100 c 0
 191.225585938 54.8623046875 206 23 222 16 c 0
 224.897460938 14.732421875 226 14 231 12 c 1
 231 -2 l 1
 199.293945312 -0.3330078125 167.600585938 1 131 1 c 1
 110.797851562 1 38.55078125 -4.9521484375 19 -6 c 1
 19 -4.25 17 0.125 19 8 c 1
 27 11 l 0
 36.400390625 16.5390625 47.3037109375 15.8642578125 54 45 c 0
 63.8408203125 87.814453125 70 135.211914062 70 184 c 3
 70 211.383789062 66.8955078125 252.169921875 62 268 c 0
 50.3115234375 305.796875 42.25 326 18 326 c 3
 17.5576171875 326 14 326 13 326 c 1
 13 337 l 1
 66.869140625 354 169.323242188 396 206 424 c 1
 216 419 l 1
 212.25 402 202.608398438 382.901367188 197 363 c 0
 183 313.32421875 174 258.318359375 174 210 c 3
EndSplineSet
Substitution2: "case-1" I
Substitution2: "pcap-1" i.pcap
Substitution2: "smcp-1" i.smcp
EndChar
StartChar: OE
Encoding: 338 338 2489
Width: 1058
Flags: HW
HStem: -7 49<336.528 518.419> 3.06988 37.3024<639.125 901.73> 334 36<614 882.393> 650 44<298.396 500.529>
VStem: 37 93<266.365 448.041> 531 93<373.564 620.777> 534.995 79.0053<90.5 334 370 605.156> 906 36<248.75 306.348 394.846 442.094> 947 30<539 620.59> 1007 28<152.034 171.75>
LayerCount: 2
Fore
SplineSet
367 675 m 0
 226 674.99999999 105 563.172661871 105 407 c 0
 105 177.379487179 265 21 435 21 c 0
 467.095362419 21 515.980336961 27.5672730322 520 53 c 0
 533.260132577 136.89791088 536.189453125 256.982421875 536.189453125 376.1171875 c 0
 536.189453125 461.125100134 535.792724315 546.037771121 529.79296875 619 c 0
 526.590134103 657.949245851 450.660393859 675.000000005 367 675 c 0
411 -12 m 3
 95 -12 23 259.961325967 23 346 c 0
 23 560.086021505 218 708 400 708 c 3
 484.903722321 708 495.078513121 703.244140625 673.291015625 703.244140625 c 3
 810.861328125 703.244140625 959.292658277 720.351036255 984 708 c 0
 988.579101562 705.7109375 990.483398438 704.276367188 990.483398438 698.485351562 c 0
 990.483398438 686.571289062 982.420898438 656.209960938 973 562 c 1
 954 563 l 1
 958 609 958.532130287 640.071106382 934 653 c 0
 869.580978531 686.950034743 716.034224887 684.606844977 633 668 c 0
 628 667 623.600754955 666.063506047 623 661 c 0
 616 602 612 440 612 374 c 1
 662 372 825.181368591 372.720210553 879 381 c 0
 905 385 915 430 921 453 c 1
 938 451 l 1
 934.86328125 425.907226562 933.366210938 385.236328125 933.366210938 344.703125 c 0
 933.366210938 307.702148438 934.614257812 270.815429688 937 246 c 1
 917 245 l 1
 916 294 905.018654193 331.113242341 875 336 c 0
 789 350 685 348 612 346 c 1
 612 267 611.133321159 113.200073046 621 54 c 0
 622 48 624.26936659 44.7556692061 628 43 c 0
 644.696289062 35.142578125 703.596679688 25.115234375 769.762695312 25.115234375 c 0
 838.33203125 25.115234375 914.76094994 35.8140721756 960 71 c 0
 987 92 1011 126 1027 167 c 1
 1044 161 l 1
 1033 125 998 19 987 -6 c 1
 977.559570312 -2.853515625 855.620117188 0.0185546875 728.508789062 0.0185546875 c 3
 493.787674976 0.0185546875 446 -12 411 -12 c 3
EndSplineSet
Position2: "cpsp-1" dx=0 dy=0 dh=50 dv=100
Substitution2: "c2pc-1" oe.pcap
Substitution2: "c2sc-1" oe.smcp
EndChar
StartChar: oe
Encoding: 339 339 870
Width: 740
UnlinkRmOvrlpSave: 1
Flags: HW
AnchorPoint: "Top" 404 465 basechar 0
AnchorPoint: "Bottom" 400 -15 basechar 0
LayerCount: 2
Fore
SplineSet
268 412 m 3
 377.125 412 462 323 462 204 c 3
 462 82 377.971545797 -9 265 -9 c 3
 137.546627148 -9 28 81 28 200 c 3
 28 316 138.526055845 412 268 412 c 3
216 380 m 3
 191.168718012 380 144 354.750976562 144 258 c 3
 144 174.172851562 187.770798413 19 287 19 c 3
 340.845426803 19 353 106.599609375 353 160 c 3
 353 248.6484375 294.407124013 380 216 380 c 3
EndSplineSet
Refer: 4 101 N 1 0 0 1 321 0 2
Substitution2: "smcp-1" oe.smcp
Substitution2: "case-1" OE
Substitution2: "pcap-1" oe.pcap
EndChar
StartChar: uogonek
Encoding: 371 371 2279
Width: 522
UnlinkRmOvrlpSave: 1
Flags: HW
HStem: -248.523 45.1279<308.447 374.69> -4 43<180.512 271.959> 26 15<488.103 509.867> 347 12<25 38.3301> 360 18<307 355.329> 387 26<132 161 420.5 446>
VStem: 81 67<72.8435 345.445> 248.542 53.208<-198.224 -116.496> 366 67<71.5641 319.205> 373 73<165.286 357.317>
LayerCount: 2
Fore
SplineSet
436.859375 -5.115234375 m 1
 369 -48.539885505 359 -120.214038172 359 -166.658203125 c 3
 359 -222.5703125 383.734375 -255.71875 415.03125 -255.71875 c 3
 420.134765625 -255.71875 426.262695312 -255.73828125 432.55078125 -253.916015625 c 1
 432.55078125 -253.916015625 436.4140625 -258.630859375 437.349609375 -262.31640625 c 1
 415.9765625 -294.212890625 379.967773438 -318.31640625 347.12109375 -318.31640625 c 3
 301.392578125 -318.31640625 260.912109375 -283.463867188 260.912109375 -225.151367188 c 3
 260.912109375 -173.839846825 305.052734375 -74.5816445541 431.282226562 5.4453125 c 1
 436.859375 -5.115234375 l 1
EndSplineSet
Refer: 811 117 N 1 0 0 1 0 0 3
Substitution2: "smcp-1" uogonek.smcp
Substitution2: "case-1" Uogonek
Substitution2: "pcap-1" uogonek.pcap
EndChar
StartChar: uni018A
Encoding: 394 394 1987
Width: 931
Flags: HW
HStem: -10 38<154.632 220.688> -7 44<298.868 602.195> 487 21G<51.5 84.5> 653 33<129.543 240.772> 659 37<327.563 574.412>
VStem: 7 89<522.409 604.952> 223 94<354.775 647.265> 794 94<220.973 461.289>
LayerCount: 2
Fore
SplineSet
464 37 m 3x6f
 664 37 794 146 794 340 c 3
 794 530 656 659 451 659 c 3
 410 659 387 654 346 649 c 0
 318 645 317 627 317 607 c 0
 317 424 313 266 318 86 c 0
 318 68 321 50 349 46 c 0
 380 41 418 37 464 37 c 3x6f
196 653 m 3xb7
 155 653 96 634 96 592 c 3
 96 571 111 554 135 537 c 1
 123 506 98 487 71 487 c 3
 32 487 7 515 7 544 c 3
 7 621 108 686 189 686 c 3xb7
 200 686 234 682 263 682 c 27
 350 682 398 696 485 696 c 3
 700 696 888 560 888 350 c 3
 888 73 665 -7 461 -7 c 3x6f
 387 -7 344 0 270 0 c 3
 196 0 185 -5 155 -10 c 9
 153 28 l 1
 194 32 226 33 228 66 c 0
 238 233 232 512 223 615 c 0
 221 637 220 653 196 653 c 3xb7
EndSplineSet
EndChar
StartChar: uni0194
Encoding: 404 404 1370
Width: 749
UnlinkRmOvrlpSave: 1
Flags: HW
HStem: -242 52<344.966 426.993> 652 40<20.3 85.8905 493.65 550.818 666.274 740>
VStem: 272 44<-160.426 4.03024> 448 82<-172.733 7.86105>
LayerCount: 2
Fore
SplineSet
125 608 m 0
 98 636 76 636 17 652 c 1
 21 692 l 1
 78 686 222 679 280 690 c 1
 285 651 l 1
 285 651 263 649 248 649 c 0
 230 649 214.844009904 638.898043821 226 622 c 0
 325.378973408 458.754267846 530 72.883537374 530 -80 c 3
 530 -160.120526714 495.109999894 -242 395 -242 c 3
 309.791732073 -242 272 -174.480377907 272 -94 c 3
 272 7.25500959342 451.830860347 420.853785411 547 589 c 0
 559 609 565 633 539 643 c 0
 527 648 508 650 492 652 c 1
 494 691 l 1
 532 685 675 674 740 690 c 1
 740 647 l 1
 675 645 649.293842756 627.713645513 622 600 c 0
 508.323947346 477.883142293 316 -5.88164981191 316 -86 c 3
 316 -139.983642578 343.017907694 -190 395 -190 c 3
 432.930571222 -190 448 -133.524263822 448 -84 c 3
 448 25.3077460043 246.832662671 471.233665558 125 608 c 0
EndSplineSet
EndChar
StartChar: uni0196
Encoding: 406 406 865
Width: 326
Flags: HW
HStem: -32 70<161.149 251.187> 586.25 35.75<28.5946 81.8427> 675 20G<146.271 187.776>
VStem: 113.474 86.5264<49.9485 329.395> 123.151 74.3047<93.5204 587.2>
LayerCount: 2
Fore
SplineSet
116.599609375 539 m 0xe8
 115 565 105.637695312 597 82.400390625 597 c 3
 70.6728515625 597 48 588 30.2001953125 586.25 c 1
 22 622 l 1
 68.0712890625 631.827148438 116.142578125 647.166015625 176.400390625 695 c 1
 199.15234375 689.430664062 199.329101562 668.951171875 202 637 c 0
 203.436523438 619.815429688 204.200195312 609.422851562 204.200195312 592.5 c 0
 204.200195312 518.0078125 197.456054688 417.247070312 197.456054688 287.506835938 c 3xe8
 197.456054688 230.994140625 196.682617188 168.198242188 200 99 c 0
 201.931640625 58.7138671875 226.203125 38 249 38 c 3
 267.307617188 38 290.223632812 55.2900390625 305.508789062 62.3857421875 c 1
 320 32 l 1
 263.69140625 0.3720703125 228.991210938 -32 192.883789062 -32 c 3
 129.415039062 -32 113.473632812 15.7177734375 113.473632812 77.9169921875 c 3xf0
 113.473632812 161.350585938 123.151367188 240.983398438 123.151367188 333.733398438 c 3
 123.151367188 397.54296875 121.129882812 465.366210938 116.599609375 539 c 0xe8
EndSplineSet
EndChar
StartChar: uni019E
Encoding: 414 414 1972
Width: 526
VWidth: 1159
Flags: W
HStem: -248 33<308.152 361.624> -7 34<20.4 68.4075 170.315 228.824> 335 29<32 53.5363> 358 57<245.574 353.177>
VStem: 95 66<47.5359 302.396> 379 67<-202.326 331.73>
AnchorPoint: "Top" 272 465 basechar 0
LayerCount: 2
Fore
SplineSet
515 -214 m 1xdc
 510 -248 l 1
 471 -239 450 -237 408 -237 c 3
 378 -237 335 -242 309 -248 c 1
 305 -215 l 1
 343.064095077 -208.079255441 371.21600591 -212.92819944 373 -165 c 0
 375 -111.268656716 379 9.62686567164 379 60 c 3
 379 138.03125 377.588535002 255.239646208 374 287 c 0
 369 328.328358209 348 358 293 358 c 3xdc
 245 358 203 344.4 170 324 c 1
 168 234.329113924 161 109.430379747 161 71 c 3
 161 27.80589946 195.795590225 30.6204409775 232 27 c 1
 228 -7 l 1
 189 -1 159 4 117 4 c 3
 87 4 51 -1 21 -5 c 1
 18 28 l 1
 55.449092135 34.8089258427 78.318284601 37.5524032329 87 76 c 0
 94 107 95 167 95 199 c 3
 95 219 92.9313485795 287.976104104 86 308 c 0
 77 334 72 336 54 336 c 3
 44 336 41 335 32 335 c 1
 30 364 l 1xec
 67 371 104 375 154 416 c 1
 175 401 l 1
 170 387.056338028 167 366.915492958 167 346 c 1
 215 377 267 415 330 415 c 3
 403 415 448 375 448 304 c 3
 448 239.885714285 446 169.942857143 446 100 c 3
 446 -26.8139534884 443.994358813 -149.457691099 449 -187 c 0
 452.785023974 -215.387679806 488.573254621 -208.714650924 515 -214 c 1xdc
EndSplineSet
Validated: 33
Substitution2: "smcp-1" uni019E.smcp
EndChar
StartChar: uni01A2
Encoding: 418 418 1511
Width: 827
UnlinkRmOvrlpSave: 1
Flags: HW
HStem: -164 40<565.125 668.789> -7 50<336.523 526.604> 665 41<309.595 516.315> 675 20G<661.5 786.692>
VStem: 37 93<267.4 455.858> 546.001 60.9629<134.616 584.297> 680 90<-112.969 162.979> 686.915 75.6025<91.454 569.742>
LayerCount: 2
Fore
SplineSet
544 655 m 1xdd
 779 695 l 1
 789 669 l 1
 774.512695312 634.34765625 762.517578125 477.96484375 762.517578125 327.6484375 c 3xdd
 762.517578125 203.588867188 762.138522029 65.2988204406 770 -88 c 0
 772 -127 824 -122 878 -124 c 1
 877 -163 l 1
 825.492812273 -157.390306287 768.264049355 -154.121256971 713.006209155 -154.121256971 c 0
 659.909427281 -154.121256971 608.632422453 -157.13961018 566 -164 c 1
 561 -124 l 1
 621 -124 677.939769904 -126.997083367 680 -77 c 0xde
 684.643554688 35.6884765625 686.915039062 184.162109375 686.915039062 329.857421875 c 3
 686.915039062 439.138671875 682.915868772 582.798664848 678 612 c 0
 676.200101007 622.691793489 664.270507812 636.02734375 647.625 636.02734375 c 3
 629.220703125 636.02734375 611.552789652 620.189514532 600 603 c 1
 544 655 l 1xdd
426 665 m 3xec
 262.329101562 665 130 563 130 384 c 3
 130 206.6015625 273 43 443 43 c 3
 479.974609375 43 508.85546875 48.2373046875 526 57 c 1
 538.351711978 73 546.000976562 263.72265625 546.000976562 360.349609375 c 3
 546.000976562 454.005859375 541.2890625 600.963867188 531 638 c 1
 500.9609375 654.033203125 468.143554688 665 426 665 c 3xec
422 706 m 3
 494.547626023 706 560.837368642 685.89827073 612 652.66796875 c 1
 608.607306469 554.847330717 606.963867188 457.026692701 606.963867188 359.206054688 c 3
 606.963867188 257.264648444 609.369119683 155.323242202 614 53.3818359375 c 1
 563.844532022 15.6906138771 498.210996857 -7 424 -7 c 3
 210 -7 37 148.774414062 37 343 c 3
 37 536.796875 212 706 422 706 c 3
EndSplineSet
Substitution2: "c2sc-1" gha.smcp
Substitution2: "c2pc-1" gha.pcap
EndChar
StartChar: Uhorn
Encoding: 431 431 759
Width: 827
UnlinkRmOvrlpSave: 1
Flags: HW
HStem: -10 54<307.477 561.43> 650 40<24.125 104.17 214.225 299.778>
VStem: 109 87<142.768 548.313> 114 90<339.122 637.531> 674 55<149.172 589.445> 675 61<264.986 633.624> 835.914 95.1875<693.753 774.81>
AnchorPoint: "Top" 441 699 basechar 0
AnchorPoint: "Ogonek" 490 11 basechar 0
AnchorPoint: "Bottom" 420 -15 basechar 0
LayerCount: 2
Fore
SplineSet
784 642 m 0xc6
 761.478546471 636.66795393 740.04456668 635.741559345 736 590 c 0xc6
 735.091705198 579.727744928 731.787772597 469.658489995 729 255 c 0
 728 178 703.339117404 117.635735037 662 74 c 0
 608 17 523 -10 412 -10 c 3
 299 -10 220.090904911 16.0950453125 172 62 c 0
 128 104 109 163 109 236 c 0xea
 109 266.168539326 114 578.915730337 114 594 c 0
 114 638 102 641 20 650 c 1
 25 690 l 1
 55 686.5 103.25 684.75 154.125 684.75 c 0
 205 684.75 258.5 686.5 299 690 c 1
 303 654 l 1
 235 648 204 646.009090158 204 591 c 0xd2
 204 583.958083832 196 287.191616766 196 255 c 0
 196 196 207.684535021 144.717092872 240 109 c 0
 278 67 345 44 453 44 c 3
 479 44 562.229152898 44.763500117 619 100 c 0
 656 136 668.983205589 181.001106759 674 257 c 0xea
 680 347.893371758 678.9219485 497.10161583 675 589 c 0
 673 635.863636364 645 650.568181818 579 652 c 1
 581 692 l 1
 621.355554481 685.58960168 705.122701859 680.796875 775.796875 680.796875 c 3
 803.822832579 680.796875 835.9140625 687.672407215 835.9140625 719.4453125 c 3
 835.9140625 734.991660599 824.343297353 747.24382169 805.458984375 760.080078125 c 1
 817.774221442 790.721679688 842.434890552 810 869 810 c 3
 906.495832074 810 931.1015625 781.841796875 931.1015625 752.943359375 c 3
 931.1015625 671.477853735 849.800683128 657.57858037 784 642 c 0xc6
EndSplineSet
Position2: "cpsp-1" dx=0 dy=0 dh=50 dv=100
Substitution2: "c2pc-1" uhorn.pcap
Substitution2: "c2sc-1" uhorn.smcp
EndChar
StartChar: uni0237
Encoding: 567 567 1067
Width: 271
Flags: HMW
AnchorPoint: "Top" 149.5 526 basechar 0
LayerCount: 2
Fore
SplineSet
11 -331 m 1
 13 -305 19 -272 23 -258 c 0
 29 -234 48 -212 58 -176 c 0
 76 -112 80 45 80 74 c 3
 80 87 81 135 80 161 c 0
 78 224 75 326 29 326 c 3
 28 326 24 325 22 325 c 1
 18 338 l 1
 81 359 174 390 215 424 c 1
 235 413 l 1
 215 392 207 363 202 342 c 0
 191 295 189 247 188 200 c 0
 186 72 183 1 183 -129 c 0
 183 -165 179 -188 170 -200 c 0
 150 -227 117 -250 88 -269 c 0
 64 -285 39 -296 32 -338 c 1
 11 -331 l 1
EndSplineSet
EndChar
StartChar: uni0272
Encoding: 626 626 1998
Width: 526
VWidth: 1159
Flags: HW
HStem: -326 36<-14.0642 20.4431> 355 46<39 113 187 338> 701 55<273.481 377.117>
VStem: 113 73<-170.918 360 397 602.722>
AnchorPoint: "Top" 272 465 basechar 0
AnchorPoint: "Bottom" 269 -15 basechar 0
LayerCount: 2
Back
SplineSet
164.345703125 55 m 4
 163.342007512 -53.4339567976 160.423768932 -124.413476345 151.249023438 -172 c 4
 138.630814681 -237.446686212 113.308131815 -279.271062226 84.470703125 -323 c 5
 74.330078125 -322 75.189453125 -321 33.189453125 -321 c 7
 12.189453125 -321 -19.248046875 -325 -31.1083984375 -326 c 5
 -41.1669921875 -290 l 5
 15.828869585 -275.843201216 48.8420667116 -238.660890175 67.3564453125 -187 c 4
 87.0801121037 -131.964818646 96.0984270835 -53.1177976917 98.2646484375 20 c 1028
EndSplineSet
Fore
SplineSet
162.345703125 55 m 3
 162.345703125 -53.4386019445 158.423768932 -124.413476345 149.249023438 -172 c 0
 136.630814681 -237.446686212 111.308131815 -279.271062226 82.470703125 -323 c 1
 72.330078125 -322 73.189453125 -321 31.189453125 -321 c 3
 14.4353181635 -321 -10.6460207818 -325 -20.1083984375 -326 c 5
 -30.1669921875 -290 l 5
 20.0013471612 -275.843201216 49.0599002723 -238.660890175 65.3564453125 -187 c 0
 86.3563860243 -131.964818646 95.9582557934 -53.1177976917 98.2646484375 20 c 0
 99.0348228019 87.1082535059 97 167 97 199 c 3
 97 219 94.4716482638 287.976104104 86 308 c 0
 77 334 72 336 54 336 c 3
 44 336 41 335 32 335 c 1
 30 364 l 1
 67 371 104 375 154 416 c 1
 175 401 l 1
 170 387.056338028 167 366.915492958 167 346 c 1
 215 377 267 415 330 415 c 3
 403 415 448 375 448 304 c 3
 448 265.971428571 446 224.485714286 446 183 c 3
 446 126 446.737721518 70.967088615 449 54 c 0
 451 39 463.085896873 34.4253562504 474 32 c 0
 483 30 505 29 515 27 c 1
 510 -7 l 1
 471 2 450 4 408 4 c 3
 378 4 335 -1 309 -7 c 1
 305 26 l 1
 316 28 331.770914699 27.6973278528 343 31 c 0
 360 36 369.491767923 47.9341433822 373 76 c 0
 375 92 379 128 379 143 c 3
 379 192.5 376.161935969 266.771303188 374 287 c 0
 369 328.910447761 348 359 293 359 c 3
 245 359 203 345 170 324 c 1
 167.292573402 234.329113924 162.345703125 171.548690085 162.345703125 55 c 3
EndSplineSet
EndChar
StartChar: gravecomb
Encoding: 768 768 94
Width: 0
VWidth: 1159
Flags: HW
HStem: 494 159
VStem: -350 177
AnchorPoint: "Top" -198.5 469 mark 0
LayerCount: 2
Fore
SplineSet
-173 504 m 1
 -183 494 l 1
 -253 549 -299.926 566.14 -373 597 c 1
 -346.853764706 629.911030303 -316 653 -316 653 c 1
 -268.194 615.523 -205 548 -173 504 c 1
EndSplineSet
EndChar
StartChar: acutecomb
Encoding: 769 769 91
Width: 0
VWidth: 1159
Flags: HW
HStem: 494 159
VStem: -226 177
AnchorPoint: "Top" -198.5 470 mark 0
LayerCount: 2
Fore
SplineSet
-226 504 m 1
 -194 548 -130.806 615.523 -83 653 c 1
 -83 653 -52.146235294 629.911030303 -26 597 c 1
 -99.074 566.14 -146 549 -216 494 c 1
 -226 504 l 1
EndSplineSet
EndChar
StartChar: uni0302
Encoding: 770 770 92
Width: 0
VWidth: 1159
Flags: HW
HStem: 491 162
VStem: -300 205
AnchorPoint: "Top" -198.5 469 mark 0
LayerCount: 2
Fore
SplineSet
-95 497 m 1
 -106 491 l 1
 -197 573.692382812 l 1
 -289 491 l 1
 -300 497 l 1
 -216 653 l 1
 -179 653 l 1
 -95 497 l 1
EndSplineSet
EndChar
StartChar: tildecomb
Encoding: 771 771 99
Width: 0
Flags: HW
HStem: 484.993 21G<-322.167 -302.775> 493.333 44.667<-235.913 -126.624> 518.115 44.2051<-285.912 -175.86>
VStem: -322.167 227.589
AnchorPoint: "Top" -210 442 mark 0
LayerCount: 2
Fore
SplineSet
-322.166992188 494.41796875 m 1
 -292.123680179 540.954981305 -246.74682817 576.3203125 -239.155273438 576.3203125 c 3
 -217.333808419 576.3203125 -178.156688875 554 -149 554 c 3
 -133.145650257 554 -118.243915444 562.71009663 -110.647460938 576.4765625 c 1
 -94.578125 565.405273438 l 1
 -116.41274741 521.928460944 -161.152922332 479.333007812 -171.221679688 479.333007812 c 3
 -191.090226047 479.333007812 -246.275702497 502.23046875 -270.748046875 502.23046875 c 3
 -286.998639929 502.23046875 -294.728866693 494.133579905 -304.986328125 483.993164062 c 1
 -322.166992188 494.41796875 l 1
EndSplineSet
EndChar
StartChar: uni0306
Encoding: 774 774 1111
Width: 0
Flags: HW
AnchorPoint: "Top" -198.5 453 mark 0
LayerCount: 2
Fore
SplineSet
-310.065429688 574.795898438 m 1
 -300.665039062 584.262695312 l 1
 -287.974125233 565.271562315 -243.955306279 555.749023438 -199.81640625 555.749023438 c 3
 -155.766283667 555.749023438 -111.596547405 565.235700624 -98.3349609375 584.262695312 c 1
 -88.9345703125 574.795898438 l 1
 -105.022242234 526.25423177 -152.553509271 501.983398438 -199.938476562 501.983398438 c 3
 -247.32380759 501.983398438 -294.562837746 526.25423177 -310.065429688 574.795898438 c 1
EndSplineSet
EndChar
StartChar: uni030A
Encoding: 778 778 98
Width: 0
VWidth: 1159
Flags: HW
HStem: 485.037 21.2695<-231.073 -166.029> 615.693 21.2695<-229.971 -164.927>
VStem: -275.451 21.6846<527.554 592.506> -142.233 21.6846<529.494 593.339>
AnchorPoint: "Top" -198.5 455 mark 0
LayerCount: 2
Fore
SplineSet
-198 608.423828125 m 3
 -223.037565616 608.423828125 -246.08203125 588.202985828 -246.08203125 560.345703125 c 3
 -246.08203125 532.218908215 -222.963869236 513.576171875 -198 513.576171875 c 3
 -172.962604692 513.576171875 -149.91796875 533.797988576 -149.91796875 561.654296875 c 3
 -149.91796875 588.397172997 -172.516793697 608.423828125 -198 608.423828125 c 3
-198 636.962890625 m 3
 -156.295907453 636.962890625 -120.548828125 604.193041884 -120.548828125 562.490234375 c 3
 -120.548828125 517.80616226 -157.784910757 485.037109375 -198 485.037109375 c 3
 -239.704092547 485.037109375 -275.451171875 514.826971871 -275.451171875 559.509765625 c 3
 -275.451171875 604.192837738 -238.215089243 636.962890625 -198 636.962890625 c 3
EndSplineSet
EndChar
StartChar: uni0314
Encoding: 788 788 694
Width: 0
VWidth: 1159
Flags: W
HStem: 438.94 204.119
VStem: -296.13 114.21
AnchorPoint: "TopMark" -231 409 mark 0
AnchorPoint: "TopMark" -227 631 basemark 0
AnchorPoint: "Top" -224 414 mark 0
LayerCount: 2
Fore
SplineSet
-192.450195312 438.940429688 m 1
 -288.030273438 491.58984375 -296.129882812 581.5 -296.129882812 586.360351562 c 3
 -296.129882812 591.219726562 -293.700195312 595.26953125 -289.650390625 596.889648438 c 0
 -272.639648438 605.799804688 -258.060546875 618.759765625 -249.150390625 635.76953125 c 0
 -247.530273438 639.8203125 -242.669921875 643.059570312 -237.810546875 643.059570312 c 3
 -232.950195312 643.059570312 -228.08984375 639.8203125 -226.469726562 635.76953125 c 0
 -217.560546875 618.759765625 -204.600585938 605.799804688 -187.58984375 596.889648438 c 0
 -183.540039062 595.26953125 -181.919921875 591.219726562 -181.919921875 586.360351562 c 3
 -181.919921875 581.5 -183.540039062 575.830078125 -187.58984375 574.209960938 c 0
 -204.600585938 565.299804688 -222.419921875 553.150390625 -230.520507812 535.330078125 c 0
 -241.860351562 510.219726562 -207.030273438 476.200195312 -179.490234375 459.190429688 c 1
 -192.450195312 438.940429688 l 1
EndSplineSet
EndChar
StartChar: uni0315
Encoding: 789 789 1125
Width: 0
Flags: HW
HStem: 452.494 200.751
VStem: -49.75 41<581.48 644.952>
AnchorPoint: "TopRight" -110.5 531 mark 0
LayerCount: 2
Fore
SplineSet
-49.75 653.245117188 m 1
 -8.75 643.245117188 l 1
 -22.3867979021 580.436585347 -59.6085214452 503.670714276 -112 452.494140625 c 1
 -120 462.494140625 l 1
 -78.6764581132 519.264899384 -58.8145298113 584.57512189 -49.75 653.245117188 c 1
EndSplineSet
EndChar
StartChar: uni031B
Encoding: 795 795 1127
Width: 0
Flags: HW
HStem: 330 18<-84.5 -47.4434>
VStem: 12.8818 62.7432<400.38 466.056>
AnchorPoint: "Horn" -73.5 341.8 mark 0
LayerCount: 2
Fore
SplineSet
12.8818359375 414.884765625 m 3
 12.8818359375 428.595703125 2.005859375 439.401367188 -15.744140625 450.72265625 c 1
 -6.4501953125 476.256835938 12.16015625 492.322265625 32.20703125 492.322265625 c 3
 58.421875 492.322265625 75.625 468.857421875 75.625 444.775390625 c 3
 75.625 401.047637708 -8.03866133706 335.95183321 -75.9999983639 330.381086682 c 0
 -78.8636902859 330.14635172 -81.6995022121 330.017305466 -84.5 330 c 1
 -85 348 l 1
 -82.3674032291 348.088371709 -79.6959768562 348.297586388 -77.00000107 348.619505683 c 0
 -35.03339655 353.630626271 12.8818359375 385.951476289 12.8818359375 414.884765625 c 3
EndSplineSet
EndChar
StartChar: uni0327
Encoding: 807 807 1131
Width: 0
UnlinkRmOvrlpSave: 1
Flags: HW
VStem: -195 62.4277<-164.273 -94.0566>
AnchorPoint: "Bottom" -193 -15 mark 0
LayerCount: 2
Fore
SplineSet
-266 -191 m 1
 -262.825195312 -175.997070312 l 1
 -218.803873162 -186.607158929 -176.825195312 -159.242544826 -176.825195312 -120.997070312 c 0
 -176.825195312 -103.291997516 -190.827501009 -75.4681142312 -229.825195312 -86.9970703125 c 1
 -232.948242188 -70.4599609375 l 1
 -229.900381065 -68.4461043853 -226.282210419 -67.3105576699 -223.346679688 -65.0732421875 c 0
 -197.867289195 -45.6541183415 -203.088147258 -42.2677391244 -186.624 5.43262 c 1
 -164.624023438 10.4326171875 l 1
 -164.624023438 10.4326171875 -177.315829758 -44.9175351221 -181.825195312 -54.9970703125 c 1
 -150.304800965 -59.5153623536 -124.397460938 -76.907488989 -124.397460938 -109.42578125 c 0
 -124.397460938 -172.808030088 -203.505287336 -218.096853073 -266 -191 c 1
EndSplineSet
EndChar
StartChar: uni0328
Encoding: 808 808 1132
Width: 0
Flags: HW
AnchorPoint: "Ogonek" -104.35 21.6582 mark 0
LayerCount: 2
Fore
SplineSet
-100.140625 12.54296875 m 1
 -168 -29 -178 -97.5680804442 -178 -142 c 3
 -178 -197.911636004 -153.265862146 -231.060546875 -121.96875 -231.060546875 c 3
 -116.865038421 -231.060546875 -110.737165476 -231.080109445 -104.44921875 -229.2578125 c 1
 -104.44921875 -229.2578125 -100.585703622 -233.972499416 -99.650390625 -237.658203125 c 1
 -121.0234375 -269.5546875 -157.032226562 -293.658203125 -189.87890625 -293.658203125 c 3
 -235.607111283 -293.658203125 -276.087890625 -258.805289088 -276.087890625 -200.493164062 c 3
 -276.087890625 -150.739517616 -231.947046648 -54.4937105427 -105.717773438 23.103515625 c 1
 -100.140625 12.54296875 l 1
EndSplineSet
EndChar
StartChar: uni032B
Encoding: 811 811 1135
Width: 0
Flags: HW
HStem: -177.727 44.7197<-280.789 -212.903 -177.273 -108.863>
VStem: -305 13.2578<-102.68 -84.3649> -202.079 14.3369<-105.225 -85.5898> -98.0791 13.2578<-102.68 -84.3649>
CounterMasks: 1 70
AnchorPoint: "Bottom" -193 -15 mark 0
LayerCount: 2
Fore
SplineSet
-305 -86.3505859375 m 1
 -291.7421875 -82.58984375 l 1
 -285.349738282 -116.165905354 -266.266708342 -133.006835938 -247.12109375 -133.006835938 c 0
 -227.977232253 -133.006835938 -208.770716835 -117.233905065 -202.079101562 -85.58984375 c 1
 -187.7421875 -85.58984375 l 1
 -181.349738282 -117.167905354 -162.267589816 -133.006835938 -143.12109375 -133.006835938 c 0
 -123.977194747 -133.006835938 -104.770906436 -116.235905065 -98.0791015625 -82.58984375 c 1
 -84.8212890625 -86.3505859375 l 1
 -93.2815739842 -147.267441172 -118.277206783 -177.7265625 -143.196289062 -177.7265625 c 0
 -162.747028898 -177.7265625 -182.253673464 -158.452148438 -195.0546875 -119.903320312 c 1
 -208.034707 -158.452148438 -227.636783213 -177.7265625 -247.196289062 -177.7265625 c 0
 -272.068022637 -177.7265625 -296.862253867 -147.267441172 -305 -86.3505859375 c 1
EndSplineSet
EndChar
StartChar: uni0374
Encoding: 884 884 956
Width: 138
Flags: W
HStem: 458 286
VStem: 32 30<463.367 483.541>
LayerCount: 2
Fore
SplineSet
32 465 m 1
 73 744 l 1
 136 728 l 1
 62 458 l 1
 32 465 l 1
EndSplineSet
Validated: 1
Position2: "cpsp-1" dx=0 dy=0 dh=7 dv=14
EndChar
StartChar: uni037F
Encoding: 895 895 1774
Width: 369
Flags: HW
HStem: 0 73<48.4065 155.028> 672 20G<54 361.93>
VStem: 194.266 81.7344<131.462 435.956>
AnchorPoint: "Top" 230 699 basechar 0
LayerCount: 2
Fore
SplineSet
276 225 m 3
 276 145.419921875 237.09375 92.5693359375 193 52 c 0
 160.90625 22.4716796875 129.948242188 0 81 0 c 3
 57.9716796875 0 21.990234375 11 4 33 c 1
 5.224609375 62.953125 4 62.953125 64 104 c 1
 92.1669921875 90.7138671875 109.030273438 73 142 73 c 3
 204.142578125 73 194.265625 168.251953125 194.265625 227.524414062 c 3
 194.265625 254.978515625 183.017289626 588.221679688 174 614 c 0
 166.305880248 650 110.252489862 647 52 652 c 1
 56 692 l 1
 172 677 238 680 361 692 c 1
 363 649 l 1
 311.37956543 647 277.402685547 657.016601562 274 616 c 0
 267.63170856 547.684343929 266.291015625 478.698329057 266.291015625 403.026367188 c 3
 266.291015625 347.991977069 276 289.421203124 276 225 c 3
EndSplineSet
EndChar
StartChar: Gamma
Encoding: 915 915 977
Width: 570
Flags: HW
HStem: -9 35<45 91.758> 645.356 35.6184<205.338 410.346> 654 31<29 93.7781> 680 20G<526.477 537.182>
VStem: 115 82<84.1495 638.851> 511 31<534 596.689>
AnchorPoint: "Top" 321 699 basechar 0
AnchorPoint: "Bottom" 183 -15 basechar 0
LayerCount: 2
Fore
SplineSet
328 -14 m 1xcc
 272.699500713 -0.306543033698 233.209820258 6.17496148307 189.516685276 6.17496148307 c 0
 150.248920587 6.17496148307 107.586058012 0.939900142603 47 -9 c 1
 37 26 l 1
 90 36 115 49 115 77 c 1
 116.6 107.8 117.4 186.28 117.4 274.744 c 0
 117.4 407.44 115.6 562.6 112 613 c 0
 111 640 97 640 24 654 c 1
 29 685 l 1xac
 84.5689152088 682.207592201 147.54549467 680.974692665 209.61210278 680.974692665 c 0xcc
 369.814635023 680.974692665 523.95468546 689.188611699 529 700 c 1x9c
 545.364719787 690.373694243 550.146219258 682.36903933 550.146219258 661.825075468 c 0
 550.146219258 639.686073756 544.593423561 602.985066715 542 534 c 1
 511 531 l 1
 500 567 504 614 468 625 c 0
 423.738567604 637.646123542 360.720565012 645.356307558 299.059264777 645.356307558 c 0
 272.954270418 645.356307558 247.092444063 643.97437581 223 641 c 0
 205 639 202 622 201 604 c 0
 196 509 197 487 197 332 c 3
 197 290 198 147 210 81 c 0
 214 64 222 42 334 42 c 1
 328 -14 l 1xcc
EndSplineSet
Position2: "cpsp-1" dx=0 dy=0 dh=50 dv=100
Substitution2: "c2pc-1" gamma.pcap
Substitution2: "c2sc-1" gamma.smcp
EndChar
StartChar: Theta
Encoding: 920 920 982
Width: 793
Flags: HW
HStem: -7 50<342.523 545.448> 338.5 61<269.644 572> 456.5 20G<220.5 253.556 581.5 612.5> 657 49<304.396 495.712>
VStem: 43 93<267.4 455.825> 220.5 32<262.5 322.557 424.211 474.5> 588.5 29<261.017 313.193 419.193 470.5> 701 101<222.803 442.21>
AnchorPoint: "Top" 426 699 basechar 0
AnchorPoint: "Bottom" 422 -15 basechar 0
LayerCount: 2
Fore
SplineSet
546.5 467.5 m 1
 544.443359375 412.1640625 544.918945312 317.51171875 551.5 258.5 c 13
 533.5 256.5 l 1
 522.654296875 306.345703125 514.518554688 304.550851004 486.5 310.5 c 0
 480.126497287 311.903400281 430.609883458 317.5 395.5 317.5 c 31
 357.155129825 317.5 303.555998277 312.178125337 296.5 310.5 c 0
 268.62890625 304.116931217 266.565429688 285.242857143 264.5 258.5 c 13
 243.5 259.5 l 1
 249.977539062 331.940429688 250.790039062 398.831054688 243.5 471.5 c 13
 263.5 473.5 l 1
 267.611328125 450.444889808 269.666992188 430.883541278 300.5 422.5 c 0
 307.616153784 420.565107065 322.528771603 412.5 395.5 412.5 c 3
 465.275924042 412.5 480.202154646 416.617979498 484.5 417.5 c 0
 516.5 424.067164179 524.5 419.02238806 528.5 468.5 c 13
 546.5 467.5 l 1
EndSplineSet
Refer: 989 927 N 1 0 0 1 0 0 2
Position2: "cpsp-1" dx=0 dy=0 dh=50 dv=100
Substitution2: "c2pc-1" theta.pcap
Substitution2: "c2sc-1" theta.smcp
EndChar
StartChar: Lambda
Encoding: 923 923 985
Width: 705
VWidth: 1159
Flags: W
HStem: -10 37<460 513.054> -5 39<17 66.9704 632.488 690.419>
VStem: 350 43<632.023 712>
AnchorPoint: "Top" 367 699 basechar 0
AnchorPoint: "Bottom" 353 -15 basechar 0
LayerCount: 2
Fore
SplineSet
342 545 m 9xa0
 276.787 384.354 209.022 244.206 154 87 c 0
 141.219 50.4841 168.169 29 252 34 c 9x60
 250 -10 l 1xa0
 214.842687992 -3.42116167511 159.422803945 0.296115413079 107.977386922 0.296115413079 c 0
 73.404640964 0.296115413079 40.6268487613 -1.38268590218 17 -5 c 9
 17 -5 13 20 12 34 c 1x60
 61 48 85 57 96 80 c 0
 188 289 266 470 334 640 c 0
 349 678 346 679 350 712 c 9
 393 712 l 9
 398 685 393 681 407 642 c 0
 481 417 525 281 627 62 c 24
 639 36 664 34 692 32 c 9
 692 32 691 8 690 -4 c 1
 657.995959729 0.0415945787923 621.419271472 2.46990651666 584.963507834 2.46990651666 c 0
 540.237978705 2.46990651666 495.694458759 -1.18505702896 460 -10 c 9
 460 -10 454 12 450 27 c 1
 504.31 37 535.577 47.0285 525 76 c 0
 465.613 238.668 406.639 388.02 342 545 c 9xa0
EndSplineSet
Validated: 33
Position2: "cpsp-1" dx=0 dy=0 dh=50 dv=100
Substitution2: "c2pc-1" lambda.pcap
Substitution2: "c2sc-1" lambda.smcp
EndChar
StartChar: Pi
Encoding: 928 928 990
Width: 752
Flags: W
HStem: -14 37<198.688 269.502 501 561.92> -12 42<21 87.0033> 643.531 38.1836<200.09 569.987> 654 38<21.4474 91.4858> 662 37<683.143 733.135>
VStem: 91 94.3604<39.9736 319.261> 571 88.027<34.1018 313.688 369.492 445.826>
AnchorPoint: "Top" 384 699 basechar 0
AnchorPoint: "Bottom" 388 -15 basechar 0
LayerCount: 2
Fore
SplineSet
188 62 m 0x66
 189.587890625 25.9794921875 242 30 274 23 c 1
 274 23 270 0 269 -14 c 1xa6
 217.392393862 -5.39873231031 172.431590595 -0.554353199939 129.612272285 -0.554353199939 c 0
 92.7794837565 -0.554353199939 57.5312407821 -4.1388469203 21 -12 c 1
 21 -12 16 12 14 30 c 1
 50 36 90 36 91 62 c 0
 98.2 174.999804687 102.88 340.89078125 102.88 464.46903125 c 0
 102.88 546.85453125 100.8 610.434375 96 627 c 0
 89 649 57 649 19 654 c 1
 22 692 l 1x56
 57.91796875 687.40625 90.8701171875 683.858398438 124.5 682.159179688 c 1
 266.306640625 682.954101562 483.950195312 682.123046875 631.5 681.71484375 c 1x26
 661.54296875 683.813476562 693.204101562 689.405273438 732 699 c 1
 738 662 l 1x0e
 689 650 678 652 676 624 c 0
 668.799122875 511.727943667 659.027040887 327.658841684 659.027040887 196.106599704 c 0
 659.027040887 126.700731087 661.747129058 71.9130871055 669 50 c 0
 678 25 706 24 736 22 c 1
 736 22 731 2 732 -12 c 1
 697.008077782 -4.6073403764 661.044574829 -0.372318139618 623.391234575 -0.372318139618 c 0
 584.644451928 -0.372318139618 544.108262133 -4.85687949814 501 -15 c 1
 501 -15 495 8 493 20 c 1
 540 30 569.373046875 31.974609375 571 59 c 0
 577.517305957 167.228403182 580.320030294 263.867401222 580.320030294 365.912660291 c 0
 580.320030294 442.217057765 578.752940601 521.544262665 576 611 c 0
 575.643554688 627.709960938 553.016601562 642.413085938 515.5 643.53125 c 0
 444.383789062 646.889648438 335.715820312 646.584960938 250.5 646.43359375 c 0
 221.951171875 646.610351562 201.639648438 639.114257812 200 632 c 0
 190.68753132 549.675209454 185.36044502 366.558523514 185.36044502 216.886564834 c 0
 185.36044502 157.054745865 186.211726648 102.56747742 188 62 c 0x66
EndSplineSet
Validated: 33
Position2: "cpsp-1" dx=0 dy=0 dh=50 dv=100
Substitution2: "c2pc-1" pi.pcap
Substitution2: "c2sc-1" pi.smcp
EndChar
StartChar: Sigma
Encoding: 931 931 992
Width: 626
Flags: W
HStem: 2.48309 38.5169<150 472.628> 648.077 36.8923<179.454 467.505> 659 31<28 50.0696>
VStem: 518 30<539 620.59> 578 28<152.034 171.75>
AnchorPoint: "Top" 310 699 basechar 0
AnchorPoint: "Bottom" 307 -15 basechar 0
LayerCount: 2
Fore
SplineSet
18 1 m 1xd8
 8 28 l 1
 47 49 79.6767578125 85.4267578125 105 116 c 0
 168.08984375 190.967773438 231.771484375 266.940429688 295.001953125 343.299804688 c 1
 232.919921875 421.344726562 158.747070312 511 99.9716796875 588.299804688 c 0
 75.330078125 620.576171875 49.5 652.299804688 23 659 c 1
 28 690 l 1xb8
 100.521055818 686.355725838 186.588460485 684.969176485 267.955928091 684.969176485 c 0
 409.86328558 684.969176485 537.47511282 689.186564497 554 693 c 1
 565.145145837 683.247997393 569.133414459 677.741599913 569.133414459 669.087387512 c 0
 569.133414459 652.893580795 555.168856119 625.677987617 548 539 c 1
 518 536 l 1
 507 572 526 619 490 630 c 1
 438.703345846 641.860847667 357.361504552 648.076864413 279.205080995 648.076864413 c 0
 243.783639014 648.076864413 209.016485872 646.800086697 177.997070312 644.193359375 c 1
 240.469726562 565.895507812 302.563476562 487.598632812 365.102539062 409.299804688 c 0
 377.26171875 394.141601562 394.323242188 375.299804688 410.703125 367.299804688 c 1
 410.703125 339.299804688 l 1
 394.173828125 331.461914062 380.607421875 318.322265625 371.6640625 307.299804688 c 0
 296.84375 213.670898438 223.921875 129.947265625 150 41 c 1
 228.26916423 41 307.598956516 39 386 39 c 0
 408.404296875 39 437.5 43.2998046875 470 58 c 0
 526.760742188 83.673828125 539 101 578 177 c 1
 606 170 l 1
 590 104 579 62 567 0 c 1
 418.446420524 -0.773710049693 287.995461185 2.4830933189 163.612260931 2.4830933189 c 0
 119.627247387 2.4830933189 72.4064380862 2.08995072445 18 1 c 1xd8
EndSplineSet
Validated: 33
Position2: "cpsp-1" dx=0 dy=0 dh=50 dv=100
Substitution2: "c2pc-1" sigma.pcap
Substitution2: "c2sc-1" sigma.smcp
EndChar
StartChar: Omega
Encoding: 937 937 2482
AltUni2: 002126.ffffffff.0
Width: 745
Flags: HW
HStem: -10 21G<87.1167 91.9038 644.863 649.642> 0.754883 75.3525<133.163 239.381 492.783 605.981> 657 49<251.08 439.066>
VStem: 43 93<334.929 517.115> 77 40<91.9703 196.875> 601 101<323.745 498.491> 622 43<92.199 191.651>
AnchorPoint: "Top" 371 699 basechar 0
AnchorPoint: "Bottom" 367 -7 basechar 0
AnchorPoint: "Middle" 368.697 364.853 basechar 0
LayerCount: 2
Fore
SplineSet
292.000976562 0.7548828125 m 1x74
 192.34765625 0.5126953125 98.193359375 -2.896484375 85.6142578125 -10 c 1
 88.619140625 63.1279296875 86.46875 137.719726562 77 196 c 1
 117 201 l 1xa8
 117 141 114 84 164 82 c 1
 185.813476562 79.150390625 211.877929688 77.193359375 239.380859375 76.107421875 c 1
 234.84765625 199.831054688 43 229.5390625 43 421 c 0
 43 573.154296875 193 706 373 706 c 0
 555.09375 706 702 577.790039062 702 421 c 0x74
 702 230.876953125 503.059570312 189.90234375 492.783203125 76.056640625 c 1
 528.69921875 77.3857421875 560.905273438 81.43359375 584 84 c 0
 620 88 617 142 622 195 c 1
 665 191 l 1
 650.571289062 112.083007812 647.471679688 56.5380859375 651.811523438 -10 c 1xa2
 637.915039062 -3.697265625 542.920898438 0.025390625 442.990234375 0.6552734375 c 1
 462.990234375 243.015625 601 188.887695312 601 401 c 0
 601 536.529296875 481.322265625 657 336 657 c 0
 225.412109375 657 136 575.2265625 136 462 c 0
 136 246.774414062 272.000976562 252.576171875 292.000976562 0.7548828125 c 1x74
EndSplineSet
Position2: "cpsp-1" dx=0 dy=0 dh=50 dv=100
Substitution2: "c2pc-1" omega.pcap
Substitution2: "c2sc-1" omega.smcp
EndChar
StartChar: epsilon
Encoding: 949 949 1006
Width: 417
VWidth: 1043
UnlinkRmOvrlpSave: 1
Flags: HMW
AnchorPoint: "Bottom" 207 -15 basechar 0
AnchorPoint: "Top" 246 465 basechar 0
LayerCount: 2
Fore
SplineSet
366 398 m 1
 365 381 351 346 344 331 c 1
 291 335 264 341 210 341 c 3
 168 341 123 326 123 288 c 3
 123 256 163 233 217 214 c 1
 152 198 111 177 111 136 c 3
 111 86 166 66 218 66 c 3
 277 66 311 81 363 102 c 1
 369 94 377 61 378 47 c 1
 341 16 273 -7 198 -7 c 3
 122 -7 54 46 54 116 c 3
 54 200 152 242 244 242 c 3
 272 242 288 240 316 238 c 1
 316 223 313 209 308 198 c 1
 279 196 263 193 234 193 c 3
 158 193 78 247 78 317 c 3
 78 369 144 413 220 413 c 3
 279 413 331 404 366 398 c 1
EndSplineSet
Substitution2: "pcap-1" e.pcap
Substitution2: "smcp-1" e.smcp
EndChar
StartChar: lambda
Encoding: 955 955 1012
Width: 464
VWidth: 1038
UnlinkRmOvrlpSave: 1
Flags: HMW
LayerCount: 2
Fore
SplineSet
223 406 m 1
 262 310 l 1
 80 -16 l 1
 60 -18 17 3 7 20 c 1
 223 406 l 1
-12 681 m 1
 -14.462890625 688.389648438 -16 697 -16 705 c 0
 -16 737 1.1318359375 772 21 772 c 3
 57 772 90 724 113 681 c 0
 198 521 277 291 383 106 c 0
 399 81 424 66 460 64 c 1
 468 29 469 -1 469 -26 c 1
 457 -29 452 -34 439 -34 c 3
 395 -34 366 24 345 72 c 0
 280 218 185 474 99 635 c 0
 77 678 42 683 -12 681 c 1
EndSplineSet
Substitution2: "pcap-1" lambda.pcap
Substitution2: "smcp-1" lambda.smcp
EndChar
StartChar: phi
Encoding: 966 966 1023
Width: 670
UnlinkRmOvrlpSave: 1
Flags: HMW
LayerCount: 2
Fore
SplineSet
300 574 m 1
 362.330078125 569 393 532.98046875 393 486 c 3
 393 455.650390625 374.293945312 416.036132812 342 393.458007812 c 0
 310.62890625 371.525390625 266.909179688 354.6015625 216 336 c 0
 139.618164062 308.091796875 86 253.541015625 86 172 c 3
 86 140.171875 101.840820312 113.973632812 129 99.73046875 c 0
 189.104492188 68.2099609375 285.272460938 58 336 58 c 3
 400.28515625 58 582 76.5986328125 582 208 c 3
 582 277.373046875 520.25 327 452 327 c 7
 355.413085938 327 347.724609375 198.014648438 347.724609375 81.2666015625 c 3
 347.724609375 -36.47265625 348 -153.966796875 348 -272 c 1
 327 -274 315 -274 294 -276 c 1
 299 -161.125976562 306 -96.779296875 306 18 c 3
 306 133.880859375 301.407226562 270.237304688 348.03125 358 c 0
 356 373 394.668945312 405 448 405 c 3
 545.944335938 405 618 314.421875 618 214 c 3
 618 91.0595703125 524.03125 -22 334 -22 c 3
 125.96875 -22 52 72.462890625 52 202 c 3
 52 347.370117188 168.000976562 398.998046875 298 448 c 0
 322.490234375 457.231445312 354 468.4296875 354 486 c 3
 354 501.811523438 335.811523438 508 320 508 c 3
 305.374023438 508 297.799804688 508 283 508 c 1
 285.86328125 529.475585938 288.111328125 568.6171875 300 574 c 1
EndSplineSet
Substitution2: "pcap-1" phi.pcap
Substitution2: "smcp-1" phi.smcp
EndChar
StartChar: psi
Encoding: 968 968 672
Width: 598
UnlinkRmOvrlpSave: 1
Flags: HMW
LayerCount: 2
Fore
SplineSet
239 629 m 1
 252 643 262 653 282 653 c 3
 343 653 350 596 350 488 c 3
 350 187 320 -56 285 -283 c 1
 240 -274 l 1
 286 34 303 269 303 431 c 3
 303 551 298 570 279 570 c 3
 274 570 272 563 267 563 c 3
 246 563 242 608 239 629 c 1
15 368 m 1
 30 391 55 415 84 415 c 3
 123 415 143 381 143 351 c 3
 143 314 129 258 129 208 c 3
 129 137.620117188 159 55 311 55 c 3
 467 55 511 218.451171875 528 393 c 1
 558 399 l 1
 557 211 500 -25 311 -25 c 3
 167 -25 68 48 68 188 c 3
 68 247 90 295 90 338 c 3
 90 353 80 365 68 365 c 3
 52 365 44 355 32 344 c 1
 15 368 l 1
EndSplineSet
Substitution2: "pcap-1" psi.pcap
Substitution2: "smcp-1" psi.smcp
EndChar
StartChar: omega
Encoding: 969 969 1026
Width: 697
UnlinkRmOvrlpSave: 1
Flags: HMW
AnchorPoint: "Top" 363.485 465 basechar 0
AnchorPoint: "Bottom" 334.485 -15 basechar 0
LayerCount: 2
Fore
SplineSet
451 414 m 3
 539.090820312 414 642 324.881835938 642 222 c 3
 642 79.1435546875 551.928710938 -5 432 -5 c 3
 337.827148438 -5 294 84.552734375 294 178 c 3
 294 197.854492188 297.733398438 208.724609375 302 226 c 1
 330.067382812 242 345.932617188 242 374 242 c 1
 378 224.34765625 384 205.74609375 384 181 c 3
 384 68.6673313151 326.491571789 -5 236 -5 c 3
 128.798828125 -5 53 54.4814453125 53 195 c 3
 53 305.951171875 142.814453125 414 240 414 c 3
 280.81640625 414 318 394 325 351 c 1
 319.200195312 340.650390625 289.930664062 331.450195312 267 328 c 1
 265 343.763671875 259.364257812 379 239 379 c 3
 180.592773438 379 131 275.28125 131 191 c 3
 131 117.670898438 165.610351562 36 244 36 c 3
 291.010742188 36 329 87.6923828125 336 120 c 1
 347 98.400390625 366.338867188 39 406 39 c 3
 522.109375 39 565 119.921875 565 252 c 3
 565 310.5390625 522.748046875 374 480 374 c 3
 453.974609375 374 446 341.978515625 442 331 c 1
 427.061523438 330.72265625 385.7265625 335.520507812 380 351 c 1
 381.059570312 395.400390625 421.534179688 414 451 414 c 3
EndSplineSet
Substitution2: "pcap-1" omega.pcap
Substitution2: "smcp-1" omega.smcp
EndChar
StartChar: Upsilon1
Encoding: 978 978 1031
Width: 697
Flags: W
HStem: -17 42<207 275.801> 624 76<60.9482 170.031 520.588 623.993>
VStem: 625 49<580.975 621.557>
AnchorPoint: "Top" 335 699 basechar 0
AnchorPoint: "Bottom" 347 -15 basechar 0
LayerCount: 2
Fore
SplineSet
398 379 m 0
 383 286 393 164 404 80 c 0
 409 41 429 36 510 32 c 1
 505 -11 l 1
 402 3 314 9 209 -17 c 1
 197 25 l 1
 276 39 313 52 313 100 c 0
 313 150 313 339 304 380 c 0
 283 473 220 624 96 624 c 3
 75 624 54 616 31 600 c 1
 8 629 l 1
 26 655 78 700 119 700 c 3
 294 700 319 498 352 371 c 1
 381 498 403 700 563 700 c 3
 635 700 674 654 674 595 c 3
 674 535 647 511 609 511 c 3
 597 511 581 511 561 525 c 1
 560 550 568 562 586 586 c 1
 612 571 625 589 625 603 c 3
 625 618 599 624 586 624 c 3
 474 624 412 474 398 379 c 0
EndSplineSet
Validated: 33
Position2: "cpsp-1" dx=0 dy=0 dh=50 dv=100
EndChar
StartChar: uni03D8
Encoding: 984 984 1168
Width: 793
Flags: HW
HStem: -10 21G<212.5 258.5> 123.495 47.5049<301.566 331.679 415.642 483.111> 663 49<253.281 435.027>
VStem: 43 93<347.932 514.837> 329 86.6416<41.0295 125.066> 601 101<309.167 496.407>
AnchorPoint: "Top" 401 695 basechar 0
AnchorPoint: "Middle" 404.697 364.853 basechar 0
AnchorPoint: "Bottom" 397 -151 basechar 0
LayerCount: 2
Fore
SplineSet
433.641601562 -5.8779296875 m 1
 434.020799731 -38.1176402112 432.769092842 -71.2260320675 435 -105 c 0
 436.859345583 -132.473378273 460.363636364 -131.35 525 -139 c 1
 524 -162 l 1
 438.91318328 -151 335.292604502 -149 262 -163 c 1
 257 -140 l 1
 327.714285714 -128.382978723 353.249480904 -138.151837807 356 -98 c 0
 357.949377746 -69.0669536042 357.896484375 -38.0183414929 358.678710938 -5.5048828125 c 1
 433.641601562 -5.8779296875 l 1
EndSplineSet
Refer: 2472 79 N 1 0 0 1 0 0 2
Position2: "cpsp-1" dx=0 dy=0 dh=50 dv=100
EndChar
StartChar: uni03DC
Encoding: 988 988 1039
Width: 566
VWidth: 1159
Flags: W
HStem: -9 35<33 80.0617> 340 37<185 376.274> 655 31<17 81.7781> 681 20G<514.5 525>
VStem: 103 82<94.928 340 377 639.851> 425 31<230 292.487> 499 31<535 597.781>
AnchorPoint: "Top" 309 699 basechar 0
AnchorPoint: "Bottom" 171 -15 basechar 0
LayerCount: 2
Fore
SplineSet
316 -11 m 1xde
 261 0 222 5 178 5 c 0
 139 5 96 0 35 -9 c 1
 25 26 l 1
 78 36 103 49 103 77 c 1
 107 154.143554688 103 529.84375 100 614 c 0
 99 641 85 641 12 655 c 1
 17 686 l 1xee
 73 683 136 682 198 682 c 3
 358 682 512 690 517 701 c 1
 533 691 538 684 538 663 c 3
 538 641 533 604 530 535 c 1
 499 532 l 1
 488 568 492 616 456 626 c 0
 393 644 292 651 211 642 c 0
 193 640 190 623 189 605 c 0
 185 519.625976562 185 492.506835938 185 377 c 1
 321 379 439 387 443 396 c 1
 459 386 464 378 464 357 c 3
 464 335 459 299 456 230 c 1
 425 227 l 1
 414 263 418 311 382 321 c 0
 331 336 255 343 185 340 c 1
 185 293 181 151 198 81 c 0
 202 64 210 42 322 42 c 1
 316 -11 l 1xde
EndSplineSet
Validated: 33
Position2: "cpsp-1" dx=0 dy=0 dh=50 dv=100
EndChar
StartChar: uni03F5
Encoding: 1013 1013 1045
Width: 416
UnlinkRmOvrlpSave: 1
Flags: HW
HStem: -8 81<150.495 334.191> 329 88<215.451 335.781>
VStem: 52 45<127.138 264.605>
LayerCount: 2
Fore
SplineSet
90 208 m 1
 150.578125 217.303710938 226.774414062 225.270507812 314 232 c 1
 316 186 l 1
 234.30078125 178.610351562 155.83203125 172.602539062 90 172 c 1
 90 208 l 1
EndSplineSet
Refer: 1042 1010 N 1 0 0 1 0 0 2
EndChar
StartChar: afii10053
Encoding: 1028 1028 64
Width: 666
UnlinkRmOvrlpSave: 1
Flags: HW
HStem: -9 42<347.099 553.906> 332 36<126 466.393> 659 40<323.855 545.759>
VStem: 43 103<245.223 465.81> 490 36<248 304.348> 633 33<522.188 588.436> 673 27<150.932 169.074>
AnchorPoint: "Top" 433 699 basechar 0
AnchorPoint: "Bottom" 423 -15 basechar 0
LayerCount: 2
Fore
SplineSet
126 368 m 1
 209.361328125 370 417.763671875 370 436 371 c 0
 473 376 478 402 494 446 c 1
 528 439 l 1
 511 375 515 312 526 248 c 1
 490 239 l 1
 470 310 477 323 436 327 c 0
 378.689453125 332 247.133789062 331 126 332 c 1
 126 368 l 1
EndSplineSet
Refer: 2380 67 N 1 0 0 1 0 0 2
Position2: "cpsp-1" dx=0 dy=0 dh=50 dv=100
EndChar
StartChar: afii10037
Encoding: 1059 1059 1266
Width: 735
VWidth: 1159
Flags: W
HStem: -9 95<166.08 278.354> 652 40<9.3 83.6462 482.65 539.818 655.274 729>
AnchorPoint: "Top" 387 699 basechar 0
AnchorPoint: "Bottom" 339 -15 basechar 0
LayerCount: 2
Fore
SplineSet
200 -9 m 3
 178.467025162 -9 144.822037338 4 128 30 c 1
 129.224609375 61.640625 128 61.640625 188 105 c 1
 206.055764223 96.8568863407 216.865559896 86 238 86 c 3
 317.810089278 86 336.07010687 162.712395137 402 293 c 0
 451.561643836 395 533.018821522 584.00807699 536 589 c 0
 548.15436427 608.906567489 553.713947589 632.285855171 528 643 c 0
 516 648 497 650 481 652 c 1
 483 691 l 1
 521 685 664 676 729 690 c 1
 729 647 l 1
 664 645 638.135663177 627.868544705 611 600 c 1
 555.439804079 527.66944795 491.49440454 399.236368455 434.656331148 277.00000544 c 0
 370.044573839 138.045502759 337.939048991 -9 200 -9 c 3
350 184 m 1
 320.83323567 246.908131971 218 467 114 608 c 0
 90.9110152865 639.303335044 65 636 6 652 c 1
 10 692 l 1
 67 686 211 679 269 690 c 1
 274 651 l 1
 274 651 252 649 237 649 c 0
 219 649 206.582576937 640.41594388 215 622 c 0
 301.431389027 432.902268082 387.037557621 291.083762581 411.591796875 252 c 1
 350 184 l 1
EndSplineSet
Validated: 37
Position2: "cpsp-1" dx=0 dy=0 dh=50 dv=100
EndChar
StartChar: afii10045
Encoding: 1067 1067 1264
Width: 773
Flags: HW
HStem: -6 21G<512.5 549.269> -4 38<20 95.2502 197.378 342.918> 349 30<186 318.059> 654 43<499.349 578.882> 657 31<17 81.7781>
VStem: 100 92<379.105 642.778> 101 86<45.0179 349 379 631.173> 410 90<96.7035 268.078> 589 84<40.8345 313.935>
AnchorPoint: "Top" 396 699 basechar 0
AnchorPoint: "Bottom" 389 -15 basechar 0
LayerCount: 2
Fore
SplineSet
500 697 m 1x7180
 598.505137087 679 654.550538031 681 759 694 c 1
 761 651 l 1
 714.599609375 649 684.831054688 658.946289062 681 618 c 0
 670 500.428710938 662.455078125 322.3671875 673 70 c 0
 674.629882812 31 717 36 761 34 c 1x7180
 760 -5 l 1
 680.433908896 6 583.537354488 8 515 -6 c 1xa180
 510 34 l 1
 549.83203125 34 585.767578125 31.0869140625 589 81 c 0
 599 235.422851562 597.981445312 495.44921875 587 616 c 0
 583.720703125 652 539.450195312 649 496 654 c 1
 500 697 l 1x7180
243 349 m 0
 184 349 l 1
 185 251 185.405273438 155.012695312 187 96 c 0x6380
 188 59 193.568359375 49.078125 219 41 c 0
 225.296875 39 253.629882812 34 270 34 c 3
 349.505859375 34 410 83 410 178 c 3
 410 262 361.810546875 349 243 349 c 0
192 616 m 0x6d80
 186.870117188 523.665039062 186 379 186 379 c 1
 235.564453125 379 278.624023438 377.393554688 320 371.883789062 c 0
 435.134765625 356.551757812 500 273.93359375 500 181 c 3
 500 70 406.59765625 -4 261 -4 c 3
 217.9375 -4 177.3125 2 131 2 c 3
 72 2 27 -2 20 -2 c 1
 17 34 l 1
 64 36 101 35.9462890625 101 73 c 0x6b80
 101 78 104 176 104 292 c 3
 104 462.579101562 103.145507812 531.05859375 100 616 c 0
 99 643 85 643 12 657 c 1
 17 688 l 1
 90.2939453125 681.428710938 178 681.571289062 290 692 c 1
 292 649 l 1
 234 647 194 652 192 616 c 0x6d80
EndSplineSet
Position2: "cpsp-1" dx=0 dy=0 dh=50 dv=100
EndChar
StartChar: afii10048
Encoding: 1070 1070 1259
Width: 1030
UnlinkRmOvrlpSave: 1
Flags: HW
HStem: -15 50<593.132 759.03> -10 40<17.6924 113.181> 320 42<188 348> 652 43<22.5043 114.113> 660 49<550.554 716.101>
VStem: 123.508 82.9022<41.0295 293.416> 129.878 69.6406<80.3904 534.592> 325 88.624<250.983 465.529> 887.44 95.5596<210.811 449.249>
LayerCount: 2
Fore
SplineSet
626.69140625 660 m 3xa980
 508.877632637 660 413.624023438 543 413.624023438 381 c 3
 413.624023438 201 533.940737711 35 676.973632812 35 c 3
 804.757112401 35 887.440429688 169 887.440429688 320 c 3
 887.440429688 500 769.683203535 660 626.69140625 660 c 3xa980
658.768554688 709 m 3
 838.22265625 709 983 543 983 340 c 3
 983 144 846.025390625 -15 660.501953125 -15 c 3
 474.978515625 -15 325 143 325 340 c 3
 325 537 476.712890625 709 658.768554688 709 c 3
EndSplineSet
Refer: 1970 58114 N 0.16 0 0 0.913043 188 341 2
Refer: 34 73 N 0.921136 0 0 1 2.83912 0 2
Position2: "cpsp-1" dx=0 dy=0 dh=50 dv=100
EndChar
StartChar: afii10072
Encoding: 1078 1078 1250
Width: 628
Flags: HW
HStem: -18 25.8994<23.5537 43.8873 584.113 604.447> -7 21G<385.527 404.055> -5 33<223.464 251.306> 375.852 25.5977<162.559 181.945 233.791 264.73 358.784 397.456 446.055 465.44>
VStem: 284.826 57.6064<54.9692 177 211.853 365.646>
AnchorPoint: "Top" 316 465 basechar 0
AnchorPoint: "Bottom" 314 -15 basechar 0
LayerCount: 2
Fore
SplineSet
282.430664062 321.732421875 m 0x98
 274.446825823 365.950195312 270.025573874 366.713867188 230.0546875 375.8515625 c 1
 233.791015625 401.44921875 l 1
 280.227539062 394.21484375 351.419921875 396.0234375 396.961914062 401.944335938 c 1
 398.94140625 375.3671875 l 1
 365.49011458 371.497070312 354.068560161 373.231445312 348.408203125 332.755859375 c 0
 341.695229491 285.932617188 344.297658942 264.163085938 342.432617188 211 c 1
 375.111328125 243.142578125 423.201171875 289.4296875 453.927734375 328 c 0
 459.291015625 334.732421875 466.935546875 348 466.935546875 355 c 0
 466.935546875 373 451.1953125 372 444.63671875 374 c 1
 446.495117188 401 l 1
 467.907226562 399 496.731445312 399 518.966796875 399 c 0
 539.124023438 399 565.388671875 399 584.935546875 403 c 1
 586.79296875 373 l 1
 558.358398438 365.731445312 520.728515625 342.739257812 496.66796875 319 c 2
 413.510742188 236.952148438 l 1
 496.951171875 173.634765625 549.703125 9.2509765625 609 7.8994140625 c 1
 604.447265625 -18 l 1x98
 493.662109375 -45.3388671875 420.97265625 174.952148438 353.58203125 185 c 1
 344.291015625 177 l 1
 344.291015625 124.724609375 348.464266846 74.205078125 351.865234375 54 c 0
 354.009368548 39 363.249538992 37.15234375 374.376953125 33 c 0
 383.668945312 29 392.959960938 28 405.967773438 27 c 1
 401.322265625 -7 l 1x58
 369.731445312 -1 352.078125 4 313.0546875 4 c 0
 285.180664062 4 251.732421875 -3 223.858398438 -5 c 1
 222 28 l 1x38
 232.220703125 29 242.666992188 30.0302734375 251.732421875 33 c 0
 270.946224397 40 276.219637455 48.0576171875 278.463867188 76 c 0
 280.828111401 110.776247769 282.875661367 141.079908966 283.972682148 176.781777245 c 0
 280.732357303 179.45238137 277.599307891 182.260717864 274.41796875 185 c 1
 207.02734375 174.952148438 134.337890625 -45.3388671875 23.5537109375 -18 c 1
 19 7.8994140625 l 1
 78.296875 9.2509765625 131.048828125 173.634765625 214.489257812 236.952148438 c 1
 131.33203125 319 l 2
 107.271484375 342.739257812 69.6416015625 365.731445312 41.20703125 373 c 1
 43.0654296875 403 l 1
 62.6103515625 399 88.8759765625 399 109.033203125 399 c 0
 131.268554688 399 160.092773438 399 181.504882812 401 c 1
 183.36328125 374 l 1
 176.805664062 372 161.063476562 373 161.063476562 355 c 0
 161.063476562 348 168.708984375 334.732421875 174.071289062 328 c 0
 204.528148774 289.76945396 252.041811429 243.957466989 284.700190446 211.852711205 c 1
 284.78283762 219.257677826 284.826171875 226.952565833 284.826171875 235 c 0
 284.826171875 251.155273438 284.149359622 302.49609375 282.430664062 321.732421875 c 0x98
EndSplineSet
EndChar
StartChar: afii10094
Encoding: 1100 1100 1097
Width: 425
VWidth: 1159
Flags: W
HStem: -3 28<31 70.9789 167.312 278.275> 215 19<148 250.307> 384 25<32 70.3958>
VStem: 80 67<32.3729 215 234 376.805> 311 78<52.0814 179.291>
LayerCount: 2
Fore
SplineSet
210 382 m 1
 204 382 179 380 168 377 c 0
 155 373 155 359 154 349 c 0
 149 291.5 149 236.090909091 148 234 c 1
 202 234 243 237 279 231 c 0
 339 219 389 177 389 121 c 1
 389 46.6 329 -3 238 -3 c 3
 199 -3 149 1 106 1 c 3
 71 1 37 -2 31 -2 c 1
 29 22 l 1
 41 23 76 26 76 55 c 0
 76 57.0707964602 80 107.805309735 80 172 c 1
 80 258.658227848 75 333.96835443 75 335 c 0
 74 360 74 376 62 379 c 0
 57 380 33 383 28 384 c 1
 32 409 l 1
 40 409 72 403 104 403 c 3
 136 403 179 405 209 409 c 1
 210 382 l 1
214 214 m 0
 188 215 147 215 147 215 c 1
 147 160.463768116 148 106.956521739 149 73 c 0
 150 45 155 40 167 32 c 0
 173 30 221 25 236 25 c 3
 285 25 311 60.5813953488 311 115 c 1
 311 165 281 208 214 214 c 0
EndSplineSet
Validated: 33
EndChar
StartChar: afii10106
Encoding: 1113 1113 1233
Width: 625
Flags: HW
HStem: -6.2998 83.8994<38.5089 132.57> -3 28<262.586 313.596 384.488 506.325> 215 19<395 480.202> 369.1 34.3711<246.131 320.263> 390.8 20G<185.331 194.992>
VStem: 327.432 66.5684<34.337 215 234 368.386> 536 78<51.3159 180.757>
LayerCount: 2
Fore
SplineSet
443 214 m 0x66
 423.985074627 215 394 215 394 215 c 1
 394 160.463768116 394.787514335 106.94959863 396 73 c 0
 397 45 400.852908824 37.9290803343 414 32 c 0
 418.434782609 30 453.913043478 25 465 25 c 3
 511.386666667 25 536 60.5813953488 536 115 c 1
 536 165 507.409354378 210.612694864 443 214 c 0x66
327.431640625 203.905273438 m 3
 327.431640625 248.683116478 324.284076647 296.550303831 320.799804688 348.799804688 c 0
 320.099609375 359.299804688 310.4296875 369.099609375 303.299804688 369.099609375 c 3x76
 283.484375 369.099609375 267.185892239 370.587862913 245.099609375 364.900390625 c 0
 234.50390625 362.171875 220.563063801 351.832794235 218.474609375 333.400390625 c 0
 214.010742188 294.002929688 202.272066617 217.617885517 196.799804688 161 c 0
 191.569335938 106.883789062 179.362155417 55.57764841 150.599609375 30.099609375 c 0
 126.594726562 8.8359375 103.649414062 -6.2998046875 67.2001953125 -6.2998046875 c 3
 51.080078125 -6.2998046875 25.8935546875 1.400390625 13.2998046875 16.7998046875 c 1
 14.1572265625 51.6044921875 13.2998046875 51.6044921875 55.2998046875 99.2998046875 c 1
 75.0166015625 90 86.8212890625 77.599609375 109.900390625 77.599609375 c 3
 143.262695312 77.599609375 157.257023236 122.908963495 161.885742188 157.166992188 c 0
 175.8359375 260.415039062 185.161132812 379.056640625 185.5 410.799804688 c 1xae
 204.483398438 406.75 222.648447778 404.9193904 240.799804688 404.5 c 0
 271.104492188 403.799804688 333.030273438 403.470703125 341.954101562 403.470703125 c 3x36
 368.998046875 403.470703125 374.040039062 403.299804688 452.200195312 409.400390625 c 1
 453.599609375 373.299804688 l 1
 424.715820312 371.900390625 407.817481029 378.691832361 403.799804688 350.200195312 c 0
 399.446603318 319.329158706 396.367509267 280.889377852 395 234 c 1
 441.580152672 234 476.971901709 237.439793985 508 231 c 0
 565.818181818 219 614 177 614 121 c 1
 614 46.6 555.589403974 -3 467 -3 c 3
 433.318181818 -3 390.136363636 1 353 1 c 3
 311 1 270.2 -5 263 -6 c 1
 260 26 l 1
 276.085106383 26.8787878788 323 29.5151515152 323 55 c 0
 323 57.6354915653 327.431640625 122.205034915 327.431640625 203.905273438 c 3
EndSplineSet
EndChar
StartChar: uni0591
Encoding: 1425 1425 2457
Width: 0
Flags: HW
HStem: -115.582 61.582<269.263 298.801>
VStem: 223 30<-215.995 -121.266> 269 30<-93.6411 -54.0049> 313 30<-215.995 -121.18>
LayerCount: 2
Fore
SplineSet
258.54296875 -111.58203125 m 3
 253.46947311 -111.58203125 230 -118 230 -153 c 3
 230 -177 230 -215 230 -215 c 17
 197 -215 l 9
 197 -153 l 3
 197 -110.969569573 222.43926087 -91.0126722921 244 -84.7470703125 c 1
 244 -51 l 17
 274 -51 l 9
 274 -85.1162109375 l 1
 295.97125 -92.2965503742 319 -111.116135438 319 -155 c 3
 319 -178 319 -215 319 -215 c 17
 286 -215 l 9
 286 -155 l 3
 286 -117.89458843 264.034934263 -111.58203125 258.54296875 -111.58203125 c 3
EndSplineSet
EndChar
StartChar: uni0593
Encoding: 1427 1427 2462
Width: 0
VWidth: 0
Flags: W
HStem: 643.92 229.681
VStem: 174.48 165.995
LayerCount: 2
Fore
SplineSet
331.080078125 873.600585938 m 5
 337.34375 848.543945312 l 5
 269.483398438 825.576171875 l 5
 340.475585938 790.080078125 l 5
 340.475585938 769.200195312 l 5
 271.572265625 748.3203125 l 5
 341.51953125 714.912109375 l 5
 341.51953125 696.120117188 l 5
 182.83203125 643.919921875 l 5
 174.48046875 671.064453125 l 5
 248.603515625 690.900390625 l 5
 176.567382812 727.440429688 l 5
 176.567382812 748.3203125 l 5
 250.69140625 768.15625 l 5
 178.65625 802.608398438 l 5
 178.65625 825.576171875 l 5
 331.080078125 873.600585938 l 5
EndSplineSet
EndChar
